<?xml version="1.0" encoding="utf-8"?>
<!-- Generator: Adobe Illustrator 24.2.0, SVG Export Plug-In . SVG Version: 6.00 Build 0)  -->
<svg version="1.1" id="Layer_1" xmlns="http://www.w3.org/2000/svg" xmlns:xlink="http://www.w3.org/1999/xlink" x="0px" y="0px"
	 viewBox="0 0 620 1024" style="enable-background:new 0 0 620 1024;" xml:space="preserve">
<style type="text/css">
	.st0{fill:#F8B13F;}
	.st1{fill:#FEEFC4;}
	.st2{opacity:0.4;fill:#F8B13F;}
	.st3{opacity:0.4;fill:#EAD296;}
	.st4{fill:#FFFFFF;}
	.st5{fill:#FFD79C;}
	.st6{fill:#331C00;}
	.st7{fill:#664702;}
</style>
<g>
	<path class="st0" d="M393.9,798l-2.7,82.2l-0.5,1c-5.2,10.8-10.3,25.2-9.4,29.6c0.8,4.1,11.8,12.8,19.8,19.2
		c5.2,4.2,10.6,8.5,15.2,12.7c6.1,5.7,22.4,18,38.1,27.9c24.3,15.4,32.5,16.1,34.4,15.9c2-9.7-10.7-27.8-19.4-37.2l-24.9-26.8
		l31.6,18.5c18.3,10.8,45.8,26.7,59.8,34.3c-1.7-4.7-3.9-10.5-5.9-15.6l-0.9-2.4c-4.6-11.8-38-40.7-38-40.7s45.1,15,54.9,18.8
		c-7-12.7-22-35.7-31.7-44.7c-9.3-8.8-53.7-14.2-79.5-15.5l-4.5-0.2l-11.6-89.3C410.6,790.3,402.3,794.3,393.9,798z"/>
	<path class="st0" d="M290.9,899l-3.2-99c-7.4,1.2-15.6,0.5-23.4-1.6l-12.4,95.5l-4.5,0.2c-25.8,1.3-70.2,6.7-79.5,15.5
		c-9.6,9-24.7,32-31.7,44.7c9.8-3.8,63.6-24.7,63.6-24.7s-42,34.8-46.6,46.7l-0.9,2.4c-2,5.1-4.2,10.9-5.9,15.6
		c14-7.7,41.4-23.6,59.8-34.3l31.6-18.5l-25,26.8c-8.7,9.3-21.4,27.5-19.4,37.2c1.9,0.2,10-0.5,34.4-15.9
		c15.7-9.9,32-22.2,38.1-27.9c4.6-4.3,10-8.6,15.2-12.7c8-6.4,19-15.1,19.8-19.2c0.9-4.4-4.2-18.8-9.4-29.6L290.9,899z"/>
	<path class="st0" d="M413.6,98.4c-1-1-1.9-2-2.7-2.9c-2.9,10.3-8.6,24.5-19.5,38.1c-5.7,7.1-12.8,12.7-19.7,17.3
		c2.3,5,3.8,10.4,4,16.1c0.1,3.5-0.3,7-1.2,10.3c38.7,7.3,114.1,8.5,150.1-15.9c29-19.7,42.4-44.5,45.3-61.1c1-6,0.4-9.2,0-10.4
		c-4.9-0.6-22.5,4-36.8,7.8c-22.5,6-50.5,13.4-73.6,14.6C434.7,113.8,420.9,105.6,413.6,98.4z M483.7,113.2c6.5,0,11.7,2.3,11.7,5.2
		c0,2.9-5.2,5.2-11.7,5.2c-6.5,0-11.7-2.3-11.7-5.2C472.1,115.5,477.3,113.2,483.7,113.2z M471.6,128.7c0,2.9-5.2,5.2-11.7,5.2
		c-6.5,0-11.7-2.3-11.7-5.2c0-2.9,5.2-5.2,11.7-5.2C466.4,123.6,471.6,125.9,471.6,128.7z"/>
	<path class="st1" d="M382.3,202.7c-6-3.2-11.4-6.5-16.2-9.5c0.2-0.2,0.4-0.4,0.6-0.7c-5.5,7-12.6,12.2-20.3,15.7
		c5.5-6.5,10.7-12.8,14.5-19.7c1-1.7,1.7-3.5,2.6-5.2c0.6-1.8,1.4-3.5,1.8-5.3c1-3.6,1.5-7.2,1.4-10.9c-0.2-7.3-2.6-14.6-6.4-21.5
		c-3.7-7-8.6-13.6-14-20.1c3.9,1.7,7.4,4.2,10.8,6.9c3.3,2.7,6.3,5.8,8.9,9.2c6.1-4.1,12.2-8.9,16.9-14.8
		c17.8-22.3,24.9-51.6,25.2-51.9c0.5-0.5,12.1,28.8,50.6,26.7c15.3-0.8,33.3-4.6,50.3-8.8c-3-5-6.5-10-10.5-14.9
		c-22.8-28.7-64.5-59.8-112.8-61.2c-1.1,0-2.1,0-3.2,0c-31.2,0-60,13.5-85.8,40.1c-20.2,20.8-30.8,42.3-30.9,42.5l-0.2,0.5
		c-15.6,25.4-32.7,87.7-11.5,121.5c12,19.1,35,27.1,68.3,23.8c39.9-4,74.7-13.2,103.6-25C412.3,216.7,397.7,210.9,382.3,202.7z
		 M448.1,46c12.1,0,21.8,9.8,21.8,21.8s-9.8,21.8-21.8,21.8c-12.1,0-21.8-9.8-21.8-21.8S436,46,448.1,46z M331.7,94.6
		c0-12.1,9.8-21.8,21.8-21.8s21.8,9.8,21.8,21.8c0,12.1-9.8,21.8-21.8,21.8S331.7,106.7,331.7,94.6z"/>
	<path class="st1" d="M427.2,529.7c0.8,7.2,6.9,23.6,14.7,32.7c3.2,3.8,5.3,4.6,6,4.5c2.2-0.3,5.7-2.3,9.3-5.6
		C447.6,546.2,434,533.3,427.2,529.7z"/>
	<path class="st0" d="M427.3,192.6c-15.4,0-32.3-1.2-47-3.4c21.5,12.5,52,25.9,80,23.1c32.2-3.3,50.8-19.7,61.5-36.9
		c-15.6,7.9-44.3,17.2-93.8,17.2C427.8,192.6,427.5,192.6,427.3,192.6z"/>
	<path class="st2" d="M427.3,192.6c-15.4,0-32.3-1.2-47-3.4c21.5,12.5,52,25.9,80,23.1c32.2-3.3,50.8-19.7,61.5-36.9
		c-15.6,7.9-44.3,17.2-93.8,17.2C427.8,192.6,427.5,192.6,427.3,192.6z"/>
	<path class="st1" d="M486.4,439.7c39.8,65.1,58.6,107.7,47,201.9c-1,7.8-2.6,15.4-4.7,22.8l19.1,32.4c14.5-46,0.9-94.9,0.7-95.4
		l-6.7-23.7l47.7,56.1c1.1-30.2,0.5-104.1-28.1-139.9C540.5,467.8,509.4,450.1,486.4,439.7z"/>
	<path class="st1" d="M443.2,390.5c-39.3-64.1-48.8-116.7-50.2-147.9c-15.8,4.5-32.7,8.1-50.5,10.7c-0.3,37.1-3.1,139.2-24,190
		c9.5,0.3,14.4,2.6,14.4,2.6c-0.7,0.1-67.2,7.8-111.5,69.1c-11.5,16-20.8,29.7-29.1,41.8c-22.7,33.5-37.1,54.7-65.4,73
		c7.6,4.3,22.1,9.9,42.9,6.3c32.2-5.6,66.3-31.4,66.3-31.4l-44.5,70.6c15.6,1.6,52.1,4.1,73-17.7c16.5-17.3,27.7-83.2,27.7-83.2
		l-2.8,107.3c15-5,49.9-19,68.1-46.7c23.4-35.6,0.7-128,0.5-128.9c0,0,15.3,18.5,19.8,55.4c3.4,28.2,1.3,60.2-11.3,79.4
		c-25.8,39.4-79.4,52.8-81.7,53.4l-7.1,1.7l2.7-39.2c-2.5,3-5.4,6-8.7,8.9c-33.7,30-87.9,19.5-90.2,19.1l-7.7-1.5l33-50.8
		c-9.9,6.3-22,12-35.2,14.3c-36.7,6.3-57.2-12.5-58.1-13.3l-5.2-4.9l6.2-3.6c23.8-13.9,37.3-28.9,53.4-51.4
		c-0.6,0.4-0.9,0.6-0.9,0.6l-2.2,1.4l-2.4-0.9c-42.6-15.5-60.2-45.8-67.5-68.5c-4-12.4-5.4-23.9-5.8-32.3
		c-22.1,23.5-32.8,46.9-32,69.8c1.2,32.8,26.4,53.6,26.6,53.8l16.5,13.4l-20.9-4c-23.5-4.5-39.7-18-49.1-28.5
		c1.2,36.5,13.4,65.4,36.3,85.9c19.7,17.6,41.1,22.8,44.2,23c0,0,0,0,0,0c4.1,0,5.6,2.8,12.1,14.6c15.8,29,56.9,104.2,128.4,113
		l2.6-20.2c-9-4.1-16.4-10.1-19.6-17c0,0,33,25.9,86.9,2.2c0,0-8.1,10.9-23.1,16.9l0.6,17.1c40.8-5,85.3-20,123.3-42.2
		c58.7-34.4,94.4-81.1,100.6-131.6c12.6-102.2-10.6-139.3-61.4-220.6C455.5,410.4,449.6,400.8,443.2,390.5z M479.1,515.9
		c5.7,9.4,5.6,21.6-0.5,34.3c-2.2,4.5-5,8.8-8.1,12.7c3.6,6.9,6.3,14,7.5,20.9c1.9,11-1.7,24.4-12.9,38.4
		c-19.8,24.5-48.2,33.1-48.2,33.1c15.4-11.6,54.5-46.8,50.6-69.7c-0.8-4.9-2.6-9.8-4.9-14.7c-4.5,3.7-9.1,6.1-13.2,6.6
		c-9.7,1.3-17.9-9.9-23.2-19.5c-0.2-0.3-15.2-28.4-7.5-37.4c1.2-1.4,3.9-3.5,9-2.1c8.7,2.4,25.1,16.8,36.9,34.5
		c1.6-2.3,3.1-4.7,4.3-7.4c2.6-5.4,6.1-15.7,1-24.1c-11.9-19.6-43.3-47.5-43.6-47.8C426.4,473.7,466.3,495,479.1,515.9z"/>
	<polygon class="st1" points="371.6,150.9 371.6,150.9 371.6,150.9 	"/>
	<path class="st3" d="M265.9,99.3l-0.2,0.5c-15.6,25.4-32.7,87.7-11.5,121.5c12,19.1,35,27.1,68.3,23.8c6.1-0.6,12.1-1.4,18-2.2
		c-55.9-13.7-74.8-102.2-49.4-158.7c15.8-35.3,41.8-53.8,63.5-63.5c-20.5,5.7-39.8,17.8-57.7,36.3C276.7,77.6,266.1,99.1,265.9,99.3
		z"/>
	<path class="st3" d="M221.5,515c-11.5,16-20.8,29.7-29.1,41.8c-22.7,33.5-37.1,54.7-65.4,73c65.1-11.4,104.3-62.6,131.9-108.1
		c27.6-45.5,84.7-48.1,96.3-66c11.6-17.8,4.5-103.4,17.8-143.5c4.3-12.9,13.9-23.1,25-31c-3.2-15.1-4.6-28.1-5.1-38.7
		c-15.8,4.5-32.7,8.1-50.5,10.7c-0.3,37.1-3.1,139.2-24,190c9.5,0.3,14.4,2.6,14.4,2.6C332.4,445.9,265.8,453.6,221.5,515z"/>
	<path class="st3" d="M191.8,675.4c0,0,39.3-10.6,52.3-32c13.1-21.4,15.5-66,15.5-66s-12.7,15.2-23.4,27.5L191.8,675.4z"/>
	<path class="st3" d="M296.4,537l-4.4,39.7c0.3-1.4,0.4-2.2,0.4-2.2l-2.8,107.3c2.1-2.6,37.7-28.2,35.3-75.7
		C322.6,558.4,296.4,537,296.4,537z"/>
	<path class="st3" d="M57.2,543.7c1.2,32.8,26.4,53.6,26.6,53.8l16.5,13.4l-4.9-0.9c13.2,6.5,25.2,7,32.7,6.3
		c1.7-1.2,3.3-2.4,4.8-3.7C64.7,560,89.2,473.8,89.2,473.8C67.1,497.3,56.4,520.8,57.2,543.7z"/>
	<path class="st3" d="M298.5,803.4l0.3,10.6c26.6-3.3,54.7-10.8,81.6-21.8C360.1,797.5,329.5,803.7,298.5,803.4z"/>
	<path class="st3" d="M66.7,664.3c19.7,17.6,41.1,22.8,44.2,23c0,0,0,0,0,0c4.1,0,5.6,2.8,12.1,14.6c15.8,29,56.9,104.2,128.4,113
		l2.3-17.6c-6-1.7-11.8-3.9-17.3-6.6C171,759.3,131.2,661.2,131.2,661.2c-96.9-9.5-100.8-82.9-100.8-82.9
		C31.6,614.9,43.7,643.8,66.7,664.3z"/>
	<path class="st3" d="M522.9,510.3c2.1-15.6,5.2-30.6,8.8-44.4c-15.4-11.4-31.7-20.1-45.3-26.2C502,465.2,514.3,487.2,522.9,510.3z"
		/>
	<path class="st3" d="M554.3,651.5c-7.1-8.5-13.6-18.2-19-29.2c-0.5,6.2-1.2,12.6-2,19.3c-1,7.8-2.6,15.4-4.7,22.8l19.1,32.4
		C552.5,681.3,554.2,665.6,554.3,651.5z"/>
	<path class="st2" d="M416.3,130.4c4.5-8.2,11.1-14.8,18.5-20.3c-10.1-2.8-16.8-7.4-21.2-11.7c-1-1-1.9-2-2.7-2.9
		c-2.9,10.3-8.6,24.5-19.5,38.1c-5.7,7.1-12.8,12.7-19.7,17.3c2.3,5,3.8,10.4,4,16.1c0.1,3.5-0.3,7-1.2,10.3
		c17.4,3.3,42.1,5.3,67.4,4.4C421,174.8,401.4,157.4,416.3,130.4z"/>
	<path class="st2" d="M264.3,798.4l-12.4,95.5l-4.5,0.2c-25.8,1.3-70.2,6.7-79.5,15.5c-9.6,9-24.7,32-31.7,44.7
		c5-2,21.7-8.4,36.7-14.3c-2.2-3.3-1.6-10.5,7.6-18.5c13.7-11.9,73.7-13.7,82.6-14.9c8.9-1.2,7.7-17.2,7.7-17.2l6.2-89
		C272.8,800.2,268.5,799.5,264.3,798.4z"/>
	<path class="st2" d="M182.7,960.1c-1.3-12,17.1-30.5,17.1-30.5s-42,34.8-46.6,46.7l-0.9,2.4c-2,5.1-4.2,10.9-5.9,15.6
		c11.2-6.2,31.1-17.6,48-27.5C188.7,966.8,183.3,965.3,182.7,960.1z"/>
	<path class="st2" d="M227.7,989.4c9.7-6.1,19.6-13.2,27.2-19c-12.4,3.6-28.2,6.7-27.6-1.5c0.9-13.8,21.8-36.6,21.8-36.6l-11.5,9
		l-25,26.8c-8.7,9.3-21.4,27.5-19.4,37.2C195.2,1005.5,203.4,1004.8,227.7,989.4z"/>
	<path class="st2" d="M381.4,910.9c0.8,4.1,11.8,12.8,19.8,19.2c0.6,0.5,1.2,1,1.8,1.4c-8.9-24.3,7.6-52.1,7.6-52.1l-4.5-87
		c-4,2-8.1,3.9-12.2,5.7l-2.7,82.2l-0.5,1C385.6,892.1,380.5,906.5,381.4,910.9z"/>
	<path class="st4" d="M427.4,41.8c-0.6,0-1.2-0.1-1.8-0.4c-10.8-4.9-22.9-7.7-35.8-8.4c-2.5-0.1-4.4-2.2-4.2-4.7
		c0.1-2.5,2.2-4.3,4.7-4.2c14,0.7,27.2,3.8,39,9.2c2.2,1,3.2,3.7,2.2,5.9C430.8,40.8,429.1,41.8,427.4,41.8z"/>
	<path class="st4" d="M365.5,34.6c-2,0-3.9-1.4-4.4-3.5c-0.5-2.4,1-4.8,3.4-5.3c0.1,0,3.7-0.8,9.5-1.3c2.4-0.2,4.6,1.6,4.8,4
		c0.2,2.5-1.6,4.6-4,4.8c-5.2,0.5-8.3,1.1-8.3,1.1C366.1,34.5,365.8,34.6,365.5,34.6z"/>
	<g>
		<path class="st4" d="M381.1,773.3c-1.7,0-3.4-1-4.1-2.7c-1-2.3,0.1-4.9,2.4-5.8c72.9-31.1,101.7-72,113-100.8
			c0.9-2.3,3.5-3.4,5.8-2.5c2.3,0.9,3.4,3.5,2.5,5.8c-11.9,30.4-42,73.5-117.8,105.8C382.3,773.1,381.7,773.3,381.1,773.3z"/>
		<path class="st4" d="M502.7,648.4c-0.3,0-0.5,0-0.8-0.1c-2.4-0.4-4-2.8-3.6-5.2c2-10.7,1.4-17.5,1.4-17.5c-0.2-2.4,1.6-4.6,4-4.8
			c2.4-0.2,4.6,1.6,4.8,4c0,0.3,0.7,7.9-1.5,19.9C506.7,646.9,504.8,648.4,502.7,648.4z"/>
		<path class="st4" d="M571.6,587.2c-2.4,0-4.4-1.9-4.5-4.3c-0.8-20.9-4.5-39.6-11-55.5c-0.9-2.3,0.2-4.9,2.4-5.8
			c2.3-0.9,4.9,0.2,5.8,2.4c6.9,16.9,10.8,36.6,11.7,58.6c0.1,2.5-1.8,4.5-4.3,4.6C571.7,587.2,571.7,587.2,571.6,587.2z"/>
		<path class="st4" d="M551.1,512.4c-1.5,0-2.9-0.7-3.7-2c-4.4-6.7-7.8-9.9-7.8-9.9c-1.8-1.6-2-4.5-0.3-6.3c1.6-1.8,4.4-2,6.3-0.4
			c0.2,0.2,4.3,3.8,9.4,11.7c1.3,2.1,0.8,4.8-1.3,6.2C552.8,512.2,551.9,512.4,551.1,512.4z"/>
		<path class="st4" d="M455.1,450.5c-1.4,0-2.8-0.6-3.6-1.9c-16.2-22.7-30.8-47.7-43.2-74.2c-1-2.2-0.1-4.9,2.1-5.9
			c2.2-1,4.9-0.1,5.9,2.1c12.2,26.1,26.5,50.6,42.4,72.8c1.4,2,1,4.8-1,6.2C456.9,450.2,456,450.5,455.1,450.5z"/>
		<path class="st4" d="M399.6,347.2c-1.8,0-3.5-1.1-4.2-2.9c-4.7-12.3-6.9-19.7-7-20c-0.7-2.4,0.7-4.8,3-5.5c2.4-0.7,4.8,0.7,5.5,3
			c0,0.1,2.2,7.4,6.8,19.4c0.9,2.3-0.3,4.9-2.6,5.8C400.7,347.1,400.1,347.2,399.6,347.2z"/>
		<path class="st4" d="M338.3,638.6c-0.9,0-1.8-0.3-2.6-0.9c-2-1.5-2.4-4.3-0.9-6.2c16.2-22,15.9-53.7,12.7-76.4
			c-0.3-2.4,1.4-4.7,3.8-5c2.4-0.3,4.7,1.4,5,3.8c3.4,24.4,3.7,58.6-14.4,83C341,638,339.7,638.6,338.3,638.6z"/>
		<path class="st4" d="M348.4,540.3c-2,0-3.9-1.4-4.3-3.5c-1.9-8.3-3.7-13.5-3.7-13.6c-0.8-2.3,0.5-4.9,2.8-5.6
			c2.3-0.8,4.9,0.5,5.6,2.8c0.1,0.2,1.9,5.7,3.9,14.4c0.6,2.4-0.9,4.8-3.3,5.3C349,540.2,348.7,540.3,348.4,540.3z"/>
	</g>
	<g>
		<path class="st5" d="M282.4,897.2c-1,0-1.8-0.8-1.8-1.8l-0.5-68.2c0-1,0.8-1.8,1.8-1.8c0,0,0,0,0,0c1,0,1.8,0.8,1.8,1.8l0.5,68.2
			C284.2,896.4,283.4,897.2,282.4,897.2C282.4,897.2,282.4,897.2,282.4,897.2z"/>
		<path class="st5" d="M281.9,819.6c-1,0-1.8-0.8-1.8-1.8l-0.1-8c0-1,0.8-1.8,1.8-1.8c0,0,0,0,0,0c1,0,1.8,0.8,1.8,1.8l0.1,8
			C283.7,818.8,282.9,819.6,281.9,819.6C281.9,819.6,281.9,819.6,281.9,819.6z"/>
	</g>
	<g>
		<path class="st5" d="M419.7,877.3c-0.9,0-1.7-0.7-1.8-1.6l-5-58.3c-0.1-1,0.6-1.8,1.6-1.9c1-0.1,1.8,0.6,1.9,1.6l5,58.3
			c0.1,1-0.6,1.8-1.6,1.9C419.8,877.3,419.8,877.3,419.7,877.3z"/>
		<path class="st5" d="M413.9,809.6c-0.9,0-1.7-0.7-1.8-1.6l-0.7-8.1c-0.1-1,0.6-1.8,1.6-1.9c1-0.1,1.8,0.6,1.9,1.6l0.7,8.1
			c0.1,1-0.6,1.8-1.6,1.9C414,809.6,413.9,809.6,413.9,809.6z"/>
		<path class="st5" d="M519.8,917.7c-0.6,0-1.2-0.3-1.6-0.9c-0.1-0.2-10.5-19-22.5-21.9c-7.1-1.7-24.1-3.5-37.1-4.6
			c-1-0.1-1.7-1-1.6-1.9c0.1-1,1-1.7,1.9-1.6c13.1,1.2,30.3,2.9,37.7,4.7c13.5,3.3,24.3,22.8,24.8,23.6c0.5,0.9,0.2,1.9-0.7,2.4
			C520.3,917.6,520,917.7,519.8,917.7z"/>
		<path class="st5" d="M448.3,889.4c0,0-0.1,0-0.1,0c-5.5-0.4-9.2-0.7-9.2-0.7c-1-0.1-1.7-0.9-1.7-1.9c0.1-1,0.9-1.7,1.9-1.7
			c0,0,3.7,0.3,9.3,0.7c1,0.1,1.7,0.9,1.6,1.9C450,888.7,449.2,889.4,448.3,889.4z"/>
	</g>
	<g>
		<path class="st5" d="M465.8,168.7c-1.5,0-2.6-1.2-2.7-2.6c0-1.5,1.2-2.7,2.6-2.7c42.6-0.7,66.7-23.9,79.5-43.2
			c0.8-1.2,2.5-1.6,3.7-0.8c1.2,0.8,1.6,2.5,0.8,3.7C536.2,143.5,510.8,168,465.8,168.7C465.8,168.7,465.8,168.7,465.8,168.7z"/>
		<path class="st5" d="M553,114.9c-0.4,0-0.8-0.1-1.2-0.3c-1.3-0.7-1.8-2.3-1.1-3.6c2.9-5.6,4.2-9.3,4.2-9.4c0.5-1.4,2-2.2,3.4-1.7
			c1.4,0.5,2.2,2,1.7,3.4c-0.1,0.2-1.4,4.2-4.5,10.2C554.9,114.4,554,114.9,553,114.9z"/>
	</g>
	<g>
		<path class="st6" d="M375.4,94.6c0-12.1-9.8-21.8-21.8-21.8s-21.8,9.8-21.8,21.8c0,12.1,9.8,21.8,21.8,21.8
			S375.4,106.7,375.4,94.6z"/>
		<path class="st6" d="M448.1,89.7c12.1,0,21.8-9.8,21.8-21.8S460.1,46,448.1,46c-12.1,0-21.8,9.8-21.8,21.8S436,89.7,448.1,89.7z"
			/>
		<path class="st7" d="M426.4,473.7c0.3,0.3,31.6,28.2,43.6,47.8c5.1,8.4,1.6,18.7-1,24.1c-1.3,2.7-2.8,5.1-4.3,7.4
			c-11.8-17.7-28.2-32.1-36.9-34.5c-5-1.4-7.8,0.7-9,2.1c-7.8,9.1,7.3,37.2,7.5,37.4c5.2,9.6,13.5,20.8,23.2,19.5
			c4.1-0.5,8.7-3,13.2-6.6c2.3,4.9,4.1,9.9,4.9,14.7c3.9,22.9-35.2,58.1-50.6,69.7c0,0,28.4-8.7,48.2-33.1
			c11.3-13.9,14.8-27.4,12.9-38.4c-1.2-6.9-3.9-14-7.5-20.9c3.1-3.8,5.9-8.1,8.1-12.7c6.1-12.7,6.2-24.9,0.5-34.3
			C466.3,495,426.4,473.7,426.4,473.7z M448,566.9c-0.7,0.1-2.8-0.7-6-4.5c-7.8-9.1-13.9-25.6-14.7-32.7c6.7,3.6,20.4,16.5,30,31.7
			C453.6,564.6,450.2,566.6,448,566.9z"/>
		<path class="st7" d="M599.3,586.4c-3.2-45.3-13.2-78.7-29.7-99.3c-27.1-33.9-69.3-54.1-93.1-63.4c-2-3.2-4.1-6.5-6.2-9.9
			c-5.8-9.2-11.7-18.8-18.1-29.1c-39.1-63.6-47.5-116.1-48.6-145.5c15-4.7,29-10.2,41.8-16.2c2.3,0.2,4.6,0.3,6.8,0.3
			c3,0,6-0.1,9-0.4c37-3.7,64.7-24.8,78.2-59.3c0,0,0,0,0-0.1c28.4-22.6,40.1-49.2,41.3-66.3c0.4-5.1,0-11.9-4.1-15.6
			c-5.4-5-17.5-2-46.6,5.7c-3.3,0.9-6.8,1.8-10.3,2.7c-3.6-6.3-8-12.6-12.9-18.8C482.6,40.8,438.1,7.6,386.1,6
			c-35.1-1-68.7,14-97.2,43.5c-20.4,21.1-31.2,42.2-32.5,44.8c-15.8,26-36,93.3-11.3,132.6c12.3,19.6,33.5,29.5,63.1,29.5
			c4.9,0,10-0.3,15.3-0.8c2.8-0.3,5.6-0.6,8.3-0.9c-0.5,39.2-3.7,144.4-25.2,189.3c-8,1.1-17.7,3.8-29.1,9
			c-21.5,9.9-44.8,28.2-64.8,55.8c-11.6,16-20.9,29.7-29.1,41.8c-9.5,6.3-16.7,10.8-20.1,13c-70.9-27.4-64-99.2-63.6-102.2l1.6-14.4
			L91,456.9c-30.7,28.8-45.7,58.2-44.5,87.3c0.7,19.6,8.7,35.2,16.3,45.8c-21.9-11-32.8-30-32.9-30.2l-9.1-16.4l-0.9,18.7
			c-2.1,43.5,9.1,78.4,33.3,103.8c21.7,22.8,46.8,30.2,55.2,31.7c1.2,1.8,3.3,5.7,5.3,9.4c16.5,30.3,59.5,109,136.4,118.5l-7.6,58.1
			c-6.4,0.4-18.7,1.4-32.1,3.2c-26.6,3.6-42.9,8.5-49.8,14.9c-9.5,8.9-21.5,27.3-25,32.8c-15.5,24.3-14.2,27.7-13.3,29.9
			c0.9,2.2,3,3.7,5.4,3.7c2.3,0,10-2.7,23.1-8.1c-3.2,3.9-5.9,8.1-7.5,12.4l-0.9,2.4c-9.1,23.4-10.5,27.9-7.9,31.7
			c1.1,1.6,2.9,2.6,4.9,2.6c1.6,0,3.6,0,50-26.9c-4.8,8.6-8.3,18.4-6.1,26.6c1,3.4,3.4,5.9,6.8,6.8c1,0.3,2.1,0.4,3.4,0.4
			c21.1,0,72-39.5,79.7-46.7c4.3-4,9.5-8.2,14.6-12.2c11.8-9.4,22-17.6,23.6-25.5c1.9-9.5-6.9-29.3-9.7-35.3l-2.3-71.7
			c26.9-3.3,55.8-10.8,83.8-22.1l-2.4,75c-2.8,6-11.6,25.8-9.7,35.3c1.6,7.9,11.8,16,23.6,25.5c5.1,4,10.3,8.2,14.6,12.2
			c7.7,7.2,58.6,46.7,79.7,46.7c1.2,0,2.4-0.1,3.4-0.4c3.5-1,5.9-3.4,6.8-6.8c2.3-8.2-1.2-18-6.1-26.6c46.4,26.9,48.3,26.9,50,26.9
			c2,0,3.8-1,4.9-2.6c2.6-3.8,1.2-8.3-7.9-31.7l-0.9-2.4c-1.7-4.3-4.4-8.5-7.5-12.4c13,5.4,20.8,8.1,23.1,8.1c2.4,0,4.5-1.4,5.4-3.7
			c0.9-2.2,2.2-5.6-13.3-29.9c-3.5-5.4-15.5-23.9-25-32.8c-6.8-6.4-23.1-11.3-49.8-14.9c-13.4-1.8-25.7-2.8-32.1-3.2l-11-84.8
			c42.5-25.2,78.5-59.9,95.4-102.5l25.6,43.5l4.1-9.9c14.2-33.8,12.4-70.1,9.1-92.2l35.3,41.5l1.1-12.8
			C599.4,646.7,601.7,619.7,599.3,586.4z M460.3,212.3c-28,2.8-58.5-10.6-80-23.1c14.7,2.2,31.6,3.4,47,3.4c0.3,0,0.5,0,0.8,0
			c49.4,0,78.2-9.3,93.8-17.2C511.1,192.6,492.6,209.1,460.3,212.3z M532.9,97.8c14.3-3.8,31.9-8.5,36.8-7.8c0.4,1.2,1.1,4.5,0,10.4
			c-2.9,16.6-16.3,41.4-45.3,61.1c-35.9,24.4-111.3,23.2-150.1,15.9c0.9-3.3,1.3-6.8,1.2-10.3c-0.2-5.7-1.6-11.2-4-16.1c0,0,0,0,0,0
			c6.9-4.6,14-10.2,19.7-17.3c10.9-13.6,16.6-27.8,19.5-38.1c0.8,1,1.7,2,2.7,2.9c7.3,7.1,21.1,15.3,45.8,14
			C482.4,111.2,510.4,103.8,532.9,97.8z M322.4,245c-33.3,3.4-56.2-4.6-68.3-23.8c-21.2-33.8-4-96.1,11.5-121.5l0.2-0.5
			c0.1-0.2,10.7-21.7,30.9-42.5c25.8-26.6,54.7-40.1,85.8-40.1c1,0,2.1,0,3.2,0c48.3,1.4,90,32.6,112.8,61.2c3.9,5,7.4,10,10.5,14.9
			c-17,4.2-34.9,8-50.3,8.8c-38.5,2.1-50-27.3-50.6-26.7c-0.4,0.3-7.4,29.7-25.2,51.9c-4.7,5.9-10.9,10.7-16.9,14.8
			c-2.6-3.4-5.6-6.5-8.9-9.2c-3.4-2.7-6.9-5.2-10.8-6.9c5.4,6.5,10.2,13.1,14,20.1c3.7,6.9,6.2,14.2,6.4,21.5
			c0.1,3.7-0.4,7.3-1.4,10.9c-0.4,1.8-1.2,3.5-1.8,5.3c-0.8,1.7-1.6,3.5-2.6,5.2c-3.8,6.8-9,13.2-14.5,19.7
			c7.7-3.5,14.8-8.8,20.3-15.7c-0.2,0.2-0.4,0.4-0.6,0.7c4.8,3,10.2,6.3,16.2,9.5c15.4,8.3,30,14,43.7,17.4
			C397.1,231.8,362.3,241,322.4,245z M370.8,149.2c-0.2-0.3-0.3-0.7-0.5-1C370.4,148.5,370.6,148.9,370.8,149.2z M369.4,146.8
			c-0.3-0.5-0.6-0.9-0.8-1.4C368.9,145.8,369.1,146.3,369.4,146.8z M367.9,144.3c-0.6-0.8-1.1-1.6-1.7-2.4
			C366.8,142.7,367.3,143.5,367.9,144.3z M300.8,929.6c-0.8,4.1-11.8,12.8-19.8,19.2c-5.2,4.2-10.6,8.5-15.2,12.7
			c-6.1,5.7-22.4,18-38.1,27.9c-24.3,15.4-32.5,16.1-34.4,15.9c-2-9.7,10.7-27.8,19.4-37.2l25-26.8l-31.6,18.5
			c-18.3,10.8-45.8,26.7-59.8,34.3c1.7-4.7,3.9-10.5,5.9-15.6l0.9-2.4c4.6-11.8,46.6-46.7,46.6-46.7s-53.8,20.9-63.6,24.7
			c7-12.7,22-35.7,31.7-44.7c9.3-8.8,53.7-14.2,79.5-15.5l4.5-0.2l12.4-95.5c7.8,2.1,16,2.8,23.4,1.6l3.2,99l0.5,1
			C296.6,910.8,301.7,925.2,300.8,929.6z M430.2,875.1l4.5,0.2c25.8,1.3,70.2,6.7,79.5,15.5c9.6,9,24.7,32,31.7,44.7
			c-9.8-3.8-54.9-18.8-54.9-18.8s33.4,28.9,38,40.7l0.9,2.4c2,5.1,4.2,10.9,5.9,15.6c-14-7.7-41.4-23.6-59.8-34.3l-31.6-18.5
			l24.9,26.8c8.7,9.3,21.4,27.5,19.4,37.2c-1.9,0.1-10.1-0.5-34.4-15.9c-15.7-9.9-32-22.2-38.1-27.9c-4.6-4.3-10-8.6-15.2-12.7
			c-8-6.4-19-15.1-19.8-19.2c-0.9-4.4,4.2-18.8,9.4-29.6l0.5-1l2.7-82.2c8.4-3.7,16.7-7.8,24.7-12.2L430.2,875.1z M422.1,771.8
			c-38,22.2-82.4,37.2-123.3,42.2l-0.6-17.1c15-6,23.1-16.9,23.1-16.9c-53.9,23.6-86.9-2.2-86.9-2.2c3.2,6.8,10.6,12.8,19.6,17
			l-2.6,20.2c-71.5-8.8-112.6-84.1-128.4-113c-6.5-11.8-8-14.6-12.1-14.6c0,0,0,0,0,0c-3.1-0.2-24.4-5.4-44.2-23
			c-23-20.5-35.2-49.3-36.3-85.9c9.4,10.5,25.5,24,49.1,28.5l20.9,4l-16.5-13.4c-0.3-0.2-25.4-21-26.6-53.8
			c-0.8-22.9,9.9-46.3,32-69.8c0.4,8.4,1.8,19.8,5.8,32.3c7.3,22.7,24.9,53,67.5,68.5l2.4,0.9l2.2-1.4c0,0,0.4-0.2,0.9-0.6
			c-16.1,22.6-29.5,37.5-53.4,51.4l-6.2,3.6l5.2,4.9c0.9,0.8,21.4,19.6,58.1,13.3c13.3-2.3,25.3-8,35.2-14.3l-33,50.8l7.7,1.5
			c2.3,0.5,56.5,10.9,90.2-19.1c3.3-3,6.2-5.9,8.7-8.9l-2.7,39.2l7.1-1.7c2.3-0.6,55.8-14,81.7-53.4c12.6-19.2,14.7-51.2,11.3-79.4
			c-4.4-37-19.8-55.4-19.8-55.4c0.2,0.9,22.9,93.3-0.5,128.9c-18.2,27.7-53.1,41.8-68.1,46.7l2.8-107.3c0,0-11.1,66-27.7,83.2
			c-20.9,21.8-57.4,19.3-73,17.7l44.5-70.6c0,0-34.2,25.9-66.3,31.4c-20.8,3.6-35.3-2-42.9-6.3c28.3-18.3,42.7-39.5,65.4-73
			c8.2-12.1,17.5-25.8,29.1-41.8c44.3-61.4,110.9-69.1,111.5-69.1c0,0-5-2.4-14.4-2.6c20.8-50.8,23.6-152.8,24-190
			c17.8-2.6,34.6-6.3,50.5-10.7c1.4,31.2,10.9,83.8,50.2,147.9c6.4,10.3,12.3,19.9,18.1,29.1c50.8,81.3,74,118.4,61.4,220.6
			C516.5,690.7,480.8,737.4,422.1,771.8z M589.4,633.7l-47.7-56.1l6.7,23.7c0.1,0.5,13.7,49.4-0.7,95.4l-19.1-32.4
			c2.2-7.4,3.8-15,4.7-22.8c11.6-94.2-7.2-136.8-47-201.9c23.1,10.5,54.1,28.2,74.9,54.2C589.9,529.6,590.5,603.6,589.4,633.7z"/>
		<path class="st7" d="M448.3,128.7c0,2.9,5.2,5.2,11.7,5.2c6.5,0,11.7-2.3,11.7-5.2c0-2.9-5.2-5.2-11.7-5.2
			C453.5,123.6,448.3,125.9,448.3,128.7z"/>
		<path class="st7" d="M483.7,123.6c6.5,0,11.7-2.3,11.7-5.2c0-2.9-5.2-5.2-11.7-5.2c-6.5,0-11.7,2.3-11.7,5.2
			C472.1,121.2,477.3,123.6,483.7,123.6z"/>
	</g>
	<g>
		<path class="st4" d="M356.8,90.4c3.3,3.3,7.7,4.3,9.7,2.3c2-2.1,1-6.4-2.3-9.7c-3.3-3.3-7.7-4.3-9.7-2.3
			C352.4,82.8,353.5,87.1,356.8,90.4z"/>
		<path class="st4" d="M451.6,63.6c3.3,3.3,7.7,4.3,9.7,2.3c2-2.1,1-6.4-2.3-9.7c-3.3-3.3-7.7-4.3-9.7-2.3
			C447.2,56,448.3,60.3,451.6,63.6z"/>
	</g>
</g>
</svg>
