<?xml version="1.0" encoding="utf-8"?>
<!-- Generator: Adobe Illustrator 24.2.0, SVG Export Plug-In . SVG Version: 6.00 Build 0)  -->
<svg version="1.1" id="Layer_1" xmlns="http://www.w3.org/2000/svg" xmlns:xlink="http://www.w3.org/1999/xlink" x="0px" y="0px"
	 viewBox="0 0 1255 635" style="enable-background:new 0 0 1255 635;" xml:space="preserve">
<style type="text/css">
	.st0{fill:#CCE23C;}
	.st1{fill:#E2596C;}
	.st2{fill:#7A8700;}
	.st3{fill:#9AA814;}
	.st4{opacity:0.5;fill:#CCE23C;}
	.st5{opacity:0.4;fill:#E2596C;}
	.st6{opacity:0.4;fill:#7A8700;}
	.st7{fill:none;stroke:#F5FF99;stroke-width:1.565;stroke-linecap:round;stroke-linejoin:round;stroke-miterlimit:10;}
	.st8{fill:#EF7D92;}
	.st9{fill:#212100;}
	.st10{fill:#FFFFFF;}
	.st11{fill:#A8B715;}
	.st12{fill:#373A00;}
</style>
<g>
	<path class="st0" d="M94.1,421.4c-11,4-22,6-32.8,2.2c-9.4-3.3-15.8-9.6-18.7-18.2c-0.8-2.4-1.3-4.8-1.5-7.3
		c-3,6.5-5.1,12.6-6.2,18.1c-2.1,10.2,2,20.5,12.3,30.7c4.7,4.7,10.6,9.2,17.4,13.5C71.8,447.2,81.7,434.2,94.1,421.4z"/>
	<path class="st1" d="M173.6,410.6c-8.3-4.7-16-8.1-22.9-8.3c-7.8-0.3-15.9,2-24,5.1c-36.3,28.8-57.9,59.2-64.2,90.7
		c-4.2,20.7-0.6,37.6,3.2,48.4c9.6-28.7,21.6-38.8,22.2-39.3l4.7-3.8l3.5,5c11.5,16.5,24.3,29,33.3,36.9
		c-6.3-33.2-5.7-75.4,21.8-111.9C158.6,423.6,166.5,416.2,173.6,410.6z"/>
	<path class="st2" d="M258,233.7c30.6-19.2,50.6-13.8,50.6-13.8c-1.9,0.7-3.7,1.4-5.5,2c21.9,7.2,44,20.9,65.5,40.7
		c13.7-15.4,30.7-30.2,41.2-38.8c-34.9-5.3-66.9-2.5-67.3-2.4l-16.6,1.5l38.1-35.2c-52,1.6-65.4,11.6-65.6,11.7l-7.8-8.1l42.7-47.9
		c-40.4,11-87,34.5-106.4,62.4c-14.3,20.7-14,46.6-12.1,62C222.1,259.5,235.1,248.1,258,233.7z"/>
	<path class="st2" d="M1100.1,96.5l6.7-3.7c1.1-0.6,2.3-1.1,3.5-1.6l3.5-1.5c1.4-0.6,2.9-1.2,4.3-1.7c-13-13.8-25.2-25.4-36.4-34.3
		l-2.1,2.1c-3.3,3.1-6.2,6.6-9.2,9.9c-5.1,6.2-9.6,12.8-13.5,19.8c9.7,6.4,17.7,15.8,23.8,28C1086.2,106.8,1092.9,101.1,1100.1,96.5
		z"/>
	<path class="st0" d="M1068.2,54.2c0.8-0.9,1.7-1.8,2.6-2.6l2.8-2.4l1.1-0.9c-16.8-12.4-30.7-18.2-40-16.4
		c-18.2,3.6-45.5,14.3-70.6,27.6c1.7,3.6,3.6,7,5.8,10.3c2.3,3.4,4.9,6.6,7.8,9.6c1.4,1.5,3,2.9,4.5,4.4c0.1,0.1,0.1,0.1,0.2,0.2
		c2.4-1,4.7-2,7.1-2.8c22.9-8.3,43.8-7.9,60.7,0.4c3.2-7.9,7.7-15.3,13.1-21.9L1068.2,54.2z"/>
	<path class="st3" d="M198,508.8c-5.8,6.7-9.7,12.7-12.3,17.2l28.2-4.4c2.6-3.5,5.5-7.3,8.8-11C214,510.1,205.7,509.5,198,508.8z"/>
	<path class="st0" d="M1097.5,203.1c4.4-2.8,8.9-5.3,13.6-7.6c13.8-6.8,28.9-11.2,44.3-13c12.3-1.5,24.9-1.2,37.1,0.8
		c-17.6-26.9-39.2-55.7-61.2-80.7c-2.4-2.7-4.7-5.3-7.1-7.9c-2.3,1-4.7,1.9-6.9,3.2l-3.2,1.5c-1.1,0.5-2.1,1-3.1,1.6l-6,3.5
		c-7.5,4.8-14.6,10.3-20.9,16.7C1094.7,146.6,1099,175.4,1097.5,203.1z"/>
	<path class="st2" d="M589.4,175.4c48.9-12.5,134,30.3,216.2,71.6c6.4,3.2,12.8,6.4,19.2,9.6c-19.1-18.9-30.3-34-31.3-35.4l-6.7-9.2
		l79.2,1.1c-60.7-37.7-132.8-42.4-133.6-42.4l-28.2-1.7l82.1-28.7c-88-13.7-151.1,13.3-151.8,13.6l-22.3,9.8l38.3-45.4
		c-100.9,26.9-122.4,66.6-122.6,67l-10.3-4.7l18.6-45.6c-71.4,46.3-97.4,102-105.9,126.6c4.1-3,8.4-6,12.8-9
		C502.8,210.9,552,184.9,589.4,175.4z"/>
	<path class="st2" d="M1114,353.2c-1.2-1.7-2.7-3.3-4.1-4.9l-2-2.4l-2.2-2.3c-1.5-1.5-2.9-3.1-4.5-4.5c-12.2-11.7-27-20.6-43-26.5
		c-3.7-1.3-7.5-2.5-11.3-3.6c-9.5,6.9-20.1,11.9-31.6,15.1c14.6,8.3,27.8,19.6,38,33.2c3.2,4.1,5.9,8.6,8.6,13l3.6,6.9
		c1.2,2.3,2.1,4.7,3.2,7.1l1.5,3.6l1.2,3.7c0.8,2.5,1.7,4.9,2.4,7.4c1,4.1,2.1,8.2,2.8,12.3c6.8-4.4,13.6-8.9,20.2-13.5
		c11-7.6,21.4-15.3,31.2-22.8c-3.1-5.8-6.5-11.3-10.2-16.7L1114,353.2z"/>
	<path class="st2" d="M1198.1,192c-13.9-1.6-27.8-1.8-41.6-0.1c-7.2,0.9-14.4,2.2-21.5,3.9c-7.1,1.7-14.1,4-21,6.5
		c-5.7,2.2-11.4,4.6-17,7.2c-1.3,14.1-4.1,27.8-8.5,40.6c6.3-1.3,12.8-2.3,19.2-2.8c18.9-1.6,38.3,0.3,56.7,6
		c9.2,2.9,18,6.9,26.3,11.6l6.2,3.7c2,1.3,3.9,2.7,5.9,4.1c1,0.7,2,1.4,2.9,2.1l2.8,2.3c1.8,1.6,3.7,3,5.4,4.6
		c0.6,0.6,1.2,1.2,1.9,1.8c1.7-3.2,3.3-6.3,4.6-9.4c6.3-14.9,7.1-27.7,2.3-38.1C1216.5,223,1208.1,207.9,1198.1,192z"/>
	<path class="st0" d="M942.9,113.7c-8-3.2-15.7-7.4-22.6-12.4c-2.8-2-5.6-4.2-8.2-6.5c-5.2,5-9.2,9.7-11.7,14.1
		c-3.1,5.3-4,9.9-2.7,13.7c6.4,19.3,54.9,47.3,92.5,66.1c-20.9-20.3-46.8-47.4-50.5-60.9C938.4,123.5,939.8,118.7,942.9,113.7z"/>
	<path class="st0" d="M1186.4,272.7c-8-4.1-16.3-7.7-24.8-10.4c-17.2-5.4-35.3-7.7-53.5-7.6c-7.2,0.1-14.5,0.5-21.7,1.3
		c-2.8,7.2-6.2,14.1-10,20.5c-6.5,10.8-14.2,19.9-22.9,27.4c2.4,0.5,4.8,1.1,7.1,1.7c17.5,4.8,34,14,47.2,26.7
		c6.6,6.4,12.5,13.4,17.5,21c1.3,1.9,2.4,3.9,3.5,5.8c1.2,1.9,2.3,3.9,3.3,6l2.4,4.9c36.1-28.6,62.8-56.1,77.7-80.2
		c-1-0.8-1.9-1.6-2.9-2.4C1201.8,282,1194.4,276.8,1186.4,272.7z"/>
	<path class="st0" d="M1065.9,401.4c-0.8-2.3-1.7-4.6-2.6-6.8l-1.3-3.4l-1.5-3.3c-3.9-8.9-8.9-17.2-14.7-24.9
		c-11.1-14.8-25.6-27-41.8-36.4c-3.7,0.6-7.5,1.1-11.4,1.3c-45.8,2.7-116.8-32.9-192-70.7c-80.4-40.4-163.5-82.2-208.3-70.8
		c-61.7,15.7-146.9,77.1-191,111.3c21,26.1,23.9,54.9,23.9,54.9c-0.6-1.2-59.2-107.5-138.4-123.4c-59.6,29.1-74.7,73.7-74.7,73.7
		l-5.3-18.7c-0.3-1.2-5.2-18.9-3.6-40.7c-27.9,12.9-57.4,32.9-85.9,58.8c-21.4,19.4-40.2,40.4-54.6,60.2c-8.7,14.9-12.3,30-9.2,39.3
		c1.8,5.3,5.6,8.9,11.8,11.1c12.2,4.3,26.5-2.2,41.6-9.2c14.1-6.5,28.7-13.3,44.3-12.8c14.2,0.4,28.8,9.8,44.3,19.8
		c20.2,12.9,41.1,26.3,58.3,16.8c24.3-13.5,46.4-42.8,55.8-56.3c-10.5,1.2-42.7,6.6-42.7,6.6c6.4-4.4,39.4-25.7,56.6-15.2
		c7.5,4.6,10.4,13.8,8.7,27.5c0,0-10.4-13-13.1-16.4c-7.6,12.5-30.8,47.5-59.8,63.7c-6,3.3-12.1,4.7-18.2,4.7
		c-17.6,0-35.4-11.4-51.6-21.8c-1.8-1.1-3.5-2.3-5.3-3.4c-7.3,5.4-16,13.1-24,23.7c-10.6,14.2-17.5,30.2-20.6,47.8
		c49,10.8,112.4,15,185.1,8.6l0.6-0.2c2.6-0.7,32-2.9,105.1-15.6c0,0-31.5,17.7-47.4,20.2c10.2,2.5,20.7,4.8,31.4,7
		c1.4-1.2,2.7-2.2,4-2.8c12.7-6.4,27.3,4.2,33.5,9.7c0,0,0.1,0,0.1,0c17.4-7.9,22.8-17.3,29.6-29.1c2.9-5,5.8-10.2,9.9-15.6
		c2.4-3.1,5.5-6,9.1-8.7c-22.5-35.5-22-64.5-22-64.5c0.2,0.4,15.2,37.3,31.6,58.4c19.8-10.7,49.1-5.6,49.1-5.6
		c-12.8,2.8-48.3,13-58.8,27.1c-3.7,4.9-6.5,9.8-9.2,14.5c-7.6,13.3-14.8,25.8-38.4,35.4l-3.5,1.4l-2.7-2.7
		c-3.7-3.8-16.1-13.8-23.3-10.2c-6.7,3.3-22.8,28.9-34.3,49.7c6.3,0.2,16.1,0,29.2-1.9c4.3-9.4,9.1-18.3,13.6-22.9
		c13.5-13.5,31.4,9,31.4,9c-0.2-0.1-16-8.4-23.4-1c-6.6,6.6-15.5,28.7-20.5,42.5c8.4-0.3,22.8-1.7,38.1-7.1
		c5-11.7,11.8-25.2,18.5-31.6c14.4-13.7,28.7,4.3,28.7,4.3c-0.5-0.2-11.9-4.6-20.9,3.9c-7,6.6-15.3,25.7-20.3,38.7
		c28-6.5,54.8-22.4,58.3-24.5c3-2.6,24.1-21.4,44-42.4c39.1-41.3,37.7-52.9,37-54.8c-6.6-18.4-55.7-71.4-74.1-90.3
		c0,0,38.9,23.9,61,51c11.3,13.9,20.8,27.2,23.8,35.4c2.5,7,1.9,20.3-29.4,55.4c15.9,0.8,32,1.4,48.1,1.6
		c15.9,0.2,31.6,0.1,47.1-0.3c8-12.4,19.5-27.3,32.5-34.3c10.4-5.6,28.4-7.4,53.6-5.3c1.9,0.2,3.8,0.3,5.6,0.5
		c-10.5-6.5-23.2-14.7-36-23.9c-41.6-29.7-64.1-54.3-66.6-73.1c-1.6-11.5,3.9-23.1,15.8-33.4c31.9-27.7,104.2-43.1,145.9-31.2
		c20.6,5.9,38.2,21.6,52.3,39.2c23.5,29.3,27.5,70.1,27.5,70.1c-0.3-0.8-33.5-84.2-83-98.4c-38-10.9-106.3,3.7-135.4,28.9
		c-9,7.8-13,15.6-12,23.3c4.3,31.7,89.2,85.3,121.5,103.2l31.6,17.6l-35.5-7.1c-16.5-3.3-63-9.8-80-0.6
		c-13.3,7.2-25.6,25.5-32.7,37.6l18.5-5.4c4.3-7.1,8.7-13.3,12.4-16.8c6-5.5,17.7-7.7,29.7-6.8c24.7,1.8,34.2,15.5,34.2,15.5
		c-31.8-6.7-52.1-4.3-56.2-0.4c-7.1,6.5-18.4,27.9-25.9,43.3l38.6-14c3.6-7.3,7.2-13.7,10.3-17.3c5-5.9,16-8.6,27.8-9.2
		c23.6-1.2,37,12.8,37,12.8c-23-3-51-2.4-56.2,3.7c-6.2,7.4-16.5,31.6-22.9,48.1c24-8.6,79.8-28.4,113-39.2
		c27-8.8,38.9-14.6,43.7-17.3c-4.6-9.9-16.8-35.9-31.7-63.3c-31.1-57.3-49.4-76.5-59.3-82.6c0,0,36.2,9.4,69.3,77.3
		c5.5,11.4,11,22.4,15.8,32.1c9.5-2.6,18.6-5.4,27.2-8.4c49.3-17.1,107.5-46.3,160.6-80.2c0,0,0-0.1,0-0.1
		C1068.9,410.7,1067.2,406.1,1065.9,401.4z M111,347c0,0,24.7-26.4,60.8-22.6c41.4,4.4,57.5,33.2,57.5,33.2
		C176.3,315.3,111.6,346.7,111,347z"/>
	<path class="st2" d="M966.4,80.8l-2.2-2.8c-0.7-0.9-1.4-1.9-2.1-2.9c-2.4-3.5-4.4-7.3-6-11.2c-16.1,9-29.6,18.3-39.7,27
		c2.6,1.4,5.1,2.9,7.7,4.2c8.1,4.3,16.5,7.9,25,11c6.4-6.6,15.2-12.9,24.9-18.1c-0.9-0.7-1.7-1.4-2.6-2.1
		C969.6,84.3,968.1,82.5,966.4,80.8z"/>
	<path class="st3" d="M237.8,511.2c-10,9.9-17.3,20.6-21.7,27.7c31.5-1.3,76.1-12.4,84.3-14.5c4.4-4.1,9-9.3,13.4-15
		c-20.2,1.5-38.9,2.1-56.1,2.1C250.8,511.4,244.2,511.3,237.8,511.2z"/>
	<path class="st4" d="M42.6,405.4c-0.8-2.4-1.3-4.8-1.5-7.3c-3,6.5-5.1,12.6-6.2,18.1c-2.1,10.2,2,20.5,12.3,30.7
		c4.7,4.7,10.6,9.2,17.4,13.5c6.4-11.7,14.8-23.2,25.2-34.4c-0.4-0.9-0.9-1.9-1.3-2.8c-9.1,2.6-18.2,3.5-27.1,0.3
		C52,420.3,45.5,414,42.6,405.4z"/>
	<path class="st4" d="M298.7,372.6c-9.4,12-29.7,35.5-47.5,37.3c-24,2.4-61.7-44.8-99.4-38.6c-29.6,4.8-50.7,25-68.5,26.4
		c0.3-9.8,3.1-19.9,9.1-30.2c24.4-41.8,75.5-78.1,111.2-100c-0.8-6.7-1.2-15-0.5-24c-27.9,12.9-57.4,32.9-85.9,58.8
		c-21.4,19.4-40.2,40.4-54.6,60.2c-8.7,14.9-12.3,30-9.2,39.3c1.8,5.3,5.6,8.9,11.8,11.1c3.6,1.3,7.3,1.6,11.2,1.2v0c0,0,0,0,0,0
		c2.3-0.2,4.7-0.6,7.2-1.3c0,0,0,0,0.1,0c0.4-0.1,0.8-0.2,1.2-0.3c0,0,0,0,0,0c7-2,14.3-5.3,21.9-8.8c14.1-6.5,28.7-13.3,44.3-12.8
		c14.2,0.4,28.8,9.8,44.3,19.8c20.2,12.9,41.1,26.3,58.3,16.8c24.3-13.5,46.4-42.8,55.8-56.3C306.8,371.5,303,372,298.7,372.6z"/>
	<path class="st4" d="M318.9,373.7c-7.6,12.5-30.8,47.5-59.8,63.7c-6,3.3-12.1,4.7-18.2,4.7c-17.6,0-35.4-11.4-51.6-21.8
		c-1.8-1.1-3.5-2.3-5.3-3.4c-7.3,5.4-16,13.1-24,23.7c-8.3,11.1-14.2,23.2-18,36.4l0,0c0,0,0,0,0,0c-0.5,1.8-1,3.7-1.5,5.6
		c-0.5,1.9-0.9,3.9-1.2,5.8c14.3,3.2,29.9,5.7,46.5,7.7c-11.1-3.5-22.2-7.9-32.7-13.1c8.3-23.9,20.4-40.6,30-51
		c17.4,15,42.2,37.2,72.7,21.3c32.8-17,61.4-60.5,68.8-72.3C322.3,377.9,320,375,318.9,373.7z"/>
	<g>
		<path class="st4" d="M171.8,324.5c29.2,3.1,45.8,18.4,53.1,27.1c2.5,2,5,4.2,7.5,6.5c0,0-5.7-29.7-38.2-42.4
			C161.6,303,123.4,327.5,111,347C111,347,135.7,320.6,171.8,324.5z"/>
		<path class="st4" d="M111.3,346.9c-0.2,0.1-0.3,0.2-0.4,0.2C110.9,347.1,111.1,347,111.3,346.9z"/>
	</g>
	<path class="st4" d="M418.1,505.6c12.7-6.4,27.3,4.2,33.5,9.7c0,0,0.1,0,0.1,0c14.5-6.6,20.7-14.2,26.2-23.4
		c-9.8-1.2-19-2.4-27.5-3.6c14.6-12.1,19.4-19.9,19.4-19.9c-10.2,4.7-24.8,9.2-40.1,13.2c-4,2.2-32.1,17.6-46.9,19.9
		c10.2,2.5,20.7,4.8,31.4,7C415.5,507.1,416.8,506.2,418.1,505.6z"/>
	<path class="st4" d="M745.9,355.3c5.8-7.5,15.1-12.7,25.2-16.2c-30.7,4.3-62.4,15.6-79.8,30.7c-9,7.8-13,15.6-12,23.3
		c4.3,31.7,89.2,85.3,121.5,103.2l31.6,17.6C832.4,513.8,727.1,379.7,745.9,355.3z"/>
	<path class="st4" d="M771.4,562.5c11.3-15.1,39.2-17.1,39.2-17.1c-23-3-51-2.4-56.2,3.7c-6.2,7.4-16.5,31.6-22.9,48.1
		c11.4-4.1,30.1-10.7,50.1-17.8C773.8,577.3,763.9,572.4,771.4,562.5z"/>
	<path class="st4" d="M747.9,526.2c-13.8-0.5-22.5,1.3-25.1,3.7c-7.1,6.5-18.4,27.9-25.9,43.3l25.2-9.2
		C729.2,541.9,739.5,531.3,747.9,526.2z"/>
	<g>
		<path class="st4" d="M715.1,521.5c3-2.8,7.6-4.7,12.9-5.9c5.4-6.8,12-11.3,18.2-14.3c-11.9,0-22.7,1.2-29.3,4.7
			c-13.3,7.2-25.6,25.5-32.7,37.6l18.5-5.4C707,531.2,711.3,525,715.1,521.5z"/>
		<path class="st4" d="M694.7,552.4l-2.7,0.8l2.5-0.3C694.5,552.8,694.6,552.6,694.7,552.4z"/>
	</g>
	<path class="st4" d="M797,394.8c0,0,36.2,9.4,69.3,77.3c5.5,11.4,11,22.4,15.8,32.1c6.2-1.7,12.2-3.5,18-5.3
		C864.5,410.1,797,394.8,797,394.8z"/>
	<path class="st4" d="M627.6,501.8c5.8-14.3,8.3-35.6-13-55.5c-36.4-33.9-86.3-59-86.3-59s38.9,23.9,61,51
		c11.3,13.9,20.8,27.2,23.8,35.4c1.7,4.8,1.9,12.5-7.8,27.9c-0.4,0.7-0.9,1.3-1.3,2c-0.2,0.3-0.4,0.6-0.6,0.8
		c-0.5,0.8-1.1,1.6-1.7,2.4c-0.2,0.3-0.4,0.6-0.6,0.9c-0.4,0.6-0.9,1.2-1.3,1.8c-0.3,0.4-0.6,0.8-0.9,1.2c-0.6,0.8-1.2,1.6-1.9,2.4
		c-0.4,0.5-0.8,1-1.1,1.4c-3.4,4.4-7.4,9.2-12.2,14.5c15.9,0.8,32,1.4,48.1,1.6c15.9,0.2,31.6,0.1,47.1-0.3
		c6.7-10.4,15.9-22.5,26.4-30.3C678.8,501.7,652.7,502.1,627.6,501.8z"/>
	<path class="st4" d="M501.9,444.2c2.6,4.1,5.2,8,7.9,11.5c19.8-10.7,49.1-5.6,49.1-5.6S534.5,433,501.9,444.2z"/>
	<path class="st4" d="M483.5,560.6c-7,6.6-15.3,25.7-20.3,38.7c7-1.6,13.9-3.8,20.4-6.3c8.5-33,20.8-36.4,20.8-36.4l-1-0.4
		C500.4,555.4,491.1,553.4,483.5,560.6z"/>
	<path class="st4" d="M463.1,549.5l-0.3-0.2c-2.2-1.1-16.3-7.7-23.1-0.8c-6.6,6.6-15.5,28.7-20.5,42.5c5.3-0.2,13.1-0.8,22-2.7
		C450.8,549.4,463.1,549.5,463.1,549.5z"/>
	<path class="st4" d="M448,527.5l-1.6-1.7c-3.7-3.8-16.1-13.8-23.3-10.2c-6.7,3.3-22.8,28.9-34.3,49.7c4.1,0.1,9.7,0.1,16.8-0.5
		c4.3-9.4,14.5-30.7,22.5-38.4C436.6,518.2,445.2,524.8,448,527.5z"/>
	<path class="st5" d="M150.7,402.3c-7.8-0.3-15.9,2-24,5.1c-36.3,28.8-57.9,59.2-64.2,90.7c-4.2,20.7-0.6,37.6,3.2,48.4
		c9.6-28.7,21.6-38.8,22.2-39.3l4.7-3.8c0,0-2.3-55.1,60.5-100.9C152.3,402.4,151.5,402.3,150.7,402.3z"/>
	<path class="st6" d="M333.4,143.5l0.1-0.2c-40.4,11-87,34.5-106.4,62.4c-14.3,20.7-14,46.6-12.1,62
		C215,267.8,257,187.4,333.4,143.5z"/>
	<path class="st6" d="M342.6,221.4l-13.8,1.3c-6.5,0.9-12.5,1.7-17.4,2.3c10.2,4.1,20.3,9.6,30.5,16.4c25.4-13.9,68-17.6,68-17.6
		C375,218.5,343,221.3,342.6,221.4z"/>
	<path class="st6" d="M298.4,199.2c-15.5,10.3-27.2,22.5-34.4,31c11.4-6.3,21.1-9.1,28.6-10.3c30-21.1,71.6-32.3,71.6-32.3
		c-52,1.6-65.4,11.6-65.6,11.7L298.4,199.2z"/>
	<path class="st6" d="M430.4,261.6c4.1-3,8.4-6,12.8-9c11.6-8.1,22.8-15.6,33.6-22.5c26.4-62.2,59.5-95,59.5-95
		C465,181.3,438.9,237.1,430.4,261.6z"/>
	<path class="st6" d="M528,185.3l-3-1.4c-7.2,9.7-12.2,18.8-15.7,26.4c17-9.7,32.8-17.6,47.4-23.7c34.5-43.3,93.9-68.3,93.9-68.3
		C549.7,145.2,528.2,184.9,528,185.3z"/>
	<path class="st6" d="M634.5,154l-21.5,9.4c-5.7,3.5-10.9,7-15.7,10.5c12.8-1.7,27.7-0.3,44.1,3.5c68.8-41.8,145-37,145-37
		C698.3,126.7,635.2,153.7,634.5,154z"/>
	<g>
		<path class="st7" d="M864.2,316c8.4,3.8,15.9,6.9,22.5,9.1"/>
		<path class="st7" d="M524.5,250.3c21.3-12.2,47.2-24.5,74.4-31.9c55.6-15.2,167.4,49.4,241.7,86.4"/>
		<path class="st7" d="M469.6,287.4c0,0,8.8-7.3,23.5-17.4"/>
	</g>
	<g>
		<path class="st7" d="M324.8,270.8c26.1,18.8,61.5,52.6,86.1,108"/>
		<path class="st7" d="M290.2,250.7c0,0,6.5,2.5,16.7,8.5"/>
	</g>
	<path class="st7" d="M529.3,408.9c6.2,6.7,13.4,15.2,20.1,24.8"/>
	<path class="st7" d="M512.3,392.3c0,0,2.2,1.9,5.8,5.2"/>
	<path class="st7" d="M538.7,539.3c-3.1,3-6.3,5.9-9.5,8.7"/>
	<path class="st7" d="M587,484c0,0-15,20.7-35.8,42.7"/>
	<path class="st7" d="M829.1,364.2c17.8,8.8,38.2,26.5,55.6,61.7"/>
	<path class="st7" d="M784.9,357.1c0,0,6.9-1.8,17.6-0.7"/>
	<path class="st7" d="M822.1,448.8c12.6,18.1,28.2,45.1,43.8,83.6"/>
	<path class="st7" d="M794.3,416.5c0,0,4.1,3.1,10.9,10.7"/>
	<path class="st7" d="M1061.8,321.7c-2.1,2.4-4.3,4.8-6.6,7.2"/>
	<path class="st7" d="M1098.8,266.2c-5.3,11.5-12.1,23.2-20.6,35.1"/>
	<path class="st7" d="M1114.2,212.7c-0.9,7.2-2.3,14.7-4.2,22.3"/>
	<path class="st7" d="M1101,121.2c6.4,15.5,12.4,35.5,14,58.4"/>
	<path class="st7" d="M1081.6,85.8c0,0,2.5,3.3,6.2,9.4"/>
	<path class="st7" d="M178.8,348.8c15.1,2.6,33.3,8.9,49.3,22.9"/>
	<path class="st7" d="M146.6,347.7c0,0,4.5-0.7,11.8-0.7"/>
	<g>
		<path class="st8" d="M118.8,511.2c-1,0-1.8-0.8-1.9-1.8c-2.3-39.5,12.8-66.7,25.7-82.6c0.7-0.8,1.8-0.9,2.7-0.3
			c0.8,0.7,0.9,1.8,0.3,2.7c-12.6,15.4-27.1,41.7-24.9,80c0.1,1-0.7,1.9-1.8,2C118.8,511.2,118.8,511.2,118.8,511.2z"/>
		<path class="st8" d="M151.4,421.8c-0.5,0-1-0.2-1.3-0.6c-0.7-0.7-0.7-1.9,0-2.7c5.2-5.2,8.9-7.8,9.1-7.9c0.9-0.6,2-0.4,2.6,0.5
			c0.6,0.9,0.4,2-0.5,2.6c0,0-3.6,2.5-8.6,7.4C152.4,421.6,151.9,421.8,151.4,421.8z"/>
	</g>
	<g>
		<path class="st9" d="M241.6,306.5c0,11.8,9.6,21.4,21.4,21.4c11.8,0,21.4-9.6,21.4-21.4c0-11.8-9.6-21.4-21.4-21.4
			C251.2,285.1,241.6,294.7,241.6,306.5z"/>
		<path class="st10" d="M265.6,302c3.1,3.1,7.3,4.1,9.2,2.1c1.9-1.9,0.9-6-2.2-9.1c-3.1-3.1-7.3-4.1-9.2-2.1
			C261.4,294.8,262.4,298.9,265.6,302z"/>
	</g>
	<g>
		<path class="st9" d="M135.5,291.4c0,11.8,9.6,21.4,21.4,21.4c11.8,0,21.4-9.6,21.4-21.4c0-11.8-9.6-21.4-21.4-21.4
			C145,270.1,135.5,279.6,135.5,291.4z"/>
		<path class="st10" d="M159.4,286.9c3.1,3.1,7.3,4.1,9.2,2.1c1.9-1.9,0.9-6-2.2-9.1c-3.1-3.1-7.3-4.1-9.2-2.1
			C155.3,279.7,156.3,283.8,159.4,286.9z"/>
	</g>
	<g>
		<path class="st11" d="M520,312.3c4.6,11.3,23.8,14.2,42.8,6.4c19-7.8,30.7-23.2,26.1-34.6c-4.6-11.3-23.8-14.2-42.8-6.5
			C527.1,285.5,515.4,301,520,312.3z"/>
		<path class="st11" d="M603.3,324.8c3,7.2,15.2,9.1,27.4,4.1c12.2-5,19.6-14.8,16.7-22.1c-2.9-7.2-15.2-9.1-27.4-4.1
			C607.9,307.7,600.4,317.5,603.3,324.8z"/>
		<path class="st11" d="M551.2,357.2c1.9,4.6,9.8,5.8,17.6,2.6c7.8-3.2,12.6-9.5,10.7-14.2c-1.9-4.6-9.8-5.8-17.6-2.6
			C554.1,346.3,549.3,352.6,551.2,357.2z"/>
	</g>
	<g>
		<path class="st12" d="M171.8,324.5C135.7,320.6,111,347,111,347c0.6-0.3,65.4-31.7,118.3,10.7
			C229.3,357.7,213.2,328.9,171.8,324.5z"/>
		<path class="st12" d="M1232.8,231.3c-17.5-37.9-54.9-92.6-93-136.1c-59.1-67.4-91-77.6-107.3-74.4c-42,8.4-122.3,48.7-141.9,82.4
			c-4.8,8.2-6,15.9-3.7,22.9c11.8,35.3,119,82.9,131.2,88.2l32.4,14.1l-26.3-23.5c-26.5-23.6-69.9-66.3-73.7-80.2
			c-1.3-4.8,15.5-23.2,42.7-33c48.9-17.6,70.2,10.8,78.6,29.3c21.5,47.5,19.3,109-5.2,149.6c-11.8,19.6-34.4,43.5-74.8,45.9
			c-31,1.9-77.7-16.8-127.8-40.7c-25.3-19.7-44.3-40.5-54-52.1l92.1,1.3l-13.9-10.4c-45.2-33.9-99.7-47.2-130.6-52.2l71.2-24.9
			l-19.4-4.3c-72.4-16.1-130.6-4.9-159.5,3.5l31.6-37.5l-16.6,3.8c-67.2,15.6-104.8,37.1-125.1,53.5l19.8-48.6l-14.3,8.3
			c-111.5,64.6-128.9,152.2-129.6,155.9l0.2,0c-8.1,6-15.5,11.6-22,16.7c-2.6-3.1-5.4-6.2-8.3-9.3c-2.9-3.2-5.9-6.2-8.9-9.2
			c20.2-22.7,49.3-45.1,49.8-45.5l9.8-7.5l-12.1-2.5c-25.7-5.4-51.1-6-66.9-5.6l35.9-33.1h-14.5c-30.8,0-51.2,2.6-64.5,5.6
			l50.6-56.7l-16.4,3.1c-46.6,8.9-106.5,36.2-130.8,71.1c-6.9,9.9-10.8,20.6-12.9,31.1c-30.9,13.2-63.8,35-95.3,63.6
			c-20.8,18.9-39.1,39-53.5,58.3l-0.3-0.2c-0.6,1-1.5,2.3-2.4,3.9c-15.6,21.5-26.1,41.8-29.5,58.1c-2.9,13.9,2.4,28.1,15.3,41
			c5.5,5.5,12.4,10.7,20.4,15.6c-3.7,8.4-6.5,16.9-8.2,25.5c-8.1,40.9,10.2,68.3,11,69.5l7.2,10.5l3-12.3
			c5.8-23.7,13.8-37,18.5-43.2c21,27.9,43.4,43.1,44.4,43.8l12.5,8.4l-4-14.6c-5.7-21-7.8-40.6-6.2-58.5c13.3,2.9,27.4,5.4,42.3,7.2
			c1.4,0.2,2.9,0.4,4.4,0.5c-10.2,13.4-13.5,23.5-13.7,24.2l-2.6,8.6l37.3-5.9c-2.6,4.4-4,7.3-4.2,7.7l-3.8,7.8l8.6,0.3
			c1.4,0,2.8,0.1,4.2,0.1c35.9,0,91.7-14.7,94.2-15.3l1.3-0.3l1-0.9c7.4-6.5,15-16,21.9-25.6c8-0.7,16.1-1.6,24.5-2.6
			c16.7,4.6,34.1,8.8,52.1,12.6c-12.7,16.4-27,42.9-30.6,49.6l-3.6,6.8l7.6,1.4c0.4,0.1,5.2,0.9,14,0.9c5.3,0,12.1-0.3,20.2-1.3
			c-3.8,9.5-6.5,17.5-7.1,19.4l-2.3,6.9l7.3,0.5c0.3,0,2,0.1,4.9,0.1c6.9,0,20.6-0.7,36.2-4.9c-1.4,3.7-2.3,6.4-2.6,7.4l-3,8.7
			l9.1-1.3c35.3-5.1,71-27.2,72.5-28.1l0.7-0.5c0.2-0.2,23.3-20.5,45-43.3c0.1-0.1,0.2-0.2,0.2-0.2c19.1,1.1,38.5,1.9,57.9,2.1
			c5.5,0.1,11,0.1,16.4,0.1c8.1,0,16-0.1,24-0.3c-2.7,4.8-4.3,8.1-4.5,8.6l-5.4,11.4l32.5-9.6c-7,13.2-12.8,25.9-13.9,28.4
			l-5.5,12.2l53.5-19.5c-6.2,14.5-11.4,28.5-12.4,31.2l-4.2,11.4l11.4-4.1c0.8-0.3,81.4-29.3,124.2-43.3
			c41.6-13.6,50-20.6,51.5-22.4l2.3-2.7l-1.5-3.3c-0.1-0.2-5.3-10.4-13-25.8c9-2.5,17.6-5.2,25.7-8c58.7-20.3,129.8-57.5,190.2-99.4
			c66.6-46.2,111.8-91.8,127.5-128.5C1238.3,260.6,1239,244.7,1232.8,231.3z M990.1,188.6c-37.5-18.8-86-46.8-92.5-66.1
			c-1.3-3.8-0.3-8.4,2.7-13.7c2.5-4.4,6.5-9.1,11.7-14.1c2.6,2.3,5.3,4.5,8.2,6.5c7,5,14.6,9.2,22.6,12.4c-3.1,4.9-4.5,9.7-3.3,14
			C943.3,141.2,969.2,168.3,990.1,188.6z M949.1,106.1c-8.5-3.1-16.8-6.7-25-11c-2.6-1.3-5.1-2.8-7.7-4.2c10-8.7,23.6-18,39.7-27
			c1.6,3.9,3.6,7.7,6,11.2c0.7,1,1.4,2,2.1,2.9l2.2,2.8c1.6,1.7,3.2,3.5,5,5.1c0.8,0.8,1.7,1.4,2.6,2.1
			C964.3,93.1,955.5,99.5,949.1,106.1z M989.4,81.1c-2.4,0.9-4.7,1.8-7.1,2.8c-0.1-0.1-0.1-0.1-0.2-0.2c-1.5-1.5-3.1-2.8-4.5-4.4
			c-2.9-3-5.5-6.2-7.8-9.6c-2.2-3.2-4.1-6.7-5.8-10.3c25.2-13.3,52.4-24,70.6-27.6c9.3-1.9,23.2,4,40,16.4l-1.1,0.9l-2.8,2.4
			c-0.9,0.8-1.8,1.7-2.6,2.6l-5,5.4c-5.4,6.6-9.9,14-13.1,21.9C1033.2,73.2,1012.3,72.8,989.4,81.1z M1057,85.5
			c3.9-7,8.4-13.6,13.5-19.8c3-3.3,5.9-6.8,9.2-9.9l2.1-2.1c11.1,9,23.4,20.5,36.4,34.3c-1.5,0.5-2.9,1-4.3,1.7l-3.5,1.5
			c-1.2,0.5-2.3,1-3.5,1.6l-6.7,3.7c-7.3,4.6-13.9,10.3-19.4,16.9C1074.7,101.3,1066.6,91.9,1057,85.5z M1084.2,121.2
			c6.3-6.4,13.4-11.9,20.9-16.7l6-3.5c1-0.6,2-1.1,3.1-1.6l3.2-1.5c2.2-1.2,4.5-2.2,6.9-3.2c2.3,2.6,4.7,5.2,7.1,7.9
			c21.9,25,43.6,53.7,61.2,80.7c-12.2-1.9-24.8-2.3-37.1-0.8c-15.4,1.8-30.5,6.2-44.3,13c-4.7,2.2-9.2,4.8-13.6,7.6
			C1099,175.4,1094.7,146.6,1084.2,121.2z M536.3,135l-18.6,45.6l10.3,4.7c0.2-0.4,21.7-40.1,122.6-67l-38.3,45.4l22.3-9.8
			c0.7-0.3,63.8-27.3,151.8-13.6l-82.1,28.7l28.2,1.7c0.8,0,72.9,4.7,133.6,42.4l-79.2-1.1l6.7,9.2c1,1.3,12.2,16.5,31.3,35.4
			c-6.4-3.2-12.8-6.4-19.2-9.6c-82.2-41.3-167.3-84.1-216.2-71.6c-37.4,9.5-86.6,35.5-146.2,77.2c-4.4,3-8.6,6.1-12.8,9
			C438.9,237.1,465,181.3,536.3,135z M227.1,205.8c19.4-28,66.1-51.4,106.4-62.4l-42.7,47.9l7.8,8.1c0.1-0.1,13.5-10.1,65.6-11.7
			L326,222.9l16.6-1.5c0.4,0,32.4-2.9,67.3,2.4c-10.5,8.7-27.5,23.4-41.2,38.8c-21.5-19.8-43.6-33.4-65.5-40.7
			c1.8-0.7,3.6-1.4,5.5-2c0,0-20-5.4-50.6,13.8c-23,14.4-36,25.8-43,34C213.1,252.3,212.7,226.4,227.1,205.8z M47.1,447
			c-10.2-10.2-14.4-20.6-12.3-30.7c1.1-5.5,3.3-11.6,6.2-18.1c0.3,2.5,0.7,4.9,1.5,7.3c2.9,8.5,9.3,14.8,18.7,18.2
			c10.8,3.9,21.8,1.8,32.8-2.2c-12.4,12.7-22.3,25.8-29.6,39.1C57.7,456.3,51.8,451.7,47.1,447z M96.1,508.3l-3.5-5l-4.7,3.8
			c-0.6,0.5-12.7,10.6-22.2,39.3c-3.8-10.8-7.4-27.7-3.2-48.4c6.3-31.5,27.9-61.9,64.2-90.7c8-3.1,16.1-5.3,24-5.1
			c6.9,0.2,14.6,3.6,22.9,8.3c-7,5.6-14.9,13.1-22.3,22.8c-27.5,36.4-28.2,78.6-21.8,111.9C120.4,537.4,107.7,524.9,96.1,508.3z
			 M185.8,526c2.5-4.6,6.5-10.6,12.3-17.2c7.7,0.7,16,1.3,24.8,1.8c-3.3,3.8-6.3,7.5-8.8,11L185.8,526z M300.4,524.3
			c-8.2,2.1-52.8,13.2-84.3,14.5c4.3-7.1,11.6-17.7,21.7-27.7c6.4,0.2,13,0.3,20,0.3c17.2,0,35.9-0.6,56.1-2.1
			C309.4,515,304.8,520.3,300.4,524.3z M909.3,495.8c-8.6,3-17.6,5.7-27.2,8.4c-4.8-9.7-10.3-20.7-15.8-32.1
			c-33.1-67.9-69.3-77.3-69.3-77.3c9.9,6.1,28.2,25.4,59.3,82.6c14.9,27.4,27.1,53.4,31.7,63.3c-4.8,2.7-16.7,8.4-43.7,17.3
			c-33.2,10.8-89,30.7-113,39.2c6.5-16.5,16.7-40.7,22.9-48.1c5.2-6.1,33.2-6.7,56.2-3.7c0,0-13.4-14-37-12.8
			c-11.8,0.6-22.8,3.3-27.8,9.2c-3.1,3.6-6.7,10-10.3,17.3l-38.6,14c7.5-15.4,18.8-36.8,25.9-43.3c4.2-3.9,24.4-6.3,56.2,0.4
			c0,0-9.5-13.7-34.2-15.5c-12-0.9-23.7,1.3-29.7,6.8c-3.8,3.5-8.1,9.7-12.4,16.8l-18.5,5.4c7.1-12.1,19.4-30.4,32.7-37.6
			c17.1-9.2,63.6-2.7,80,0.6l35.5,7.1l-31.6-17.6c-32.3-18-117.2-71.5-121.5-103.2c-1-7.7,3-15.5,12-23.3
			c29.1-25.2,97.4-39.8,135.4-28.9c49.4,14.1,82.6,97.5,83,98.4c0,0-4-40.8-27.5-70.1c-14.1-17.6-31.8-33.3-52.3-39.2
			c-41.7-11.9-113.9,3.6-145.9,31.2c-11.9,10.3-17.3,21.8-15.8,33.4c2.6,18.8,25,43.4,66.6,73.1c12.8,9.1,25.5,17.4,36,23.9
			c-1.8-0.2-3.7-0.4-5.6-0.5c-25.2-2.1-43.2-0.4-53.6,5.3c-13,7-24.5,21.9-32.5,34.3c-15.5,0.4-31.2,0.5-47.1,0.3
			c-16.1-0.2-32.2-0.8-48.1-1.6c31.2-35.1,31.9-48.4,29.4-55.4c-3-8.3-12.5-21.5-23.8-35.4c-22-27.1-61-51-61-51
			c18.4,18.9,67.5,71.9,74.1,90.3c0.7,1.9,2.1,13.5-37,54.8c-19.9,21-41,39.7-44,42.4c-3.5,2.1-30.3,18-58.3,24.5
			c5-13,13.3-32.1,20.3-38.7c9-8.6,20.5-4.1,20.9-3.9c0,0-14.3-18-28.7-4.3c-6.8,6.4-13.5,19.9-18.5,31.6
			c-15.3,5.4-29.7,6.8-38.1,7.1c5-13.8,13.9-35.9,20.5-42.5c7.4-7.4,23.3,0.9,23.4,1c0,0-17.9-22.5-31.4-9
			c-4.5,4.5-9.4,13.5-13.6,22.9c-13.1,1.9-22.9,2.1-29.2,1.9c11.5-20.7,27.6-46.3,34.3-49.7c7.2-3.6,19.5,6.4,23.3,10.2l2.7,2.7
			l3.5-1.4c23.7-9.6,30.8-22.1,38.4-35.4c2.7-4.7,5.5-9.6,9.2-14.5c10.5-14,46.1-24.3,58.8-27.1c0,0-29.3-5.1-49.1,5.6
			c-16.4-21.2-31.4-58-31.6-58.4c0,0-0.6,28.9,22,64.5c-3.6,2.7-6.8,5.6-9.1,8.7c-4.1,5.5-7.1,10.6-9.9,15.6
			c-6.8,11.8-12.2,21.3-29.6,29.1c0,0-0.1,0-0.1,0c-6.2-5.4-20.7-16-33.5-9.7c-1.2,0.6-2.6,1.6-4,2.8c-10.7-2.2-21.2-4.5-31.4-7
			c15.9-2.5,47.4-20.2,47.4-20.2c-73,12.8-102.5,14.9-105.1,15.6l-0.6,0.2c-72.7,6.4-136.1,2.2-185.1-8.6
			c3.1-17.6,10-33.6,20.6-47.8c7.9-10.6,16.7-18.4,24-23.7c1.8,1.1,3.5,2.2,5.3,3.4c16.2,10.4,34.1,21.8,51.6,21.8
			c6.1,0,12.2-1.4,18.2-4.7c29-16.1,52.2-51.2,59.8-63.7c2.6,3.4,13.1,16.4,13.1,16.4c1.7-13.6-1.2-22.9-8.7-27.5
			c-17.2-10.5-50.2,10.8-56.6,15.2c0,0,32.2-5.5,42.7-6.6c-9.3,13.5-31.4,42.8-55.8,56.3c-17.2,9.5-38.1-3.8-58.3-16.8
			c-15.5-9.9-30.2-19.3-44.3-19.8c-15.5-0.5-30.1,6.3-44.3,12.8c-15.1,7-29.4,13.6-41.6,9.2c-6.2-2.2-10-5.8-11.8-11.1
			c-3.1-9.3,0.5-24.4,9.2-39.3c14.4-19.8,33.2-40.8,54.6-60.2c28.6-25.9,58.1-46,85.9-58.8c-1.7,21.7,3.3,39.5,3.6,40.7l5.3,18.7
			c0,0,15.1-44.6,74.7-73.7c79.2,15.9,137.8,122.2,138.4,123.4c0,0-2.9-28.8-23.9-54.9c44.1-34.1,129.4-95.5,191-111.3
			c44.8-11.4,127.9,30.3,208.3,70.8c75.1,37.8,146.1,73.5,192,70.7c3.9-0.2,7.7-0.7,11.4-1.3c16.3,9.4,30.8,21.6,41.8,36.4
			c5.8,7.7,10.8,16,14.7,24.9l1.5,3.3l1.3,3.4c0.8,2.3,1.8,4.5,2.6,6.8c1.4,4.7,3,9.3,4,14.1c0,0,0,0.1,0,0.1
			C1016.8,449.6,958.6,478.8,909.3,495.8z M1096.8,397.8c-6.6,4.6-13.3,9.1-20.2,13.5c-0.7-4.1-1.8-8.2-2.8-12.3
			c-0.7-2.5-1.6-4.9-2.4-7.4l-1.2-3.7l-1.5-3.6c-1-2.4-2-4.8-3.2-7.1l-3.6-6.9c-2.7-4.4-5.4-8.9-8.6-13
			c-10.2-13.6-23.3-24.9-38-33.2c11.5-3.2,22.1-8.2,31.6-15.1c3.8,1.1,7.6,2.3,11.3,3.6c16,6,30.8,14.8,43,26.5c1.6,1.4,3,3,4.5,4.5
			l2.2,2.3l2,2.4c1.3,1.6,2.8,3.2,4.1,4.9l3.8,5.1c3.7,5.4,7.1,10.9,10.2,16.7C1118.2,382.6,1107.8,390.2,1096.8,397.8z M1134.4,370
			l-2.4-4.9c-0.9-2.1-2.1-4-3.3-6c-1.2-1.9-2.2-4-3.5-5.8c-5-7.6-10.9-14.7-17.5-21c-13.2-12.7-29.8-21.8-47.2-26.7
			c-2.4-0.7-4.7-1.2-7.1-1.7c8.7-7.5,16.4-16.6,22.9-27.4c3.9-6.4,7.2-13.3,10-20.5c7.2-0.8,14.5-1.2,21.7-1.3
			c18.2-0.1,36.3,2.3,53.5,7.6c8.6,2.7,16.9,6.3,24.8,10.4c8,4.1,15.4,9.3,22.8,14.7c1,0.8,2,1.6,2.9,2.4
			C1197.1,313.9,1170.5,341.4,1134.4,370z M1220.3,274.1c-1.3,3-2.8,6.2-4.6,9.4c-0.6-0.6-1.2-1.2-1.9-1.8c-1.7-1.6-3.6-3.1-5.4-4.6
			l-2.8-2.3c-0.9-0.7-1.9-1.4-2.9-2.1c-2-1.4-3.9-2.8-5.9-4.1l-6.2-3.7c-8.3-4.7-17.2-8.7-26.3-11.6c-18.4-5.7-37.8-7.6-56.7-6
			c-6.5,0.5-12.9,1.5-19.2,2.8c4.4-12.8,7.2-26.5,8.5-40.6c5.6-2.7,11.2-5.1,17-7.2c6.9-2.5,13.9-4.8,21-6.5
			c7.1-1.7,14.3-3,21.5-3.9c13.8-1.7,27.7-1.5,41.6,0.1c10,15.9,18.5,31,24.5,44C1227.4,246.4,1226.6,259.3,1220.3,274.1z"/>
	</g>
</g>
</svg>
