<?xml version="1.0" encoding="utf-8"?>
<!-- Generator: Adobe Illustrator 24.2.0, SVG Export Plug-In . SVG Version: 6.00 Build 0)  -->
<svg version="1.1" id="Layer_1" xmlns="http://www.w3.org/2000/svg" xmlns:xlink="http://www.w3.org/1999/xlink" x="0px" y="0px"
	 viewBox="0 0 872 1024" style="enable-background:new 0 0 872 1024;" xml:space="preserve">
<style type="text/css">
	.st0{fill:#B7B6BE;}
	.st1{fill:#FECACF;}
	.st2{fill:#34343F;}
	.st3{opacity:0.4;fill:#B7B6BE;}
	.st4{opacity:0.4;fill:#FECACF;}
	.st5{fill:#7C7B8B;}
	.st6{fill:#B25063;}
	.st7{opacity:0.4;fill:#B25063;}
	.st8{fill:#D87990;}
	.st9{fill:#D4D4D8;}
	.st10{fill:#FFDEE3;}
	.st11{fill:none;stroke:#FFFFFF;stroke-width:0.939;stroke-linecap:round;stroke-linejoin:round;stroke-miterlimit:10;}
	.st12{fill:#FFFFFF;}
</style>
<g>
	<g>
		<path class="st0" d="M115.8,673.1c-0.2-0.4-0.8-1.5,1.4-4.4c12.1-16.6,47.8-24.8,74.9-28.3c-8.2,13.5-16.6,29-24.2,46.2
			C138,684.1,118.6,678.5,115.8,673.1z M152.8,935.9c-40.9-1.7-64.8-10.1-70.4-17.7c-1.1-1.5-2.1-3.3,0.4-6.9
			c10.7-15.8,42.5-27,70.8-33.8c10.7,22,27.9,41.3,50.9,56.9C187.1,936.1,169.6,936.6,152.8,935.9z M519,838
			c-4.7,41.2-23.6,72.7-52.8,93.8c-16,11.6-18.4,15.1-56.3,37.7c-53.7,28.3-108.2,41.5-122.8,32.5c-1.6-1-3.2-2.3-2.3-6.6
			c6.3-29.3,65.5-67.6,87.8-79.8c3-1.6-49.2,13.2-76.5,40.7c-20.9-4.1-41.3-10.7-59.7-19.6c-62.9-30.4-78.9-74.9-81.4-106.9
			c-6.8-89.3,37.2-166.7,66.4-207.5c26.4,13.5,57.3,25.6,91.3,35.7c50.4,14.9,99.4,22.5,140.5,22.5c9.9,0,19.4-0.5,28.3-1.3
			C510.1,730.5,524.5,788.6,519,838z M836.9,374.8c-4.8,27.9-25.6,66.9-98,94c-50.9,19.1-107.1,23.7-137.9,20
			c-2.2-0.3-4.3,0.5-5.8,2c-1.5,1.5-2.3,3.7-2,5.9c0.2,1.2,14.8,125-74,159.8c-42.9,16.8-120.4,12.1-202.4-12.1
			c-82.3-24.3-147-62.1-168.9-98.6c-21.3-35.4-26.1-73.4-13.9-109.9c10.1-30.2,31.5-58.1,58.7-76.6c2.5-1.7,3.7-4.9,2.8-7.8
			c-0.9-2.9-3.5-5-6.6-5.1c-0.2,0-24.5-0.7-54.7-14.7c-40.7-18.9-71.4-51.5-91.2-97c-18.4-42.3-18.1-83.1,1-118
			c24.6-45,79.3-78.2,146.5-89c6.7-1.1,13.2-1.6,19.8-1.6c35.9,0,69.3,16.1,95.6,46.4c42.8,49.4,57,124.7,36,191.9
			c-0.7,2.2-0.2,4.6,1.2,6.5c1.4,1.8,3.6,2.8,6,2.7c1.1-0.1,109.9-6.1,163.4,56.3c1.8,2.1,4.7,3,7.4,2.2c2.7-0.8,4.6-3.1,5-5.8
			c0-0.3,4.8-35.4,24.2-73.1c25.7-49.8,63.6-80.5,112.7-91.1c52.9-11.5,91.3,12.2,114.2,34.1C820.6,238.9,846.9,315.8,836.9,374.8z"
			/>
		<path class="st0" d="M422.6,760.4C397,777.5,311,800,295.6,787.3c-1-0.8-3.2-2.6-0.2-9.7c18-42.4,78.4-65.2,79-65.4
			c3.2-1.2-20.2-6.2-51.1,14.2c-16.2,10.7-31.1,27-39.3,46.4c-5.7,13.5-0.2,20.9,3.7,24.1c5.5,4.6,14.8,6.5,26.1,6.5
			c14.2,0,31.5-3.5,48.8-7.3C408.4,785.9,425.4,758.5,422.6,760.4z"/>
	</g>
	<path class="st1" d="M591,926.4c10.9,0.6,22,0.4,33.2-0.6c11.7-1.1,22.8-3,32.9-5.6l8-2.2l8.5-3c1.3-0.4,2.7-1.1,3.8-1.6l4.2-2
		c2.3-1,4.4-2.2,6.6-3.6l1.1-0.7c10.1-6.1,19.1-13.9,26.6-23.2c7.3-9,13.1-19.1,17.4-30.1c3.9-10.3,6.6-21.4,7.8-33.3
		c1.1-11.4,0.8-22.7-0.8-33.6c-1.7-11.1-4.6-21.9-8.6-32.1c-3.9-9.8-9.1-19.5-15.6-28.9c-5.6-8.3-12.8-16.4-21.4-24.2
		c-5.3-4.8-11.1-9.2-17.3-13.2c5.4,5.1,10.2,10.4,14.5,15.9c6.7,8.4,12.4,17.2,16.8,26c5.1,10.4,8.7,19.7,10.9,28.5
		c5.3,20.1,6.3,40.6,2.9,59.1c-1.6,9.6-4.5,18.9-8.4,27.7c-3.8,8.7-9,16.7-15.3,23.8c-6.1,7-13.3,12.9-21.4,17.5
		c-0.6,0.3-1.1,0.6-1.6,0.9c-1.4,0.8-2.9,1.7-4.7,2.4l-2.9,1.3c-1,0.5-2.2,1-3.6,1.4l-6.2,2.1c-0.1,0-0.2,0.1-0.3,0.1l-7,1.9
		c-10.4,2.5-20,4.2-29.5,5.1c-9.6,1-19.7,1.3-30,1.1c-19.7-0.6-39.9-3.4-60.2-8.3c-4.3-1-8.7-2.2-13.3-3.5c-2.8,5.9-6,11.6-9.6,16.9
		c5.4,2,11.3,4,17.6,6C548.2,921.3,569.9,925.2,591,926.4z"/>
	<path class="st2" d="M401.7,559.5c-6.1,6.4-38.5,36.1-95.8,12.4l21.2-50.9c-1.2-0.3-2.4-0.7-3.6-1.1c-3.4-1.2-6.6-2.6-9.4-4.3
		l-21,50.2c-42.4-23.3-42.4-61.9-42.4-63.6c0,0-18.6,49.8,42,79.3c22.1,10.7,41.4,14,57.7,13.6C385.9,594.1,401.7,559.5,401.7,559.5
		z"/>
	<path class="st3" d="M192.6,359.3c-27.2,18.5-48.6,46.4-58.7,76.6c-12.2,36.5-7.4,74.5,13.9,109.9c14.9,24.8,49.5,50.2,96,71.5
		c-36-24.7-71.6-61.9-75.1-113.4c-7.1-103.4,63.5-125.7,67-153.9c3.5-28.2-48.2-30.6-78.7-41.1c-30.6-10.6-103.4-63.5-89.3-153.9
		C81.7,64.4,190.3,27.7,190.3,27.7c-67.2,10.8-121.9,44.1-146.5,89c-19.1,34.9-19.4,75.7-1,118c19.8,45.5,50.5,78.1,91.2,97
		c30.2,14,54.5,14.7,54.7,14.7c3.1,0.1,5.7,2.1,6.6,5.1C196.3,354.4,195.1,357.6,192.6,359.3z"/>
	<g>
		<path class="st1" d="M220.1,113.5c-2,0-3.9,0.1-5.7,0.2c-38.4,2.7-74.4,30.6-85.8,54.9c-21.1,45.2,9.4,97.3,81.7,139.9
			c9.9-9.1,39.3-33.7,75.2-39c6.6-11.9,31.4-64.8-6.9-123.4C261.4,119.8,238.3,113.5,220.1,113.5z M289.4,275.3L289.4,275.3
			L289.4,275.3z M289.4,275.3L289.4,275.3L289.4,275.3z"/>
		<path class="st4" d="M170.2,178.8c2.6-27.4,13.7-47.6,26.7-62.1c-31.4,8.3-58.6,31.4-68.3,52c-21.1,45.2,9.4,97.3,81.7,139.9
			c5.6-5.2,17.6-15.4,33.6-24.3C203.4,273.7,165.2,232.3,170.2,178.8z"/>
		<path class="st5" d="M211.2,322.4c-1.1,0-2.1-0.3-3.1-0.8C126.8,275,92.9,215.9,117.4,163.4c13.1-28.1,52.7-58.9,96.1-62
			c22.1-1.6,53.1,3.8,75.4,38c47.1,72.1,6,138.6,5.6,139.3c-1,1.6-2.7,2.6-4.5,2.8c-40.5,4.6-74,38.8-74.4,39.1
			C214.5,321.8,212.9,322.4,211.2,322.4z M220.1,113.5c-2,0-3.9,0.1-5.7,0.2c-38.4,2.7-74.4,30.6-85.8,54.9
			c-21.1,45.2,9.4,97.3,81.7,139.9c9.9-9.1,39.3-33.7,75.2-39c6.6-11.9,31.4-64.8-6.9-123.4C261.4,119.8,238.3,113.5,220.1,113.5z
			 M289.4,275.3L289.4,275.3L289.4,275.3z M289.4,275.3L289.4,275.3L289.4,275.3z"/>
	</g>
	<g>
		<path class="st1" d="M604.5,428.7c83.8,3.7,137.8-23.3,144.8-72.7c3.7-26.6-11.3-69.6-42-92.8c-15-11.3-39.6-21.9-71.5-7.8
			c-64.1,28.3-72.1,86.1-73.1,99.7C589.9,379.1,601.2,415.7,604.5,428.7z"/>
		<path class="st4" d="M629.3,314.7c35.1-29.5,70.3-34.1,98.8-29.9c-5.8-8.1-12.8-15.6-20.8-21.7c-15-11.3-39.6-21.9-71.5-7.8
			c-64.1,28.3-72.1,86.1-73.1,99.7c8.2,7.3,15,15.6,20.5,24.2C587.9,360.7,600.8,338.6,629.3,314.7z"/>
		<path class="st5" d="M619.4,441.4c-6.6,0-13.3-0.2-20.2-0.6c-2.8-0.2-5.2-2.2-5.7-5c-0.1-0.5-9.6-47.4-41-73.3
			c-1.4-1.2-2.3-3-2.2-4.8c0-0.8,1.8-78.9,80.7-113.7c37.4-16.5,66.3-4.1,84,9.3c34.7,26.3,51.1,73.7,46.7,104.4
			C754,410.8,701.4,441.4,619.4,441.4z M604.5,428.7c83.8,3.7,137.8-23.3,144.8-72.7c3.7-26.6-11.3-69.6-42-92.8
			c-15-11.3-39.6-21.9-71.5-7.8c-64.1,28.3-72.1,86.1-73.1,99.7C589.9,379.1,601.2,415.7,604.5,428.7z"/>
	</g>
	<g>
		<path class="st6" d="M323.5,519.9c17.8,6.1,35.4,1.9,39.3-9.5c3.9-11.3-7.4-25.5-25.2-31.5c-17.8-6.1-35.4-1.9-39.3,9.5
			C294.4,499.7,305.7,513.8,323.5,519.9z"/>
		<path class="st7" d="M335.3,518c-17.8-6.1-29.1-20.2-25.2-31.5c1.6-4.8,5.7-8.3,11.3-10.3c-11.2,0-20.3,4.5-23,12.3
			c-3.9,11.3,7.4,25.5,25.2,31.5c10.3,3.5,20.5,3.6,28,0.8C346.4,520.8,340.8,519.9,335.3,518z"/>
		<path class="st8" d="M341.9,502.7c4.5,3.9,10,5.1,12.2,2.6c2.2-2.5,0.3-7.8-4.2-11.7c-4.5-3.9-10-5.1-12.2-2.6
			C335.5,493.5,337.4,498.7,341.9,502.7z"/>
	</g>
	<path class="st3" d="M296.1,956.2c25.2-25.5,71.9-40.1,76.2-40.8c8.9-3.5,18.3-6.5,27.8-8.5c0,0-45.5-15.1-92.8,15.5
		c-45.9-17.1-92.5-50.8-90.5-114.2c2.3-70.1,36.4-129.6,59.7-162.2c-1-0.4-1.9-0.7-2.9-1.1c-2.5-0.9-4.9-1.8-7.3-2.8
		c-1.1-0.4-2.3-0.9-3.4-1.3c-3-1.2-6-2.4-9-3.6c-0.9-0.4-1.8-0.8-2.8-1.2c-2.6-1.1-5.1-2.2-7.7-3.3c-0.7-0.3-1.4-0.6-2-0.9
		c-3-1.4-6-2.7-8.9-4.1c-0.7-0.3-1.5-0.7-2.2-1c-3-1.5-6-2.9-8.9-4.4C192.1,663,148.2,740.4,155,829.7
		c2.4,31.9,18.5,76.4,81.4,106.9C254.8,945.5,275.1,952,296.1,956.2z"/>
	<path class="st3" d="M167.8,686.5c7.6-17.2,16-32.7,24.2-46.2c-27.1,3.5-62.8,11.7-74.9,28.3c-2.1,2.9-1.6,4.1-1.4,4.4
		C118.6,678.5,138,684.1,167.8,686.5z"/>
	<path class="st3" d="M204.4,934.4c-22.9-15.6-40.1-34.9-50.9-56.9c-28.3,6.8-60.1,18-70.8,33.8c-2.4,3.6-1.5,5.5-0.4,6.9
		c5.6,7.6,29.6,16,70.4,17.7C169.6,936.6,187.1,936.1,204.4,934.4z"/>
	<path class="st5" d="M309.7,446.3c7.2-4.8,15.8-7.2,24.5-7.9c8.8-0.6,17.9,0.7,26.2,4.2c8.3,3.5,15.8,9.2,21.3,16.1
		c5.5,7,9.3,15,10.8,23.4c-5.9-6.3-11.4-12.1-17.4-17c-6-4.9-12.4-8.8-19.2-11.7c-6.9-2.9-14.2-4.8-21.9-5.8
		C326.2,446.6,318.2,446.2,309.7,446.3z"/>
	<path class="st5" d="M256.2,582c5.6,3.7,11,6.8,16.6,9.6c5.5,2.8,11.1,5.3,16.8,7.7c2.9,1.1,5.7,2.3,8.7,3.3c2.9,1.1,5.9,2,8.9,3.1
		c3,1.1,6,1.9,9.1,3c3.1,1,6.2,1.9,9.3,3.3c-3.3,0.7-6.6,1-9.9,1.3c-3.3,0-6.7,0.1-10-0.4c-3.3-0.4-6.6-0.9-9.9-1.8
		c-3.3-0.7-6.4-1.9-9.6-3.1c-6.2-2.6-12.2-5.9-17.4-10.2C263.5,593.4,258.8,588.3,256.2,582z"/>
	<g>
		<path class="st5" d="M115.8,673.1c-0.2-0.4-0.8-1.5,1.4-4.4c12.1-16.6,47.8-24.8,74.9-28.3c-8.2,13.5-16.6,29-24.2,46.2
			C138,684.1,118.6,678.5,115.8,673.1z M152.8,935.9c-40.9-1.7-64.8-10.1-70.4-17.7c-1.1-1.5-2.1-3.3,0.4-6.9
			c10.7-15.8,42.5-27,70.8-33.8c10.7,22,27.9,41.3,50.9,56.9C187.1,936.1,169.6,936.6,152.8,935.9z M531.8,895.2
			c20.3,4.9,40.5,7.7,60.2,8.3c10.3,0.2,20.4-0.1,30-1.1c9.5-1,19.1-2.6,29.5-5.1l7-1.9c0.1,0,0.2-0.1,0.3-0.1l6.2-2.1
			c1.4-0.4,2.5-1,3.6-1.4l2.9-1.3c1.7-0.7,3.2-1.5,4.7-2.4c0.5-0.3,1-0.6,1.6-0.9c8-4.6,15.3-10.5,21.4-17.5
			c6.3-7.1,11.5-15.1,15.3-23.8c3.9-8.8,6.8-18.1,8.4-27.7c3.4-18.5,2.4-39-2.9-59.1c-2.2-8.8-5.8-18.1-10.9-28.5
			c-4.4-8.8-10-17.6-16.8-26c-4.3-5.5-9.2-10.8-14.5-15.9c6.2,4,12,8.4,17.3,13.2c8.6,7.8,15.8,15.9,21.4,24.2
			c6.5,9.3,11.7,19,15.6,28.9c4,10.2,6.9,21,8.6,32.1c1.6,10.8,1.9,22.1,0.8,33.6c-1.2,11.8-3.8,23-7.8,33.3
			c-4.2,11-10.1,21.1-17.4,30.1c-7.6,9.2-16.5,17-26.6,23.2l-1.1,0.7c-2.2,1.3-4.3,2.6-6.6,3.6l-4.2,2c-1.2,0.5-2.5,1.2-3.8,1.6
			l-8.5,3l-8,2.2c-10.2,2.6-21.3,4.5-32.9,5.6c-11.2,1-22.3,1.2-33.2,0.6c-21.1-1.1-42.8-5.1-64.5-11.8c-6.3-2-12.2-4-17.6-6
			c3.6-5.3,6.8-11,9.6-16.9C523.1,893,527.5,894.2,531.8,895.2z M519,838c-4.7,41.2-23.6,72.7-52.8,93.8
			c-16,11.6-18.4,15.1-56.3,37.7c-53.7,28.3-108.2,41.5-122.8,32.5c-1.6-1-3.2-2.3-2.3-6.6c6.3-29.3,65.5-67.6,87.8-79.8
			c3-1.6-49.2,13.2-76.5,40.7c-20.9-4.1-41.3-10.7-59.7-19.6c-62.9-30.4-78.9-74.9-81.4-106.9c-6.8-89.3,37.2-166.7,66.4-207.5
			c26.4,13.5,57.3,25.6,91.3,35.7c50.4,14.9,99.4,22.5,140.5,22.5c9.9,0,19.4-0.5,28.3-1.3C510.1,730.5,524.5,788.6,519,838z
			 M836.9,374.8c-4.8,27.9-25.6,66.9-98,94c-50.9,19.1-107.1,23.7-137.9,20c-2.2-0.3-4.3,0.5-5.8,2c-1.5,1.5-2.3,3.7-2,5.9
			c0.2,1.2,14.8,125-74,159.8c-42.9,16.8-120.4,12.1-202.4-12.1c-82.3-24.3-147-62.1-168.9-98.6c-21.3-35.4-26.1-73.4-13.9-109.9
			c10.1-30.2,31.5-58.1,58.7-76.6c2.5-1.7,3.7-4.9,2.8-7.8c-0.9-2.9-3.5-5-6.6-5.1c-0.2,0-24.5-0.7-54.7-14.7
			c-40.7-18.9-71.4-51.5-91.2-97c-18.4-42.3-18.1-83.1,1-118c24.6-45,79.3-78.2,146.5-89c6.7-1.1,13.2-1.6,19.8-1.6
			c35.9,0,69.3,16.1,95.6,46.4c42.8,49.4,57,124.7,36,191.9c-0.7,2.2-0.2,4.6,1.2,6.5c1.4,1.8,3.6,2.8,6,2.7
			c1.1-0.1,109.9-6.1,163.4,56.3c1.8,2.1,4.7,3,7.4,2.2c2.7-0.8,4.6-3.1,5-5.8c0-0.3,4.8-35.4,24.2-73.1
			c25.7-49.8,63.6-80.5,112.7-91.1c52.9-11.5,91.3,12.2,114.2,34.1C820.6,238.9,846.9,315.8,836.9,374.8z M785.5,185.7
			c-36.3-34.8-80.2-47.8-126.9-37.7c-52.8,11.4-95.1,45.6-122.4,98.9c-13,25.3-19.7,49.1-22.9,63.5c-24.1-22.7-58.4-38.5-100.1-46.2
			c-23.5-4.3-43.8-5-55.3-5c18.3-69.3,2.4-145.2-41.5-195.9C281.9,23.6,236.4,6,188.1,13.8C116.7,25.3,58.1,61.2,31.5,110
			C10.2,148.9,9.7,194,30,240.4c26.5,60.7,68,90.1,98.2,104.1c16.7,7.7,31.7,11.7,42.5,13.8c-23,19.5-40.9,45.4-50.1,73.1
			c-13.6,40.5-8.3,82.6,15.1,121.6c13,21.7,38.5,43.2,72.9,62.3c-2.6,3.6-5.2,7.5-8,11.6c-26,2.5-76,10.4-93.4,34.5
			c-5.5,7.5-4.3,13.6-2.4,17.4c6.3,12.2,32.9,17.5,58,19.8c-15.1,38-25.6,83.1-21.8,132.2c0.9,12.2,3.5,24,7.7,35.2
			c-28.7,7.1-63.1,19.2-76.1,38.5c-4.8,7.2-4.9,14.7,0,21.2c11.1,15.1,49,22.9,93.9,22.9c17.7,0,36.5-1.3,55.2-3.8
			c2.9,1.5,5.8,3,8.7,4.5c17.2,8.3,35.9,14.6,55.2,19c-6.3,8.1-11,16.4-12.7,24.5c-1.8,8.5,1,15.5,7.9,19.7c5,3.1,12.2,4.5,21.1,4.5
			c29.8,0,77.3-17.9,122.3-41.1c31.2-16.1,64.1-42.9,70.2-49.1c3.2-3.3,6.2-6.7,9-10.3c6.3,2.4,13.1,4.8,20.6,7.2
			c22.5,6.9,44.9,11,66.8,12.2c4.3,0.3,8.7,0.4,13.1,0.4c7.1,0,14.3-0.3,21.5-1c12.2-1.1,23.8-3.1,34.5-5.9l8.3-2.3
			c0.1,0,0.2-0.1,0.3-0.1l8.6-3c1.8-0.6,3.5-1.4,4.8-2l4.1-1.9c2.8-1.2,5.2-2.7,7.6-4.1l1.1-0.7c11-6.7,20.8-15.2,29.1-25.3
			c7.9-9.8,14.3-20.8,18.8-32.7c4.2-11,7-23,8.4-35.7c1.2-12.2,0.9-24.3-0.9-35.9c-1.8-11.8-4.9-23.2-9.2-34.1
			c-4.1-10.5-9.7-20.9-16.6-30.7c-6-8.9-13.7-17.6-22.9-25.9c-15.9-14.5-36.1-25.7-58.4-32.3c-2.3-0.7-4.7,0.4-5.6,2.6
			c-1,2.2-0.2,4.7,1.9,5.9c19,11.6,34.4,24.8,45.8,39.3c6.3,7.9,11.6,16.1,15.7,24.4c4.9,9.9,8.1,18.4,10.2,26.7
			c4.9,18.8,5.9,37.9,2.7,55.2c-1.5,8.8-4.1,17.4-7.7,25.5c-3.4,7.8-8,15-13.7,21.4c-5.5,6.3-11.9,11.5-18.9,15.5
			c-0.6,0.3-1.1,0.6-1.7,1c-1.2,0.7-2.4,1.4-3.6,1.8c-0.1,0-0.1,0.1-0.2,0.1l-3.1,1.4c-0.9,0.4-1.6,0.7-2.3,0.9
			c-0.1,0-0.2,0-0.2,0.1l-6.1,2.1l-6.7,1.8c-9.9,2.4-19,4-28.1,4.9c-9.2,0.9-18.9,1.3-28.8,1c-19-0.6-38.6-3.3-58.2-8.1
			c-3.8-0.9-7.7-1.9-11.7-3.1c5.3-13.2,8.9-27.8,10.7-43.4c5.7-50.6-8.3-109.7-36.6-162.6c10.3-1.8,19.7-4.3,27.9-7.5
			c41.2-16.1,68.5-51.6,79.2-102.7c5.6-26.7,5.2-50.9,4.5-63.3c34.2,2.4,86.9-3.2,135.9-21.6c78.7-29.5,101.6-73.2,107-104.8
			C861.7,312.9,834.2,232.4,785.5,185.7z"/>
		<path class="st5" d="M422.6,760.4C397,777.5,311,800,295.6,787.3c-1-0.8-3.2-2.6-0.2-9.7c18-42.4,78.4-65.2,79-65.4
			c3.2-1.2-20.2-6.2-51.1,14.2c-16.2,10.7-31.1,27-39.3,46.4c-5.7,13.5-0.2,20.9,3.7,24.1c5.5,4.6,14.8,6.5,26.1,6.5
			c14.2,0,31.5-3.5,48.8-7.3C408.4,785.9,425.4,758.5,422.6,760.4z"/>
	</g>
	<path class="st3" d="M330.2,761.8c2.9-19.4,44.2-49.6,44.2-49.6c-0.6,0.2-61.1,23.1-79,65.4c-3,7.1-0.8,8.9,0.2,9.7
		c8.5,7,38.6,3.3,68.2-4.4C346.9,780.9,328.2,775.1,330.2,761.8z"/>
	<g>
		<g>
			<path class="st2" d="M370.2,529.1c13.9-3.3,28-5.4,42.2-6.6c14.2-1.3,28.5-1.7,42.7-1.1c3.6,0.1,7.1,0.4,10.7,0.7
				c3.6,0.3,7.1,0.6,10.6,1.1c7.1,0.8,14.1,1.9,21.1,3.4c7,1.4,13.9,3.3,20.7,5.4c6.8,2.2,13.4,4.8,19.9,7.7
				c-6.6-2.7-13.3-5.1-20.1-7.1c-6.8-2-13.7-3.8-20.7-5.1l-2.6-0.5l-2.6-0.4c-1.8-0.3-3.5-0.6-5.3-0.9c-3.5-0.5-7-1-10.6-1.4
				c-3.5-0.4-7.1-0.7-10.6-1c-3.5-0.2-7.1-0.5-10.6-0.6c-14.2-0.7-28.4-0.3-42.6,0.8c-7.1,0.5-14.2,1.3-21.2,2.2
				C384.2,526.6,377.1,527.7,370.2,529.1z"/>
		</g>
		<g>
			<path class="st2" d="M370.8,549.1c13-1.2,26-0.8,39,0.6c6.5,0.7,12.9,1.7,19.3,2.9c6.4,1.3,12.7,2.7,19,4.6
				c12.5,3.7,24.7,8.4,36.2,14.6c11.6,6,22.3,13.5,32.1,22c-5.1-4-10.3-8-15.8-11.4c-2.7-1.8-5.5-3.4-8.3-5.1
				c-1.4-0.8-2.8-1.6-4.3-2.4l-2.1-1.2l-2.2-1.1c-5.8-3-11.7-5.6-17.7-8c-6-2.4-12.2-4.4-18.4-6.2c-12.4-3.7-25.2-6.1-38.1-7.7
				c-6.4-0.8-12.9-1.3-19.4-1.6C383.8,548.8,377.3,548.7,370.8,549.1z"/>
		</g>
	</g>
	<g>
		<g>
			<path class="st2" d="M283.6,496.8c-4.5-5.5-9.3-10.8-14.2-16c-4.9-5.2-9.9-10.2-15.1-15.1c-10.3-9.8-21.1-19.1-32.6-27.5
				c-2.8-2.2-5.7-4.2-8.6-6.2c-2.9-2-5.9-4-8.9-5.9c-3-1.9-6-3.7-9.1-5.6c-1.5-0.9-3.1-1.7-4.6-2.6l-2.3-1.3l-2.4-1.2
				c-6.2-3.4-12.7-6.4-19.3-9.1c-6.5-2.8-13.3-5.1-20.1-7.2c6.9,1.9,13.7,4,20.3,6.6c6.6,2.6,13.2,5.5,19.5,8.8
				c6.4,3.2,12.5,6.8,18.6,10.6c3,1.9,6,3.9,8.9,5.9c2.9,2.1,5.9,4.1,8.7,6.2c11.4,8.5,22.3,17.8,32.5,27.8
				C265.3,475,275,485.6,283.6,496.8z"/>
		</g>
		<g>
			<path class="st2" d="M270.6,512c-4.8-4.4-9.9-8.5-15.1-12.3c-5.2-3.9-10.6-7.6-16.1-11c-11-6.9-22.5-13-34.4-18
				c-6-2.5-12-4.8-18.2-6.8c-6.2-1.9-12.4-3.7-18.8-5l-2.4-0.5l-2.4-0.4c-1.6-0.3-3.2-0.6-4.8-0.9c-3.2-0.4-6.4-1-9.7-1.2
				c-6.4-0.8-12.9-1-19.4-1.1c13-0.4,26.1,0.5,38.8,3.2c12.8,2.5,25.3,6.5,37.3,11.6c6,2.5,11.9,5.4,17.6,8.5
				c5.7,3.1,11.4,6.3,16.8,9.9C250.9,495,261.3,502.9,270.6,512z"/>
		</g>
	</g>
	<g>
		<g>
			<path class="st9" d="M504.3,634.6c-2.4,0-4.7-1.5-5.5-3.9c-1.1-3,0.5-6.4,3.5-7.5c41.5-15.1,53.5-52.2,56.3-80.7
				c0.3-3.2,3.2-5.6,6.4-5.3c3.2,0.3,5.6,3.2,5.3,6.4c-3.1,31.9-16.7,73.5-64,90.6C505.6,634.5,504.9,634.6,504.3,634.6z"/>
			<path class="st9" d="M564.9,526c-3.1,0-5.7-2.5-5.9-5.6c-0.4-8.9-1.4-14.7-1.4-14.7c-0.6-3.2,1.6-6.2,4.8-6.8
				c3.2-0.6,6.2,1.6,6.8,4.8c0,0.3,1.1,6.5,1.6,16.3c0.1,3.2-2.4,6-5.6,6.1C565.1,526,565,526,564.9,526z"/>
		</g>
		<g>
			<path class="st9" d="M677.4,464.9c-0.1,0-0.2,0-0.3,0c-3.2-0.2-5.7-3.1-5.4-6.3c0.2-3.2,3.1-5.6,6.3-5.4c0,0,0,0,0,0
				c5.7,0,74.5-11.3,106.5-49.2c9.2-10.9,15.5-24.6,18.6-40.7c0.6-3.2,3.7-5.3,6.9-4.6c3.2,0.6,5.3,3.7,4.6,6.9
				c-3.5,18.1-10.7,33.5-21.2,46C758,453.6,684.8,464.9,677.4,464.9z"/>
			<path class="st9" d="M811.2,337.6c-3.1,0-5.7-2.5-5.9-5.6c-0.6-13.4-2.7-22.7-2.7-22.8c-0.7-3.2,1.2-6.3,4.4-7.1
				c3.2-0.8,6.3,1.2,7.1,4.3c0.1,0.4,2.5,10.4,3.1,25c0.1,3.2-2.4,6-5.6,6.1C811.3,337.6,811.2,337.6,811.2,337.6z"/>
		</g>
		<path class="st9" d="M471.8,892c-1.1,0-2.1-0.3-3.1-0.9c-2.8-1.7-3.6-5.3-1.9-8.1c27.3-44.2,20-94.9,9.1-129.7
			c-1-3.1,0.7-6.4,3.8-7.4c3.1-1,6.4,0.8,7.4,3.8c11.7,37.1,19.3,91.5-10.3,139.4C475.7,891,473.8,892,471.8,892z"/>
		<path class="st9" d="M474.3,737.6c-2.3,0-4.5-1.4-5.4-3.6c-3.9-9.4-6.9-14.9-6.9-15c-1.6-2.8-0.5-6.4,2.3-8c2.8-1.6,6.4-0.5,8,2.3
			c0.1,0.2,3.4,6.2,7.5,16.2c1.2,3-0.2,6.4-3.2,7.7C475.9,737.5,475.1,737.6,474.3,737.6z"/>
		<path class="st9" d="M381.8,719.2c-10.4,4.9-17,12.9-14.7,17.9c2.3,5,12.7,5.1,23.1,0.3c10.4-4.9,17-12.9,14.7-17.9
			C402.6,714.5,392.3,714.4,381.8,719.2z"/>
		<g>
			<path class="st9" d="M510.2,372.7c-1.9,0-3.8-0.9-4.9-2.6c-25.7-38.7-63.3-54.5-90.4-60.8c-3.2-0.7-5.1-3.9-4.4-7.1
				c0.7-3.2,3.9-5.1,7.1-4.4c29.1,6.9,69.7,23.9,97.5,65.8c1.8,2.7,1.1,6.4-1.6,8.1C512.4,372.3,511.3,372.7,510.2,372.7z"/>
			<path class="st9" d="M392.7,305.3c-0.2,0-0.4,0-0.6,0c-13-1.4-21.6-0.8-21.7-0.8c-3.3,0.2-6-2.2-6.3-5.5c-0.2-3.2,2.2-6,5.5-6.3
				c0.4,0,9.6-0.6,23.7,0.8c3.2,0.3,5.6,3.2,5.2,6.5C398.2,303.1,395.7,305.3,392.7,305.3z"/>
		</g>
	</g>
	<g>
		<path class="st10" d="M726.5,850.9c-0.3,0-0.7-0.1-1-0.2c-1.2-0.6-1.7-2-1.1-3.1c1.8-3.8,3.5-7.8,4.9-11.9c0.4-1.2,1.8-1.9,3-1.4
			c1.2,0.4,1.9,1.8,1.4,3c-1.5,4.3-3.2,8.4-5.1,12.4C728.2,850.4,727.4,850.9,726.5,850.9z"/>
		<path class="st10" d="M600.9,917.6c-21.5,0-36.9-3-37.3-3.1c-1.3-0.3-2.1-1.5-1.8-2.8c0.3-1.3,1.5-2.1,2.8-1.8
			c1.1,0.2,109.4,21.6,154.3-52c0.7-1.1,2.1-1.5,3.2-0.8c1.1,0.7,1.5,2.1,0.8,3.2C693.4,908.6,637.9,917.6,600.9,917.6z"/>
	</g>
	<path class="st11" d="M730.1,326.9c0.3,1.3,0.6,2.7,0.9,4.2"/>
	<g>
		<g>
			<path class="st10" d="M631.6,415c-1.9,0-3.5-1.6-3.5-3.5c0-1.9,1.6-3.5,3.5-3.5c37.6,0,82.7-13.7,93-43.8c1.3-3.7,2.2-7.4,2.8-11
				c0.3-1.9,2.2-3.2,4.1-2.9c1.9,0.3,3.2,2.2,2.9,4.1c-0.7,4-1.7,8-3.1,12C719.8,399.9,673,415,631.6,415z"/>
			<path class="st10" d="M730.1,330.4c-1.6,0-3-1.1-3.4-2.6c-2.2-8.4-5.5-13-5.5-13c-1.2-1.6-0.8-3.8,0.8-4.9
				c1.6-1.1,3.8-0.8,4.9,0.8c0.2,0.2,4.1,5.7,6.6,15.4c0.5,1.9-0.6,3.8-2.5,4.3C730.7,330.4,730.4,330.4,730.1,330.4z"/>
		</g>
		<g>
			<path class="st10" d="M270.9,253.6c-0.3,0-0.7-0.1-1-0.2c-1.9-0.6-2.9-2.5-2.3-4.4c11-35.9,11.1-83.1-14.7-101.8
				c-3.1-2.3-6.4-4.3-9.6-5.9c-1.7-0.9-2.4-3-1.5-4.7c0.9-1.7,3-2.4,4.7-1.5c3.6,1.8,7.1,4,10.6,6.5c28.7,20.8,29.4,70,17.3,109.6
				C273.8,252.7,272.5,253.6,270.9,253.6z"/>
			<path class="st10" d="M203.7,136.3c-1.5,0-2.8-0.9-3.3-2.4c-0.6-1.8,0.3-3.8,2.2-4.5c0.3-0.1,6.7-2.3,16.7-1.8
				c1.9,0.1,3.4,1.7,3.4,3.7c-0.1,1.9-1.7,3.4-3.7,3.4c-8.5-0.4-14,1.4-14.1,1.5C204.4,136.3,204,136.3,203.7,136.3z"/>
		</g>
	</g>
	<g>
		<g>
			<path class="st2" d="M460.1,444.6c-15.7-7.4-34.4-0.7-41.8,15c-7.4,15.7-0.7,34.4,15,41.8c15.7,7.4,34.4,0.7,41.8-15
				C482.5,470.7,475.8,452,460.1,444.6z"/>
			<path class="st12" d="M450.4,469.2c3.6,5.5,9.5,8.1,13.1,5.7c3.6-2.4,3.6-8.8,0-14.3c-3.6-5.5-9.5-8.1-13.1-5.7
				C446.8,457.2,446.8,463.6,450.4,469.2z"/>
		</g>
		<g>
			<path class="st2" d="M281.5,389.9c-15.7-7.4-34.4-0.7-41.8,15c-7.4,15.7-0.7,34.4,15,41.8c15.7,7.4,34.4,0.7,41.8-15
				C303.9,416,297.2,397.3,281.5,389.9z"/>
			<path class="st12" d="M271.7,414.4c3.6,5.5,9.5,8.1,13.1,5.7c3.6-2.4,3.6-8.8,0-14.3c-3.6-5.5-9.5-8.1-13.1-5.7
				S268.1,408.9,271.7,414.4z"/>
		</g>
	</g>
</g>
</svg>
