<?xml version="1.0" encoding="utf-8"?>
<!-- Generator: Adobe Illustrator 24.1.3, SVG Export Plug-In . SVG Version: 6.00 Build 0)  -->
<svg version="1.1" id="Layer_1" xmlns="http://www.w3.org/2000/svg" xmlns:xlink="http://www.w3.org/1999/xlink" x="0px" y="0px"
	 viewBox="0 0 3840 2160" style="enable-background:new 0 0 3840 2160;" xml:space="preserve">
<style type="text/css">
	.st0{fill:#E5B693;}
	.st1{fill:#EAB998;}
	.st2{fill:#EECAA7;}
	.st3{fill:#FFFFFF;}
	.st4{fill:#121111;}
	.st5{opacity:0.1;fill:#FFFFFF;}
	.st6{fill:#F1D7A8;}
	.st7{fill:#D1D3D4;}
	.st8{fill:#A7A9AC;}
	.st9{fill:#CCCCCC;}
	.st10{fill:#E6C389;}
	.st11{opacity:0.17;fill:#231F20;}
	.st12{fill:#A87B52;}
	.st13{fill:#67594D;}
	.st14{opacity:0.35;fill:#7D5232;}
	.st15{opacity:0.2;fill:#939598;}
	.st16{opacity:0.2;fill:#6D6E71;}
	.st17{fill:#FCDBCA;}
	.st18{fill:#E1BB9A;}
</style>
<g>
	<path class="st0" d="M1972.4,1056.6c0,0-75.3-102-113.4-124.5C1890.5,940.7,1951.7,967.3,1972.4,1056.6z"/>
	<path class="st1" d="M1752,1110.3c0,0-38.3,77.4-133.8,43.5c4,31-87.9,65.9-141.4,20.8c-53.5-45.2-103.7-97.1-103.7-97.1
		s261.8-166.1,371.1-4.8C1754.1,1104.3,1752,1110.3,1752,1110.3z"/>
	<path class="st2" d="M980.3,548.5l-213,307c100.9,64.1,183.4,116.2,232.2,146.8c249.6,156.3,385.5,64.2,465,48.2
		c161.8-78.3,180.5-28.1,226.3-12.2c62.9,114.7,186.3,147,242.5,150.8c95.6-26.8,39-132.4,39-132.4c24,12.6,25.1-14.3,25.1-14.3
		s2.7-117.3,11.2-218.5c8.5-101.2-52.7-92.4-157.5-183.1c-102.4-94.5-198.2-170.5-279.2-118.9c-122.3,58.1-299.4,120.6-433.9,130.9
		C1115,638.1,1058.1,600.4,980.3,548.5z M1674.8,821.2c15.8,15.6,71.7-18.9,71.7-18.9s11.2,0.3,83.1,38.1
		c1.7,32.9,25.8,85.9,30.4,93.5c-1.9-2.1-9.3-8.3-38.6-25.5C1788.6,889.8,1699.4,845.6,1674.8,821.2z"/>
	
		<rect x="686.5" y="689.9" transform="matrix(0.537 -0.8436 0.8436 0.537 -194.641 1188.8502)" class="st3" width="598.5" height="163.8"/>
	<polygon class="st4" points="-78.3,-213.8 1168.9,484 795.6,1070.5 -78.3,613.6 	"/>
	<polygon class="st5" points="-78.3,-213.8 1168.8,484.2 1066.3,645.2 -78.3,18.8 	"/>
	<path class="st3" d="M697.7,932.5c-13.2,20.7-7.1,48.2,13.6,61.3c20.7,13.2,48.2,7.1,61.3-13.6c13.2-20.7,7.1-48.2-13.6-61.3
		C738.4,905.7,710.9,911.8,697.7,932.5z"/>
	<path class="st3" d="M566,865.5c-13.2,20.7-7.1,48.2,13.6,61.3c20.7,13.2,48.2,7.1,61.3-13.6c13.2-20.7,7.1-48.2-13.6-61.3
		C606.6,838.7,579.1,844.8,566,865.5z"/>
	<g>
		<g>
			<path class="st6" d="M1945.5,1648.6c11.3-126.5,19-374.4,19-659.6c0-413.6-16.1-748.9-36-748.9c-19.9,0-36,335.3-36,748.9
				c0,284.9,7.7,532.7,18.9,659.3C1922.7,1648.1,1934.1,1648.3,1945.5,1648.6z"/>
			<path class="st7" d="M1945.5,1648.6c7.4-83.3,13.3-219.2,16.4-383.7h-67c3.1,164.3,9,300.1,16.4,383.4
				C1922.7,1648.1,1934.1,1648.3,1945.5,1648.6z"/>
			<g>
				<path class="st8" d="M1961.6,1282.4h-66.3c0,1.8,0.1,3.5,0.1,5.3h66.1C1961.5,1285.9,1961.6,1284.2,1961.6,1282.4z"/>
				<path class="st8" d="M1895.8,1306.3h65.3c0-1.7,0.1-3.5,0.1-5.3h-65.5C1895.7,1302.8,1895.7,1304.6,1895.8,1306.3z"/>
			</g>
			<g>
				<path class="st9" d="M1961.2,1302.5c0,0.4,0,0.9,0,1.3C1961.2,1303.3,1961.2,1302.9,1961.2,1302.5z"/>
				<path class="st9" d="M1960.7,1324.9c0,0.3,0,0.6,0,0.8C1960.6,1325.5,1960.6,1325.2,1960.7,1324.9z"/>
				<path class="st9" d="M1961.5,1286.8c0,0.5,0,1.1,0,1.6C1961.5,1287.9,1961.5,1287.3,1961.5,1286.8z"/>
				<path class="st9" d="M1961,1309.7c0,0.4,0,0.8,0,1.2C1961,1310.5,1961,1310.1,1961,1309.7z"/>
				<path class="st9" d="M1961.7,1279.5c0,0.6,0,1.2,0,1.8C1961.6,1280.7,1961.6,1280.1,1961.7,1279.5z"/>
				<path class="st9" d="M1960.5,1331.9c0,0.4,0,0.8,0,1.2C1960.5,1332.7,1960.5,1332.3,1960.5,1331.9z"/>
				<path class="st9" d="M1945.5,1648.6L1945.5,1648.6c-2.5-0.1-4.9-0.1-7.4-0.2C1940.6,1648.5,1943,1648.6,1945.5,1648.6z"/>
				<path class="st9" d="M1936.1,1648.4c-2.4-0.1-4.8-0.1-7.2-0.1C1931.3,1648.3,1933.7,1648.3,1936.1,1648.4z"/>
				<path class="st9" d="M1961.9,1264.9L1961.9,1264.9c0,0.2,0,0.3,0,0.5C1961.9,1265.2,1961.9,1265.1,1961.9,1264.9z"/>
				<path class="st9" d="M1961.8,1272.6c0,0.1,0,0.1,0,0.2C1961.8,1272.7,1961.8,1272.6,1961.8,1272.6z"/>
				<path class="st9" d="M1959.9,1353.9c0,0.3,0,0.5,0,0.8C1959.9,1354.4,1959.9,1354.1,1959.9,1353.9z"/>
				<path class="st9" d="M1958.7,1396.6c0-0.1,0-0.2,0-0.3C1958.7,1396.4,1958.7,1396.5,1958.7,1396.6z"/>
				<path class="st9" d="M1959.3,1375.2c0,0.2,0,0.5,0,0.7C1959.3,1375.7,1959.3,1375.5,1959.3,1375.2z"/>
				<path class="st9" d="M1960.1,1347c0,0.1,0,0.2,0,0.4C1960.1,1347.2,1960.1,1347.1,1960.1,1347z"/>
				<path class="st10" d="M1961.9,1265.4c0,2.4-0.1,4.8-0.1,7.1C1961.8,1270.2,1961.9,1267.8,1961.9,1265.4z"/>
				<path class="st10" d="M1964.5,989c0-410.8-15.9-744.3-35.6-748.8c-0.1,0-0.3,0-0.4,0c14.5,96.6,14.1,414.9,14.1,748.8
					c0,97.4-0.9,190.5-2.5,275.9h22C1963.6,1179.5,1964.5,1086.4,1964.5,989z"/>
				<path class="st10" d="M1945.5,1648.6c5.3-59.8,9.9-146.8,13.2-252.1C1955.4,1501.8,1950.8,1588.8,1945.5,1648.6
					C1945.5,1648.6,1945.5,1648.6,1945.5,1648.6z"/>
				<path class="st10" d="M1928.9,1648.3c-0.6,0-1.1,0-1.7,0C1927.7,1648.2,1928.3,1648.2,1928.9,1648.3z"/>
				<path class="st10" d="M1959.3,1375.9c-0.2,6.9-0.4,13.6-0.6,20.4C1958.9,1389.6,1959.1,1382.8,1959.3,1375.9z"/>
				<path class="st10" d="M1938.1,1648.4c-0.7,0-1.4,0-2.1,0C1936.7,1648.4,1937.4,1648.4,1938.1,1648.4z"/>
				<path class="st10" d="M1961.5,1288.4c-0.1,4.7-0.2,9.4-0.3,14C1961.3,1297.8,1961.4,1293.1,1961.5,1288.4z"/>
				<path class="st10" d="M1960.1,1347.3c-0.1,2.2-0.1,4.4-0.2,6.5C1960,1351.7,1960,1349.5,1960.1,1347.3z"/>
				<path class="st10" d="M1961.8,1272.8c0,2.3-0.1,4.5-0.1,6.8C1961.7,1277.3,1961.8,1275,1961.8,1272.8z"/>
				<path class="st10" d="M1961.1,1303.7c0,2-0.1,4-0.1,5.9C1961.1,1307.7,1961.1,1305.7,1961.1,1303.7z"/>
				<path class="st10" d="M1961,1310.9c-0.1,4.7-0.2,9.4-0.3,14.1C1960.8,1320.3,1960.9,1315.6,1961,1310.9z"/>
				<path class="st10" d="M1960.5,1333.1c-0.1,4.7-0.2,9.3-0.4,13.9C1960.2,1342.4,1960.3,1337.7,1960.5,1333.1z"/>
				<path class="st10" d="M1961.6,1281.3c0,1.8-0.1,3.7-0.1,5.5C1961.5,1285,1961.6,1283.1,1961.6,1281.3z"/>
				<path class="st10" d="M1960.6,1325.8c0,2-0.1,4.1-0.1,6.1C1960.5,1329.9,1960.6,1327.8,1960.6,1325.8z"/>
				<path class="st10" d="M1959.9,1354.7c-0.2,6.9-0.4,13.8-0.6,20.6C1959.5,1368.4,1959.7,1361.6,1959.9,1354.7z"/>
				<path class="st11" d="M1959.3,1375.9c0-0.2,0-0.5,0-0.7c0.2-6.8,0.4-13.6,0.6-20.6c0-0.3,0-0.5,0-0.8c0.1-2.2,0.1-4.3,0.2-6.5
					c0-0.1,0-0.2,0-0.4c0.1-4.6,0.2-9.2,0.4-13.9c0-0.4,0-0.8,0-1.2c0.1-2,0.1-4.1,0.1-6.1c0-0.3,0-0.6,0-0.8
					c0.1-4.7,0.2-9.3,0.3-14.1c0-0.4,0-0.8,0-1.2c0-2,0.1-3.9,0.1-5.9c0-0.4,0-0.9,0-1.3c0.1-4.7,0.2-9.3,0.3-14c0-0.5,0-1.1,0-1.6
					c0-1.8,0.1-3.7,0.1-5.5c0-0.6,0-1.2,0-1.8c0-2.3,0.1-4.5,0.1-6.8c0-0.1,0-0.1,0-0.2c0-2.4,0.1-4.8,0.1-7.1c0-0.2,0-0.3,0-0.5
					h-22c-3.1,164.3-9,300-16.4,383.3c1.2,0,2.4,0,3.6,0c0.6,0,1.1,0,1.7,0c2.4,0,4.8,0.1,7.2,0.1c0.7,0,1.4,0,2.1,0
					c2.5,0.1,4.9,0.1,7.4,0.2c5.3-59.8,9.9-146.8,13.2-252.1c0-0.1,0-0.2,0-0.3C1958.9,1389.6,1959.1,1382.8,1959.3,1375.9z"/>
			</g>
		</g>
		<g>
			<path class="st12" d="M1949.1,1648.6l-40.7-0.6c-8.6,3.9-15.9,10.9-21.2,19.4c-39.2,62.9,26.7,159.4,43.7,182.5
				c-5-14.6,14.9-37.2,31.6-62.8c27.1-41.7,21.3-105.8,3.6-126.7C1960.8,1655.1,1955.1,1651.2,1949.1,1648.6z"/>
			<g>
				<path class="st13" d="M1913.4,1649c-1.8,1.4-3.4,3-4.9,4.6c-1.5,1.6-3,3.4-4.3,5.1c-2.7,3.6-5.1,7.4-7.2,11.4
					c-4.2,8-7,16.5-8.7,25.3c-1.7,8.8-2.4,17.8-2.1,26.7c0.2,9,1.3,17.9,3.1,26.7c3.4,17.6,9.2,34.7,16.3,51.2
					c3.5,8.3,7.4,16.4,11.6,24.4c4.1,8,8.5,15.9,13,23.6c-4.8-7.6-9.3-15.4-13.6-23.3c-4.3-7.9-8.3-16-11.9-24.3
					c-3.7-8.2-6.9-16.7-9.8-25.2c-2.8-8.6-5.2-17.3-6.9-26.2c-1.7-8.9-2.8-17.9-3-26.9c-0.2-9,0.5-18.1,2.3-27
					c1.9-8.8,4.9-17.5,9.2-25.4c2.2-4,4.7-7.8,7.5-11.3C1906.7,1655,1909.8,1651.7,1913.4,1649z"/>
				<path class="st13" d="M1942.7,1649.2c2.9,3,5.4,6.4,7.7,9.9c2.3,3.5,4.3,7.2,6,11c3.5,7.6,6.1,15.6,7.8,23.8
					c1.7,8.2,2.5,16.6,2.6,24.9c0.1,8.4-0.5,16.7-1.8,25c-1.3,8.3-3.1,16.4-5.5,24.4c-2.3,8-5.1,15.9-8.3,23.6
					c-3.2,7.7-6.8,15.3-10.6,22.7c-3.9,7.4-8,14.6-12.4,21.7c4.2-7.2,8.2-14.5,11.8-22c3.7-7.4,7.1-15,10.2-22.7
					c6.1-15.4,11-31.4,13.4-47.9c1.3-8.2,1.9-16.5,1.9-24.8c0-8.3-0.9-16.6-2.4-24.7c-1.6-8.1-4-16.1-7.4-23.7
					c-1.7-3.8-3.6-7.5-5.7-11.1c-1.1-1.8-2.2-3.5-3.4-5.2C1945.4,1652.4,1944.1,1650.7,1942.7,1649.2z"/>
				<path class="st13" d="M1931.6,1649c2.4,3.3,4.3,6.9,5.9,10.6c1.6,3.7,3,7.5,4.2,11.4c2.3,7.8,3.9,15.8,5,23.8
					c1.1,8.1,1.5,16.2,1.6,24.3c0.1,8.1-0.3,16.3-0.9,24.4c-0.7,8.1-1.7,16.2-3,24.2c-1.3,8-2.8,16-4.6,23.9
					c-1.8,7.9-3.8,15.8-6,23.6c-2.2,7.8-4.6,15.6-7.2,23.2c2.3-7.8,4.5-15.6,6.5-23.4c2-7.8,3.9-15.7,5.6-23.6
					c3.3-15.8,5.9-31.9,7.2-48c1.4-16.1,1.5-32.4-0.4-48.4c-0.9-8-2.4-16-4.6-23.8c-1.1-3.9-2.4-7.7-3.9-11.5
					c-0.8-1.9-1.6-3.7-2.5-5.5C1933.8,1652.4,1932.8,1650.7,1931.6,1649z"/>
				<path class="st13" d="M1922.8,1650.9c-1.3,1.5-2.3,3.2-3.3,4.9c-1,1.7-1.9,3.5-2.8,5.3c-1.7,3.6-3.1,7.3-4.3,11.1
					c-2.5,7.6-4.1,15.3-5.2,23.2c-2.2,15.7-2.3,31.7-1,47.5c1.1,15.9,3.7,31.6,6.9,47.2c1.6,7.8,3.4,15.5,5.4,23.2
					c2,7.7,4.1,15.4,6.4,23c-2.6-7.5-4.9-15.2-7.1-22.8c-2.1-7.7-4.1-15.4-5.8-23.2c-3.5-15.6-6-31.4-7.2-47.3
					c-0.6-8-0.8-16-0.6-23.9c0.2-8,0.8-16,2-23.9c1.2-7.9,3-15.7,5.6-23.3c1.3-3.8,2.8-7.5,4.6-11
					C1918.2,1657.4,1920.2,1653.9,1922.8,1650.9z"/>
			</g>
			<path class="st14" d="M1909.5,1728.1c16.8-16.8,39.8-26.3,63.5-26.3c2.4,0,4.9,0.1,7.3,0.3c-1.9-18-7.1-33.4-14.2-41.7
				c-5.3-5.3-11-9.2-17-11.8l-40.7-0.6c-8.6,3.9-15.9,10.9-21.2,19.4c-18.7,30.1-13.5,67.8-1,101.5
				C1890.2,1753.6,1898.2,1739.4,1909.5,1728.1z"/>
		</g>
		<path class="st7" d="M1950.7,1647.3c0,1.2-1,2.2-2.2,2.2h-40.1c-1.2,0-2.2-1-2.2-2.2l0,0c0-1.2,1-2.2,2.2-2.2h40.1
			C1949.7,1645.1,1950.7,1646.1,1950.7,1647.3L1950.7,1647.3z"/>
		<path class="st11" d="M1948.5,1645.1h-20.3c1.2,0,2.2,1,2.2,2.2c0,1.2-1,2.2-2.2,2.2h20.3c1.2,0,2.2-1,2.2-2.2
			C1950.7,1646.1,1949.7,1645.1,1948.5,1645.1z"/>
	</g>
	<path class="st15" d="M1803.8,987.9l-78.7,29c0,0,3.4-22.2,4.7-26.6c8.8-6.9,94.3-82.4,94.3-82.4S1812,918.9,1803.8,987.9z"/>
	<path class="st16" d="M1725.1,1016.9h-57.9c0,0,2.2-18.1,6.3-26.2c9,0,56.3-0.4,56.3-0.4S1725.8,1012,1725.1,1016.9z"/>
	<path class="st2" d="M1978.1,1069.3c-3.1-7.8-5.7-12.7-5.7-12.7c0.3,0.2,0.7,0.3,1,0.5c-12.6-24.2-40.7-93.5-224.2-187.9
		c-20.6-11.4-41.1-23.3-56.2-33.7c-4.7-3.2-8.8-6.3-12.3-9.1c-28.5-11.4-80.3-25.7-159.6-24.2c-66-111.7-101.8-174.8-121.2-210.3
		c-80.7,27.9-165.6,50.3-239.9,58.8L954.2,973.8c17.3,10.9,32.5,20.4,45.4,28.5c249.6,156.3,385.5,64.2,465,48.2
		c161.8-78.3,180.5-28.1,226.3-12.2c62.9,114.7,188.9,162.1,242.5,150.8C2008.5,1167.9,1989.6,1098.1,1978.1,1069.3L1978.1,1069.3z"
		/>
	<path class="st17" d="M1859.8,1139.8l75.6-76.6c0,0,39.7,17.7,38.5,68.4c-3.1,23.8-32.3,39.7-39.7,42.7
		C1926.9,1177.2,1887.9,1189.2,1859.8,1139.8z"/>
	<path class="st18" d="M1514.3,802.2c0,0,79.3-21.6,175.8,23l-9.5,1.2l9,6.9C1689.6,833.2,1570.5,801.6,1514.3,802.2z"/>
</g>
<path class="st17" d="M1982.8,979.2l2.4,80.6c0,0,13,4.9,12.8-26.9c-0.2-32.4,1.2-55.5,1.2-55.5S1994.4,974.3,1982.8,979.2z"/>
</svg>
