<?xml version="1.0" encoding="utf-8"?>
<!-- Generator: Adobe Illustrator 24.2.0, SVG Export Plug-In . SVG Version: 6.00 Build 0)  -->
<svg version="1.1" id="Layer_1" xmlns="http://www.w3.org/2000/svg" xmlns:xlink="http://www.w3.org/1999/xlink" x="0px" y="0px"
	 viewBox="0 0 984 1024" style="enable-background:new 0 0 984 1024;" xml:space="preserve">
<style type="text/css">
	.st0{fill:#F8B13F;}
	.st1{fill:#DD780A;}
	.st2{fill:#E59623;}
	.st3{opacity:0.4;fill:#F8B13F;}
	.st4{fill:none;stroke:#FFCA7D;stroke-width:1.878;stroke-linecap:round;stroke-linejoin:round;stroke-miterlimit:10;}
	.st5{fill:#AF6800;}
	.st6{fill:#331C00;}
	.st7{fill:#FFFFFF;}
	.st8{fill:#BF2E3D;}
	.st9{fill:#E2596C;}
	.st10{fill:#F6B6B5;}
	.st11{opacity:0.4;fill:#F6B6B5;}
</style>
<g>
	<g>
		<path class="st0" d="M601.7,592.7c-11,1.1-21.9,1.6-32.4,1.6c-30.4,0-58.7-4.5-83.7-13.1c-11.4,19.2-32.8,42.3-71.8,52.6
			c-15.6,4.1-32.6,7.2-50.6,10.5c-59.8,10.8-127.6,23.1-156.5,80c-19.2,37.8-18.4,83.7,2.1,119.7c1,1.8,2.1,3.5,3.2,5.2
			c1,1.5,2,2.9,3,4.4c3.1-21.1,9.5-32.5,9.5-32.5c0,0.4-0.9,14.1-0.7,33.3l0,0c0.3,31.8,3.5,78.8,17.9,106.2
			c11.4,21.8,27.5,36.7,45.3,41.9c11.8,3.4,23.4,2.4,32.7-3c9.2-5.3,8.1-10.5,3.4-26.3c-3.2-10.7-7.2-24.1-6.3-40.7
			c1.3-22.7,8.9-45.9,17-70.5c5.7-17.4,11.7-35.4,15.6-54c8.6-41.2-18.1-66.9-19.3-68c0,0,40.5,22.7,30.5,70.4
			c-4,19.3-10.1,37.6-15.9,55.3c-4.4,13.4-8.7,26.4-11.8,39c0.9,0,1.8,0,2.7,0c2.3,0,4.7,0,7-0.1c0.8,0,1.6,0,2.4-0.1
			c1.5,0,3.1-0.1,4.6-0.1c0.4,0,0.9,0,1.3-0.1c0.5,0,1,0,1.5-0.1c1.4-0.1,2.8-0.1,4.2-0.2c0.5,0,0.9-0.1,1.4-0.1
			c0.6,0,1.1-0.1,1.7-0.1c1.3-0.1,2.7-0.2,4-0.3c0.3,0,0.7-0.1,1-0.1c0.7-0.1,1.5-0.1,2.2-0.2c1.3-0.1,2.6-0.2,3.9-0.3
			c0.2,0,0.5,0,0.7-0.1c0.8-0.1,1.7-0.2,2.5-0.2c1.3-0.1,2.6-0.3,3.9-0.4c1.1-0.1,2.2-0.2,3.3-0.4c1.3-0.1,2.6-0.3,3.9-0.5
			c1-0.1,2-0.2,2.9-0.4c0.1,0,0.2,0,0.3,0c1.3-0.2,2.6-0.4,3.9-0.6c1-0.2,2.1-0.3,3.1-0.5c1.5-0.2,3-0.5,4.4-0.7c0,0,0.1,0,0.1,0
			c1-0.2,1.9-0.3,2.9-0.5c2.2-0.4,4.3-0.8,6.5-1.2c1-0.2,2-0.4,3-0.6c1.4-0.3,2.7-0.5,4.1-0.8c0.2-0.1,0.5-0.1,0.7-0.2
			c0.8-0.2,1.7-0.4,2.5-0.6c1.2-0.3,2.5-0.6,3.7-0.8c0.7-0.2,1.4-0.3,2.1-0.5c0.4-0.1,0.7-0.2,1.1-0.3c1.2-0.3,2.5-0.6,3.7-0.9
			c1.1-0.3,2.1-0.6,3.2-0.8c1.2-0.3,2.5-0.7,3.7-1c1-0.3,2.1-0.6,3.1-0.9c0.6-0.2,1.1-0.3,1.6-0.5c-0.4-2.7-0.8-5.4-1.2-8
			c-6.8-48.6,9.4-71.3,9.4-71.3c-0.2,1.5-0.3,3-0.4,4.6c0,0.5-0.1,0.9-0.1,1.4c-0.1,1.2-0.2,2.4-0.2,3.6c0,0.5-0.1,1-0.1,1.5
			c-0.1,1.7-0.1,3.3-0.2,5.1c0,0.2,0,0.5,0,0.7c0,1.5-0.1,3.1-0.1,4.6c0,0.6,0,1.3,0,1.9c0,1.2,0,2.5,0,3.8c0,0.7,0,1.3,0,2
			c0,1.8,0.1,3.6,0.2,5.5c0,0.6,0.1,1.2,0.1,1.8c0.1,1.3,0.1,2.7,0.2,4c0,0.9,0.1,1.7,0.2,2.6c0.1,1.2,0.1,2.3,0.2,3.5
			c0.1,0.9,0.1,1.8,0.2,2.7c0.1,1.7,0.3,3.5,0.4,5.3c0.1,1,0.2,2,0.3,3c0.1,1.1,0.2,2.3,0.3,3.4c0.1,1,0.2,2.1,0.3,3.1
			c0.1,1.1,0.2,2.1,0.4,3.2c0.1,1,0.2,2.1,0.4,3.1c0.2,1.8,0.5,3.7,0.7,5.5c0,0,0,0.1,0,0.1c0,0,0,0,0,0c1.3,9.9,3,19.8,4.9,29.5
			c8,39.4,19.8,68.9,30.8,77c17,12.4,39,13.2,52.7,10c9.2-2.1,14.1-5.7,15.4-8.1c3.8-7.1,1.3-13.1-4.8-26.2
			c-2.2-4.7-4.7-10.1-7.1-16.2c-6.1-16-4.1-50.3-2.2-83.6c0.1-1.7,0.2-3.4,0.3-5.1c0.1-1,0.1-2.1,0.2-3.1c0-0.6,0.1-1.2,0.1-1.8
			c0.1-1.2,0.1-2.4,0.2-3.7c0-0.3,0-0.5,0-0.8c0-0.1,0-0.2,0-0.4c0.1-1.4,0.1-2.8,0.2-4.2c0,0,0,0,0-0.1c0-0.1,0-0.2,0-0.3
			c0.3-6,0.5-11.8,0.6-17.2c0,0,0-0.1,0-0.1c0-0.9,0-1.9,0-2.8c0-1.3,0-2.5,0-3.7c0-36.3-17.4-58-17.6-58.2c0,0,25.9,15.9,28.8,51.7
			c1.6-2,3.1-4.1,4.7-6.3c0.4-0.5,0.7-1,1.1-1.5c1.5-2.2,2.9-4.3,4.3-6.6c0-0.1,0.1-0.1,0.1-0.2c1-1.7,2-3.4,3-5.1
			C602.2,739.1,610.7,654.9,601.7,592.7z"/>
		<path class="st1" d="M356.1,702.2c-12.5-17.7-19.2-36.8-22.8-52.3c-23.9,4.9-47.9,11.1-69.1,21.1
			C306.4,726.1,379,734.7,356.1,702.2z"/>
		<path class="st1" d="M375,642.1c38.8,55.2,110.8,64.5,88.9,33.5c-12.7-18-19-37.7-22.1-52.7c-8.1,4.3-17.4,8.1-28,10.9
			C401.6,637,388.6,639.6,375,642.1z"/>
		<path class="st0" d="M207.3,699.8c-15.7-16.1-21.8-42.6-18-78.8c3.8-36.4,13.8-64.5,23.6-91.7c16.4-45.8,30.5-85.4,5.1-148.8
			c-17.2-42.9-56.6-67.4-105.3-65.6c-41.5,1.5-77.8,21.9-86.3,48.6c-12.2,38.1-2.5,68.6,10.5,84.5c8.4,10.3,19.1,15.5,29.4,14.3
			c11.5-1.3,22.6-10.1,33.2-18.5c17.4-13.8,37.1-29.4,58.6-8c11.3,11.3,5.4,40.5-2.7,81c-11.4,56.7-27,134.4,4.7,180.6
			c8.1,11.8,18.8,21,32.2,27.7c1-2.2,2-4.3,3.1-6.5C198.9,711.7,202.9,705.5,207.3,699.8z"/>
		<path class="st0" d="M373,119.1c-2.1,0-4,0.1-5.9,0.5c-15,2.4-24.6,14.3-28.4,35.4c-14.9,82.5,42.4,230.7,43,232.2l0.5,1.2l0,1.3
			C380,456.5,398.5,507.1,437,540c44.4,37.9,115.9,50.8,196.2,35.5c119.7-22.9,213-115.3,217.2-215c3.8-91.2-73.9-151-85.7-157h-5.3
			l0.1-6.4c0.9-41.3-3-152.9-30.9-172.8c-4.1-3-8.5-3.4-13.8-1.5c-54.4,19.9-115.4,132.9-116,134.1l-1.3,2.4l-2.6,0.7
			c-63.9,17.5-100.1,48.7-100.5,49l-5.9,5.2l-3.7-6.9C459.3,159.6,407,119.1,373,119.1z M764.1,203.2L764.1,203.2
			C764.1,203.2,764.1,203.2,764.1,203.2z"/>
		<path class="st2" d="M346.7,942.4c11.4,21.8,27.5,36.7,45.3,41.9c11.8,3.4,23.4,2.4,32.7-3c9.2-5.3,8.1-10.5,3.4-26.3
			c-3.2-10.7-7.2-24.1-6.3-40.7c0.1-2.2,0.3-4.4,0.6-6.6c1.8-0.4,3.5-0.8,5.3-1.2c0,0,0,0,0,0c-29.6,7.1-60.4,10.6-90.2,10.7
			C339.9,926.6,342.9,935.2,346.7,942.4z"/>
		<path class="st2" d="M728.3,672.7c-1.1-2.9-2.6-4.7-4.4-5.1c-6.1-1.5-11.8,2.8-22,11.2c-8.5,7-19.1,15.6-34.1,22.1
			c-17.5,7.6-39.6,10.2-56.5,11c-5,28.4-13.2,56.2-25,81c0,0,0,0,0,0c76.9-12.9,117.4-43.6,129-60.3
			C728.5,713.4,733.1,685.2,728.3,672.7z"/>
		<path class="st3" d="M437,540c42.9,36.6,111.1,49.9,188.1,36.9c-41.6,3.3-93.9-0.3-129.8-30.6c-68.2-57.7-58.7-152-66.1-167.8
			c-7.3-15.7-50.3-24.1-65-157.3c-8.3-75.1,6.8-96.5,24.9-99.6c-5.7-1.7-11.1-2.6-16.1-2.6c-2.1,0-4,0.1-5.9,0.5
			c-15,2.4-24.6,14.3-28.4,35.4c-14.9,82.5,42.4,230.7,43,232.2l0.5,1.2l0,1.3C380,456.5,398.5,507.1,437,540z"/>
		<path class="st3" d="M728.7,24.2c-4.1-3-8.5-3.4-13.8-1.5c-54.4,19.9-115.4,132.9-116,134.1l-1.3,2.4c0,0,14.4-2.9,26.3-2.9
			c11.9,0,23.8-53.8,69.2-96.5c25-23.5,41.1-19.4,50.5-11C739.7,37.3,734.8,28.6,728.7,24.2z"/>
		<path class="st3" d="M160.1,697.3c8.1,11.8,18.8,21,32.2,27.7c1-2.2,2-4.3,3.1-6.5c1.4-2.8,2.9-5.4,4.5-8
			c-48.5-43.2-35.8-115.7-24.8-158.7c14-54.5,35-124.4-11.2-156.6c-46.1-32.2-102.1,5.6-120.2-26.6c-4.5-8-5.4-17-4.2-26
			c-6.3,6.2-10.8,13.2-13.2,20.7c-12.2,38.1-2.5,68.6,10.5,84.5c8.4,10.3,19.1,15.5,29.4,14.3c11.5-1.3,22.6-10.1,33.2-18.5
			c17.4-13.8,37.1-29.4,58.6-8c11.3,11.3,5.4,40.5-2.7,81C144,573.4,128.4,651.1,160.1,697.3z"/>
		<path class="st3" d="M241.5,960.6c11.4,21.8,27.5,36.7,45.3,41.9c11.8,3.4,23.4,2.4,32.7-3c1.2-0.7,2.2-1.4,3.1-2.1
			c-15.6-4.1-37.1-16.4-49.5-51.7c-21-59.8,5.2-118.5-10.5-145.7c-15.7-27.3-23.1-69.2,11.5-106.9c30.2-33,104.5-34.7,146.6-61.3
			c-2.2,0.7-4.5,1.4-6.9,2c-15.6,4.1-32.6,7.2-50.6,10.5c-59.8,10.8-127.6,23.1-156.5,80c-19.2,37.8-18.4,83.7,2.1,119.7
			c1.9,3.3,4,6.5,6.1,9.5c3.1-21.1,9.5-32.5,9.5-32.5C224.3,822,218.4,916.4,241.5,960.6z"/>
		<path class="st1" d="M598.9,156.8l-1.3,2.4l-2.6,0.7c-63.9,17.5-100.1,48.7-100.5,49l-5.9,5.2c0,0,71.7,8.6,115.7,46.3
			C648.4,298.1,634.7,197.2,598.9,156.8z"/>
		<path class="st3" d="M604.7,624.6c-0.5-11.1-1.5-21.8-2.9-31.9c-11,1.1-21.9,1.6-32.4,1.6c-30.4,0-58.7-4.5-83.7-13.1
			c-3.6,6-8.1,12.4-13.8,18.6C499.4,614.4,543.4,629.2,604.7,624.6z"/>
		<g>
			<path class="st4" d="M137.9,336.6c26.9,4.7,60.4,23.3,74.4,83.3"/>
			<path class="st4" d="M99,338c0,0,5.4-1.6,14-2.4"/>
		</g>
		<g>
			<path class="st4" d="M330.2,784.3c3,15.6,1.1,37.3-15.2,65.3"/>
			<path class="st4" d="M313.6,753.9c0,0,4.7,3.7,9.3,11.3"/>
		</g>
		<path class="st3" d="M637.1,780.4c-5.5-8.5-10.2-19.5-11-32.8c-0.8-13.2,3.2-26.5,8.6-38c-8.2,1.2-16.2,1.9-23.3,2.2
			c-5,28.4-13.2,56.2-25,81c0,0,0,0,0,0C605.5,789.6,622.3,785.3,637.1,780.4z"/>
		<g>
			<path class="st4" d="M526.7,818.9c0.9,6.4,1.3,13.5,1.1,21c-1,34.6-1.6,60.3-1.6,60.3"/>
			<path class="st4" d="M515.2,781.2c0,0,3,5.4,6.1,14.6"/>
		</g>
		<g>
			<path class="st4" d="M579,692.7c-3.1,23.8-9.5,51.7-22.1,73.1"/>
			<path class="st4" d="M582,643.5c0,0,0.2,7.3-0.3,18.7"/>
		</g>
		<g>
			<path class="st4" d="M693.2,193c26.4,7.8,59.8,23,85.9,52.7"/>
			<path class="st4" d="M649.1,184.9c0,0,8.5,0.3,21.7,2.7"/>
		</g>
		<path class="st3" d="M346.7,942.4c11.4,21.8,27.5,36.7,45.3,41.9c11.8,3.4,23.4,2.4,32.7-3c7.7-4.4,8.2-8.9,5.3-19.5
			c-7.2,5-18.8,7.8-35.3-3.1c-15.5-10.2-23-27.8-26.6-42.8c-10.3,0.8-20.5,1.3-30.6,1.3C339.9,926.6,342.9,935.2,346.7,942.4z"/>
		<path class="st3" d="M549,1000.4c-16.5-5.1-35.3-16.6-46.7-41.7c-23.8-52.4-2.8-160.1-12.6-174.8c-7.6-11.3-29.7,3.2-40,30
			c-2.3,26.2,0.8,65.6,8.1,101.9c8,39.4,19.8,68.9,30.8,77c17,12.4,39,13.2,52.7,10C544.4,1002.2,546.9,1001.4,549,1000.4z"/>
		<path class="st5" d="M805.5,221.5c-10.6-11-24.6-23-33.3-28.1c0.3-27.7-0.1-153.6-36.2-179.4c-7.5-5.4-16.3-6.4-25.4-3.1
			C655.6,31,598.6,131.2,589.1,148.5c-50.8,14.4-84,36.5-96.8,46.2c-13.8-23.3-34-45.7-56.2-62.3c-26-19.4-51.2-28.4-71-25.2
			c-14.4,2.3-32.8,12.1-38.8,45.6c-15,82.9,37.3,222.3,43.2,237.8c-1.9,70.3,18,123.8,59.4,159.1c12.9,11.1,28,20.1,44.8,27.1
			c-10.4,16.6-29.3,36-63.1,45c-15.1,4-31.8,7-49.6,10.2c-52.1,9.4-109.9,19.9-146.2,59c-12.6-13.6-17.3-36.7-14-68.8
			c3.6-35,13.5-62.5,23-89.1c16.4-46.1,32-89.5,4.9-156.9c-19.1-47.6-62.6-74.9-116.4-72.9c-46.2,1.7-86.9,25.5-96.9,56.6
			C1.9,402.4,13,437,28,455.2c11,13.4,25.4,20.1,39.6,18.4c14.8-1.7,27.1-11.5,39.1-20.9c18.6-14.7,29.7-22.4,43.3-8.9
			c6.9,6.9,0.4,39.3-5.9,70.6c-11.8,58.7-27.9,139.2,6.5,189.4c9.3,13.5,21.9,24.2,37.5,31.9c-13.2,37.7-9.9,80.2,9.6,114.5
			c4.5,7.9,9.7,15.1,15.4,21.6c-0.2,6.1-0.1,12.7,0.5,19.8c2.1,26.3,7.2,54.5,17.5,74.3c12.9,24.6,31.4,41.6,52.3,47.6
			c5.6,1.6,11.2,2.4,16.7,2.4c9,0,17.5-2.2,25-6.5c17.5-10.1,13.2-24.4,8.7-39.6c-3.1-10.4-6.6-22.1-5.8-36.7
			c0.1-1.7,0.2-3.5,0.4-5.2c2.2,7.2,4.8,13.9,7.9,19.8c12.9,24.6,31.4,41.6,52.3,47.6c5.6,1.6,11.2,2.4,16.7,2.4
			c9,0,17.5-2.2,25-6.5c17.5-10.1,13.2-24.4,8.7-39.6c-3.1-10.4-6.6-22.1-5.8-36.7c0.2-3.3,0.5-6.7,1-10.1c-4,1-8,2-12,2.9
			c-0.2,2.2-0.4,4.4-0.6,6.6c-0.9,16.6,3.1,29.9,6.3,40.7c4.7,15.8,5.8,21.1-3.4,26.3c-9.3,5.4-20.9,6.4-32.7,3
			c-17.8-5.2-33.9-20.1-45.3-41.9c-3.8-7.3-6.8-15.9-9.2-25.2c35.2-0.2,71.9-5,106.4-15c7.8,44.6,20.7,87.4,37.9,99.9
			c14,10.2,30.7,13.8,45.1,13.8c6.3,0,12.1-0.7,17-1.8c11.4-2.6,19.5-7.5,23-13.9c6.7-12.5,1.5-23.6-4.5-36.5
			c-2.1-4.5-4.5-9.7-6.7-15.5c-5.2-13.7-3.2-48.3-1.4-78.8c0.6-10.9,1.2-21.5,1.6-31.1c9.3-9.9,17.5-20.8,24.1-32.8
			c0-0.1,0.1-0.1,0.1-0.2c0,0,0,0,0,0c75.7-11.4,127.2-40.8,144.9-66.4c14.3-20.8,20.9-53,14.3-70.4c-3.1-8.3-8.5-11.3-12.4-12.2
			c-12-3-21.3,4.6-32.1,13.4c-8.4,6.9-17.9,14.6-31.3,20.5c-15.1,6.5-34.5,9-50,9.9c0,0,0,0,0,0c5.5-38,5.5-76.3,0.9-108.9
			c7.1-0.9,14.2-2.1,21.5-3.5C760.9,563.9,858.6,466.4,863,361C865.8,294.7,828.2,245.1,805.5,221.5z M160.1,697.3
			c-31.7-46.2-16.1-123.9-4.7-180.6c8.1-40.5,14-69.7,2.7-81c-21.4-21.4-41.2-5.8-58.6,8c-10.7,8.5-21.7,17.2-33.2,18.5
			c-10.3,1.2-21-4-29.4-14.3c-13.1-15.9-22.7-46.4-10.5-84.5c8.5-26.7,44.8-47.1,86.3-48.6c48.7-1.8,88.1,22.8,105.3,65.6
			c25.4,63.3,11.3,102.9-5.1,148.8c-9.7,27.2-19.8,55.4-23.6,91.7c-3.8,36.3,2.3,62.7,18,78.8c-4.4,5.7-8.4,12-11.9,18.8
			c-1.1,2.1-2.1,4.3-3.1,6.5C178.9,718.3,168.2,709.1,160.1,697.3z M568.8,799.5c-3.8,6.9-8.3,13.4-13.1,19.6
			c-2.9-35.8-28.8-51.7-28.8-51.7c0.2,0.2,17.6,21.9,17.6,58.2c0,12.5-0.9,27.4-1.8,43.3c-1.9,33.2-3.9,67.6,2.2,83.6
			c2.3,6.2,4.8,11.5,7.1,16.2c6.1,13,8.6,19.1,4.8,26.2c-1.3,2.4-6.1,6-15.4,8.1c-13.7,3.1-35.8,2.4-52.7-10
			c-11-8-22.8-37.5-30.8-77c-7.7-37.9-10.7-79.3-7.8-105.4c0,0-16.2,22.7-9.4,71.3c0.4,2.7,0.8,5.4,1.2,8
			c-34.3,10.1-71.1,14.8-106.3,14.8c-0.9,0-1.8,0-2.7,0c3.1-12.6,7.4-25.6,11.8-39c5.8-17.7,11.9-36,15.9-55.3
			c10-47.7-30.5-70.4-30.5-70.4c1.1,1.1,27.9,26.8,19.3,68c-3.9,18.6-9.8,36.6-15.6,54c-8.1,24.6-15.8,47.9-17,70.5
			c-0.9,16.6,3.1,29.9,6.3,40.7c4.7,15.8,5.8,21.1-3.4,26.3c-9.3,5.4-20.9,6.4-32.7,3c-17.8-5.2-33.9-20.1-45.3-41.9
			C218.4,916.4,224.3,822,224.3,821c0,0-6.3,11.4-9.5,32.5c-2.2-3.1-4.2-6.2-6.1-9.5c-20.5-36-21.3-81.9-2.1-119.7
			c29-56.9,96.7-69.2,156.5-80c18-3.3,35-6.3,50.6-10.5c39-10.4,60.4-33.4,71.8-52.6c25,8.6,53.3,13.1,83.7,13.1
			c10.6,0,21.4-0.5,32.4-1.6C610.7,654.9,602.2,739.1,568.8,799.5z M667.8,700.8c14.9-6.5,25.5-15.1,34.1-22.1
			c10.3-8.4,15.9-12.7,22-11.2c1.8,0.5,3.3,2.2,4.4,5.1c4.7,12.5,0.1,40.7-13,59.8c-11.5,16.7-52,47.4-129,60.3c0,0,0,0,0,0
			c11.8-24.8,20-52.6,25-81C628.3,711,650.3,708.4,667.8,700.8z M850.4,360.5c-4.2,99.7-97.5,192.1-217.2,215
			c-80.3,15.3-151.9,2.4-196.2-35.5c-38.5-32.9-57-83.5-54.9-150.4l0-1.3l-0.5-1.2c-0.6-1.5-57.9-149.6-43-232.2
			c3.8-21.1,13.4-33,28.4-35.4c1.9-0.3,3.9-0.5,5.9-0.5c33.9,0,86.3,40.6,111.9,88l3.7,6.9l5.9-5.2c0.4-0.3,36.6-31.5,100.5-49
			l2.6-0.7l1.3-2.4c0.6-1.1,61.5-114.1,116-134.1c5.3-1.9,9.6-1.4,13.8,1.5c27.9,19.9,31.8,131.5,30.9,172.8l-0.1,6.4h5.3
			C776.5,209.5,854.2,269.3,850.4,360.5z"/>
	</g>
	<g>
		<g>
			<g>
				<g>
					<g>
						<g>
							<circle class="st6" cx="558.6" cy="353.7" r="32.5"/>
							<path class="st7" d="M562.3,346.1c5.2,4,11.4,4.5,14,1.1c2.6-3.3,0.4-9.2-4.7-13.2c-5.2-4-11.4-4.5-14-1.1
								C555,336.2,557.1,342.1,562.3,346.1z"/>
						</g>
						<g>
							<path class="st6" d="M703.7,283.1c0,18,14.6,32.5,32.5,32.5c18,0,32.5-14.6,32.5-32.5s-14.6-32.5-32.5-32.5
								C718.2,250.6,703.7,265.2,703.7,283.1z"/>
							<path class="st7" d="M739.8,275.5c5.2,4,11.4,4.5,14,1.1c2.6-3.3,0.4-9.2-4.7-13.2c-5.2-4-11.4-4.5-14-1.1
								C732.5,265.6,734.6,271.5,739.8,275.5z"/>
						</g>
					</g>
					<g>
						<path class="st1" d="M698.2,504.9c6.8-1.1,13.3-2.5,19.5-4.4c6.2-1.8,12.1-4.2,17.7-7.2c1.4-0.7,2.8-1.4,4.1-2.3
							c1.3-0.8,2.7-1.6,4-2.5c2.5-1.9,5.2-3.6,7.6-5.8c1.2-1.1,2.6-2,3.7-3.2c1.1-1.2,2.3-2.3,3.5-3.4c1.3-1.1,2.3-2.4,3.4-3.6
							c1.1-1.2,2.3-2.5,3.6-3.7c-0.5,1.7-1,3.3-1.6,4.9c-0.6,1.6-1.2,3.3-2.1,4.8c-0.8,1.5-1.7,3.1-2.6,4.6l-0.7,1.1l-0.8,1
							l-1.7,2.1c-2.1,2.9-4.9,5.2-7.5,7.6c-2.9,2.1-5.8,4.3-9,5.8c-6.3,3.3-13.3,5.4-20.3,6.2C712,507.6,704.8,507.2,698.2,504.9z"
							/>
						<g>
							<g>
								<g>
									<g>
										<path class="st3" d="M708.6,408.3c0.1,0,0.2,0,0.3,0C708.7,408.3,708.6,408.3,708.6,408.3z"/>
										<path class="st3" d="M710.1,408.1C710.1,408.1,710.1,408.1,710.1,408.1C710.1,408.1,710.1,408.1,710.1,408.1z"/>
										<path class="st3" d="M711.4,407.9c0,0-0.1,0-0.1,0C711.3,407.9,711.3,407.9,711.4,407.9z"/>
										<path class="st3" d="M707,408.5c-3,0.3-6.8,0.6-11.3,0.6c-3.5,0-7.3-0.2-11.3-0.6c5.3,46.4-22.9,71.8-56.9,67.5
											c-37.2-4.7-42.8-46.8-43-46.1c-2.7,11.1-4,22.7-2,33.7c1,5.5,2.8,10.7,5.4,15.5c2.6,4.8,6.1,9,10.1,12.5
											c8.1,7.1,18.6,11.1,29.2,12.1c10.7,1.1,21.6-0.3,31.8-4c5.1-1.9,9.9-4.2,14.6-6.9c4.6-2.8,9-5.9,12.9-9.5
											c7.8-7.2,13.5-16.3,17.2-26.2c3.6-9.9,5.1-20.8,4.9-31.6c-0.1-5.4-0.6-10.9-1.4-16.3C707.1,409,707.1,408.7,707,408.5z"/>
										<path class="st3" d="M712.2,407.8C712.2,407.8,712.2,407.8,712.2,407.8C712.2,407.8,712.2,407.8,712.2,407.8
											C712.2,407.8,712.2,407.8,712.2,407.8z"/>
									</g>
									<path class="st3" d="M721,425.3c0,5.7-0.3,11.4-1.1,17c0.9,0.4,1.7,0.8,2.6,1.2c7.7,3.3,15.8,5.2,23.9,5.6
										c8.1,0.4,16.2-1,23.8-3.8c3.8-1.4,7.5-3.2,11-5.3c3.4-2.1,6.7-4.6,9.6-7.3c3-2.7,5.6-5.8,7.9-9.2c2.3-3.3,4.3-6.9,5.9-10.7
										c3.1-7.5,4.6-15.8,4.1-24.1c-0.6-8.2-3.2-16.4-7.8-23.7c-2.3-3.6-5.1-6.9-8.2-10.1c-3.2-3.1-6.7-5.8-10.4-8.4
										c5.4,6.5,20.3,37-9.6,63.7c-22.8,20.4-43.5,12.1-52,7C720.8,420.1,721,422.7,721,425.3z"/>
								</g>
								<path class="st6" d="M804.8,362.2c-6.2-7.1-14.1-12.3-22.5-15.5c3.7,2.6,7.2,5.3,10.4,8.4c3.1,3.1,5.9,6.5,8.2,10.1
									c4.6,7.3,7.2,15.4,7.8,23.7c0.5,8.3-0.9,16.5-4.1,24.1c-1.6,3.8-3.6,7.3-5.9,10.7c-2.3,3.3-4.9,6.5-7.9,9.2
									c-3,2.8-6.2,5.2-9.6,7.3c-3.5,2-7.1,3.8-11,5.3c-7.7,2.8-15.7,4.2-23.8,3.8c-8.1-0.4-16.2-2.3-23.9-5.6
									c-0.9-0.4-1.7-0.8-2.6-1.2c0.8-5.7,1.2-11.4,1.1-17c-0.1-6-0.5-12.1-1.4-18c-0.3-1.8-0.6-3.6-1-5.4
									c-1.1,1.5-2.2,2.9-3.4,4.5c-0.5,0.6-1.1,1-1.8,1.1c-0.4,0.1-2.7,0.6-6.4,1c0,0.2,0.1,0.5,0.1,0.7c0.8,5.4,1.3,10.8,1.4,16.3
									c0.2,10.9-1.2,21.7-4.9,31.6c-3.6,9.9-9.4,18.9-17.2,26.2c-3.9,3.6-8.3,6.7-12.9,9.5c-4.6,2.7-9.5,5-14.6,6.9
									c-10.1,3.7-21.1,5.2-31.8,4c-10.7-1-21.1-5.1-29.2-12.1c-4-3.5-7.5-7.7-10.1-12.5c-2.6-4.8-4.4-10.1-5.4-15.5
									c-2-11-0.7-22.6,2-33.7c-4.1,10.7-6.6,22.3-5.6,34.2c1,11.8,6,23.6,14.8,32.3c8.7,8.6,20.4,14,32.5,15.9
									c12.1,1.8,24.5,0.7,36.2-2.9c11.7-3.6,22.4-9.6,31.8-17.7c9.2-8.2,16.7-18.7,21-30.4c0.9-2.5,1.7-5,2.4-7.6
									c0.1,0.1,0.2,0.1,0.3,0.2c8.6,4.2,18.1,6.9,27.9,7.6c9.8,0.6,19.8-0.9,28.9-4.4c4.5-1.8,9-3.9,13.1-6.5
									c4.1-2.7,8-5.8,11.5-9.2c7-7,12.2-15.5,15.4-24.7c3.1-9.3,4-19.3,2.4-28.8C815.3,378.3,811,369.3,804.8,362.2z"/>
							</g>
							<g>
								<path class="st8" d="M738.5,348.3c-0.3-1.3-1.4-2.4-2.8-2.5c-59.9-5.4-90.8,44.2-91.1,44.7c-0.9,1.4-0.5,3.3,0.9,4.2
									c17.5,11.8,36.7,14.4,50.2,14.4c10.1,0,17-1.4,17.7-1.6c0.7-0.2,1.4-0.6,1.8-1.1C743,371.2,738.7,349.2,738.5,348.3z"/>
								<path class="st9" d="M738.5,348.5c0-0.1,0-0.2,0-0.2c-0.3-1.3-1.4-2.4-2.8-2.5c-59.9-5.4-90.8,44.2-91.1,44.7
									c-0.6,1-0.6,2.3,0,3.2C666.3,390.9,709.5,381.4,738.5,348.5z"/>
								
									<ellipse transform="matrix(0.9788 -0.2048 0.2048 0.9788 -57.4811 153.3331)" class="st7" cx="711.9" cy="354.3" rx="11.8" ry="3.8"/>
							</g>
						</g>
					</g>
				</g>
				<g>
					<g>
						<path class="st6" d="M301.7,483.8c13.7-13.5,30.1-23.9,47.2-32.7l6.5-3.2c2.2-1.1,4.4-2,6.6-3c4.4-1.9,8.8-3.9,13.4-5.5
							c4.5-1.6,9-3.3,13.6-4.8l13.9-4.1c2.3-0.7,4.7-1.2,7-1.7l7-1.6l7.1-1.5c2.4-0.5,4.7-0.8,7.1-1.2c4.8-0.7,9.5-1.4,14.3-2.1
							c4.8-0.5,9.6-0.8,14.4-1.1c4.8-0.3,9.6-0.7,14.4-0.6c4.8,0,9.6,0.1,14.4,0.2l3.6,0.1l3.6,0.3c2.4,0.2,4.8,0.4,7.2,0.7
							c4.8,0.5,9.5,1,14.2,1.8c-4.8,0.7-9.5,1.2-14.2,1.7c-2.4,0.3-4.7,0.5-7.1,0.7l-3.5,0.3l-3.5,0.5c-4.7,0.7-9.3,1.3-14,1.9
							c-2.3,0.3-4.7,0.5-7,0.9l-6.9,1.2l-13.8,2.3c-4.6,1-9.1,1.9-13.7,2.8c-2.3,0.5-4.6,0.8-6.9,1.4l-6.8,1.7l-6.8,1.6
							c-2.3,0.5-4.5,1-6.8,1.7l-13.4,3.8c-4.5,1.3-8.9,2.9-13.3,4.2c-4.5,1.3-8.8,3.1-13.2,4.6c-4.4,1.5-8.8,3.2-13.1,4.9
							C335.5,466.8,318.4,474.5,301.7,483.8z"/>
						<path class="st6" d="M352,562c8.2-15.4,19.5-28.9,31.8-41.3c3.1-3,6.2-6.2,9.5-9c3.3-2.9,6.5-5.8,10-8.5l10.4-8l10.8-7.4
							c14.7-9.4,30.1-17.8,46.4-24.1c8-3.4,16.4-5.8,24.7-8.3c4.1-1.3,8.4-2.1,12.7-3c4.3-0.9,8.5-1.7,12.8-2.3
							c-3.9,2-7.8,3.8-11.7,5.7c-3.9,1.9-7.9,3.4-11.6,5.5c-7.6,3.9-15.4,7.3-22.8,11.5c-15.1,7.7-29.5,16.5-43.7,25.6l-10.5,7
							l-10.3,7.3c-6.8,5-13.6,10.1-20.1,15.4C377.2,538.7,364.4,549.9,352,562z"/>
					</g>
					<g>
						<path class="st6" d="M799.8,304.5c4.5-14.7,11.1-28.7,19-42c7.9-13.2,17.3-25.7,27.7-37.1c2.6-2.8,5.2-5.8,8-8.4l8.4-8
							c2.9-2.5,5.9-5,8.9-7.5c1.5-1.2,3-2.5,4.5-3.7l4.7-3.4c3.2-2.2,6.3-4.5,9.5-6.6c3.3-2,6.7-3.9,10-5.8c1.7-0.9,3.3-1.9,5.1-2.7
							c1.8-0.8,3.5-1.7,5.3-2.4c3.5-1.6,7-3.1,10.6-4.5c-11.6,10.2-23.4,19.4-34.2,29.8l-4.1,3.8c-1.4,1.3-2.7,2.6-4,3.9l-8,7.8
							c-5.1,5.4-10.4,10.6-15.3,16.2c-10,11-19.6,22.4-28.8,34.2C817.6,279.8,808.9,292.1,799.8,304.5z"/>
						<path class="st6" d="M822.8,322.3c8.6-12.1,19.4-22.4,30.7-31.7c11.5-9.3,23.8-17.6,36.7-24.6c13-7,26.4-13.2,40.5-17.8
							c6.9-2.5,14.1-4.3,21.2-6.1c3.6-0.9,7.2-1.5,10.8-2.1c3.6-0.6,7.3-1.2,10.9-1.6c-3.3,1.7-6.6,3.3-9.9,4.9
							c-3.3,1.6-6.7,2.9-9.9,4.6c-6.5,3.2-13.1,6.1-19.5,9.4c-13,6.2-25.6,12.9-38.2,19.7c-12.6,6.8-24.8,14.1-37.1,21.6
							C847.1,306.2,835,314,822.8,322.3z"/>
					</g>
				</g>
			</g>
			<g>
				<g>
					<g>
						<path class="st10" d="M668.5,152c31.7,6.5,52.4,14.9,63.4,20.3c-0.1-11.5-0.9-30-2.8-48.8c-3.8-38.4-9-48.4-10.8-50.7
							C707.7,79.2,684.3,120.2,668.5,152z"/>
						<path class="st11" d="M707.6,162.5c-0.1-11.6-0.7-44.6-3.7-72.9C692.7,105.9,679,131,668.5,152
							C684.2,155.2,697.2,158.9,707.6,162.5z"/>
						<path class="st5" d="M738,189.1c-1.2,0-2.4-0.4-3.5-1.1c-0.2-0.1-24.2-15.6-76.4-25.3c-1.9-0.4-3.6-1.6-4.5-3.3
							c-0.9-1.7-0.9-3.8-0.1-5.6c6.8-14.2,41.9-85.4,60.9-93.3c3.5-1.5,7.3-1,10.4,1.3c19.8,14.2,19.4,120.3,19.4,121.3
							c-0.1,2.2-1.5,4.2-3.5,5.2C740,188.9,739,189.1,738,189.1z M668.5,152c31.7,6.5,52.4,14.9,63.4,20.3
							c-0.1-11.5-0.9-30-2.8-48.8c-3.8-38.4-9-48.4-10.8-50.7C707.7,79.2,684.3,120.2,668.5,152z"/>
					</g>
					<g>
						<path class="st10" d="M405.7,284.6c17.5-26.7,48.3-53.7,59.7-63.3c-12-17-47.1-47.9-64.7-48.3c-0.1,0-0.2,0-0.3,0
							c-3.2,0-4.4,1.2-5.2,2.6C387.3,188.9,396.4,244.2,405.7,284.6z"/>
						<path class="st11" d="M441.8,242.7c-17.2-27.1-35.1-42.4-49.5-51.1c-0.5,23,6.4,62.3,13.5,93
							C415.5,269.7,429.4,254.7,441.8,242.7z"/>
						<path class="st5" d="M403.4,307.9c-0.2,0-0.4,0-0.5,0c-2.7-0.2-4.9-2.1-5.6-4.7c-0.1-0.3-6.9-27.1-12-56.5
							c-10.6-61.2-3.3-73.5-0.9-77.6c3.4-5.8,9.3-8.9,16.7-8.8c15.2,0.4,34.9,14.9,45.3,23.5c14.8,12.3,28,26.7,32.8,35.8
							c1.4,2.7,0.7,6-1.6,7.8c-0.5,0.4-53.5,43.1-68.4,76.6C408.2,306.5,405.9,307.9,403.4,307.9z M400.4,173
							c-3.2,0-4.4,1.2-5.2,2.6c-7.9,13.4,1.2,68.6,10.5,109c17.5-26.7,48.3-53.7,59.7-63.3c-12-17-47.1-47.9-64.7-48.3
							C400.6,173,400.5,173,400.4,173z"/>
					</g>
				</g>
				<g>
					<g>
						<path class="st7" d="M720.4,160.5c-1.7,0-3.1-1.4-3.1-3.1c-0.1-10.6-0.9-23.4-2.4-38.1c-0.2-1.7,1.1-3.3,2.8-3.4
							c1.7-0.2,3.3,1.1,3.4,2.8c1.5,14.9,2.3,27.8,2.4,38.6C723.6,159,722.2,160.4,720.4,160.5C720.4,160.5,720.4,160.5,720.4,160.5
							z"/>
						<path class="st7" d="M716.4,107.5c-1.6,0-2.9-1.2-3.1-2.8c-0.7-6.1-1.3-9.8-1.3-9.9c-0.2-1.7,1-3.3,2.7-3.6
							c1.7-0.2,3.3,1,3.6,2.7c0,0,0.5,3.8,1.3,10c0.2,1.7-1,3.3-2.7,3.5C716.7,107.5,716.5,107.5,716.4,107.5z"/>
					</g>
					<g>
						<path class="st7" d="M447.6,226c-0.9,0-1.8-0.4-2.5-1.2c-6.5-8.2-13.9-15.8-21.9-22.6c-1.3-1.1-1.5-3.1-0.4-4.4
							c1.1-1.3,3.1-1.5,4.4-0.4c8.3,7.1,16,15,22.7,23.5c1.1,1.4,0.9,3.3-0.5,4.4C449,225.8,448.3,226,447.6,226z"/>
						<path class="st7" d="M414.7,194.7c-0.6,0-1.3-0.2-1.8-0.6c-4.9-3.5-8.1-5.2-8.1-5.2c-1.5-0.8-2.1-2.7-1.3-4.3
							c0.8-1.5,2.7-2.1,4.3-1.3c0.1,0.1,3.5,1.9,8.8,5.6c1.4,1,1.8,3,0.8,4.4C416.6,194.2,415.6,194.7,414.7,194.7z"/>
					</g>
				</g>
			</g>
		</g>
		<g>
			<path class="st1" d="M500.2,353.4c-1.4-7-0.3-14.3,2-21c2.3-6.7,6.1-13.1,11-18.4c4.9-5.3,10.8-9.8,17.4-12.6
				c3.2-1.6,6.7-2.4,10.1-3.3c1.7-0.5,3.5-0.5,5.3-0.6c1.8-0.1,3.5-0.2,5.3-0.1c-2.7,2.5-5.5,4.3-8,6.4c-2.5,2.1-5.2,3.9-7.5,6
				c-4.9,3.9-9.1,8.2-13.3,12.6c-4.1,4.4-7.9,9.2-11.5,14.3C507.4,341.9,503.9,347.4,500.2,353.4z"/>
			<path class="st1" d="M758.2,241c-7-1.1-13.3-2-19.6-2.6c-6.2-0.6-12.3-0.9-18.4-0.6c-6,0.3-12.1,0.7-18.2,1.9
				c-3.1,0.3-6.2,1.2-9.4,1.7c-3.3,0.6-6.4,1.6-10.1,2c1.1-1.4,2.3-2.7,3.5-4c1.2-1.3,2.5-2.6,3.9-3.6c2.8-2.1,5.8-4.2,9.1-5.6
				c6.4-3.2,13.6-4.7,20.9-5c7.2-0.3,14.5,1,21.1,3.6C747.6,231.5,753.8,235.4,758.2,241z"/>
			<path class="st1" d="M640,351.3c1.8-5.8,5.2-10.8,9.2-15.3c4-4.4,8.8-8.3,14.1-11.2c5.4-2.9,11.5-4.8,17.6-5.3
				c6.2-0.5,12.5,0.9,17.7,3.9c-6,1.3-11.2,2.4-16.2,4.2c-4.9,1.8-9.6,4-14.2,6.4c-4.6,2.5-9.1,5.3-13.8,8.3
				C649.9,345.2,645.2,348.2,640,351.3z"/>
		</g>
	</g>
</g>
</svg>
