<?xml version="1.0" encoding="utf-8"?>
<!-- Generator: Adobe Illustrator 24.2.0, SVG Export Plug-In . SVG Version: 6.00 Build 0)  -->
<svg version="1.1" id="Layer_1" xmlns="http://www.w3.org/2000/svg" xmlns:xlink="http://www.w3.org/1999/xlink" x="0px" y="0px"
	 viewBox="0 0 1096 1024" style="enable-background:new 0 0 1096 1024;" xml:space="preserve">
<style type="text/css">
	.st0{fill:#BF2E3D;}
	.st1{fill:#CC8648;}
	.st2{fill:#F4C182;}
	.st3{fill:#D69651;}
	.st4{fill:#331500;}
	.st5{fill:#FFFFFF;}
	.st6{fill:none;}
	.st7{fill:#6D2F00;}
	.st8{opacity:0.4;fill:#CC8648;}
	.st9{opacity:0.4;fill:#F4C182;}
	.st10{opacity:0.4;fill:#BF2E3D;}
	.st11{fill:#E56779;}
	.st12{fill:#E2596C;}
	.st13{fill:#9E1D32;}
	.st14{opacity:0.4;fill:#E2596C;}
	.st15{fill:#EFA573;}
	.st16{fill:#FFCF9F;}
	.st17{fill:#EF7D92;}
</style>
<g>
	<path class="st0" d="M673.7,533L659.5,485c-55,48.6-131.8,81.3-214.7,92.5l19.1,40.8c0.6,1.4,1.9,2.3,3.4,2.5
		c0.6,0.1,5.7,0.7,14.3,0.7c30.7,0,110.7-8.2,190.9-84.1C673.7,536.3,674.2,534.6,673.7,533z"/>
	<path class="st1" d="M167.1,321.5c7.6-8.3,17.4-15.5,29-21.4c0.2-12.5,2.1-51.8,17.9-96.9c16.7-47.5,52.4-109.9,128.5-143.9
		c-1.2-1.8-2.3-3.7-3.2-5.6c-30.4-16.7-68-31.4-106.5-31.4c-1.5,0-3,0-4.6,0.1c-28.1,0.9-45.9,6.9-51.4,17.5c-3.6,7-1,13.6,1.9,18
		c3.3,5,8.8,9.8,15.8,13.7l13.4,7.5l-14.6,4.6c-40.9,12.8-98,42.1-138.2,109.4c-31.8,53.2-32,115.2-0.7,166
		c21.8,35.3,54.3,58.1,86.4,61.3C136.2,379,148.4,341.8,167.1,321.5z"/>
	<path class="st1" d="M552.7,104.6c0.3,1.3,1.3,2.3,2.6,2.6c81.6,22,137.4,137.4,145.8,195.8c7.8,54.8,26.5,111.6,105.5,117.5
		c1.7,0.1,3.5,0.2,5.3,0.2c34.5,0,70.6-23.6,94.1-61.7c31.3-50.8,31.1-112.8-0.7-166C865,125.8,807.9,96.4,767,83.6l-14.6-4.6
		l13.4-7.5c7-3.9,12.5-8.6,15.8-13.7c2.9-4.3,5.5-11,1.9-18c-5.5-10.6-23.3-16.7-51.4-17.5c-1.4,0-2.8-0.1-4.3-0.1
		c-25.6,0-65.6,6.8-116.6,37c-33.6,19.9-56.4,40.8-57.4,41.7C552.8,101.9,552.4,103.3,552.7,104.6z"/>
	<path class="st2" d="M676.7,449c17-19.6,29.9-40.6,38.9-62.7c0.2,0.3,0.4,0.6,0.6,1c-18.5-26.2-25-59.6-28.2-82.4
		c-7.9-55.3-60.2-164.5-136.2-185c-5.9-1.6-10.5-6.3-11.9-12.2c-1.5-5.9,0.4-12.2,4.9-16.3c1.3-1.2,13.5-12.3,32.9-26c0,0,0,0,0,0
		c-40.5-17.8-86.7-24.3-134.3-19.3c5.2,8,6.3,13.6,6.3,13.6c-0.4-0.4-39.9-44.3-83.9-37.3c-12.1,1.9-18.1,7-17.8,15
		c0.4,14.5,19.4,39.3,38.3,41.1c0,0-31.3,8.8-45.1,34.2c-4.4,8.1,4.3,14.7,7.9,17.1c19.2,12.4,62,12.1,97.3-27.4
		c0,0-14,46.6-68.6,47.8c-14.9,0-27.5-3.9-35.8-9.3c-13.3-8.6-18.2-21.4-12.8-33.5c7.2-16.3,20.5-24.4,32.5-28.4
		c-3.8-2.6-7.5-5.7-10.7-9c-48.1,20.5-84.6,54.6-109.1,101.6c7-5.1,15.6-8.1,24.9-8.1c23.5,0,42.5,19,42.5,42.5s-19,42.5-42.5,42.5
		c-21.3,0-38.9-15.7-41.9-36.2c-11.7,35.2-14.6,66.5-15.4,81.8c23.2-9.2,51.7-14.2,82.4-13.9c122.8,1.5,153.6,74.3,153.6,74.3
		c-33.7-37.8-91.2-60.7-153.7-61.1c-0.6,0-1.3,0-1.9,0c-48.7,0-91.8,14.1-113,37.1c-28.8,31.3-28.5,88.7-13.6,126.8
		c33.4,85.5,127.3,105.5,180.3,109.9c63.7,5.3,128.9-3.1,188.5-24.1C591.8,521.9,641.8,489.4,676.7,449z"/>
	<path class="st3" d="M597.8,854.3c-34.1-20-62.6-46.3-81.2-79.9c-6.4-11.6-12-23.9-16.9-36.6c-1,8.8-1.1,18.8,0.3,29.8
		c1.9,14.4,5.1,31.5,8.5,49.6c7.2,38,14.6,77.3,9.9,96.6c-1.8,7.5-3.9,14-5.7,19.7c-5,15.5-7.1,23.3-1.6,31c1.9,2.6,8,6.1,19,7.1
		c16.3,1.5,41.6-2.6,59.3-19.4c6.9-6.6,13.1-22.3,17.5-44c-2.2-16.6-5.8-35.6-9.1-53.5C597.8,854.6,597.8,854.5,597.8,854.3z"/>
	<path class="st2" d="M767.8,586.7c-20.9-3.8-40.7-7.4-58.7-12.1c-15.5-4.1-28.6-10-39.6-16.8c0,0,0,0,0,0
		c-74,64.2-146.3,75.4-180.8,76.7c0,0,0,0,0,0c5.2,47,17.8,94.6,39.4,133.6c13.4,24.3,35.9,48.1,66.3,68.1
		c-2.1-11.4-3.9-22.2-5.2-31.8c-6-46.5,24.6-71.5,24.6-71.5l-5.6-3.5l5.6,3.5c-0.2,0.3-17,28.2-11.6,69.8
		c1.9,14.4,5.1,31.5,8.5,49.6c7.2,38,14.6,77.3,9.9,96.6c-1.8,7.5-3.9,14-5.7,19.8c-4.9,15.5-7.1,23.3-1.6,31c1.9,2.6,8,6.1,19,7.1
		c16.3,1.5,41.6-2.6,59.3-19.4c11.5-10.9,20.7-46.7,24-93.4c3.2-44.8,0.6-93-6.7-122.7c0,0,20.4,17.5,21,70.8
		c0.2,14.4-0.1,29.2-0.9,43.7c29.8,4.6,62.2,6.3,97.1,4.2c-5.3-10.7-11.4-21.5-17.6-32.6c-10.6-18.9-21.9-38.3-30.3-59.6
		c-23.4-59.4,19.2-87,19.2-87c-1.1,1.5-26,36.8-7.1,82c8.5,20.4,19.3,39.6,29.6,58.3c14.7,26.3,28.5,51.2,34.9,76.7
		c4.7,18.7,3.1,34.8,1.8,47.7c-1.9,19.1-2,25.4,9.7,29.4c11.8,4.1,25.3,2.7,38.1-3.8c19.2-9.8,34.3-30.4,42.5-57.8
		c16.7-55.5-10.8-162-11-163.1c0,0,9.3,11.5,16.8,29.7c18.8-40.3,18-89-2.7-129.7C916.4,613.6,837.5,599.3,767.8,586.7z"/>
	<path class="st2" d="M1061.3,505.5c5-16,7.5-36.5-9.3-43.7c-20.5-8.7-61.3,6.3-76.5,34.1c-9.5,17.3-16.8,40.7-24.6,65.5
		c-7.4,23.6-14.9,47.6-24.8,67.8c9.9,8.2,18.9,17.9,26.6,29.1c23.8-2.5,53.4-9.8,75.4-29.1c11.8-10.3,15.1-16.4,15.8-19.2
		c0.2-0.9,0.1-1.4,0-1.6c-3.6-4.9-66,5.4-66,5.4S1042.9,564,1061.3,505.5z"/>
	<path class="st3" d="M829.8,902.9c-9.7,0.6-19.7,1-29.7,1c-16,0-32.2-0.8-48.5-2.5c2.4,15,1.1,28.1,0,38.9
		c-1.9,19.1-2,25.4,9.7,29.4c11.8,4.1,25.3,2.7,38.1-3.8c16.8-8.6,30.4-25.4,39.1-47.8c-1.8-5.1-3.9-10.2-6.2-15.4
		C831.5,902.8,830.7,902.9,829.8,902.9z"/>
	<path class="st4" d="M463.4,163.5c-23.5,0-42.5,19-42.5,42.5s19,42.5,42.5,42.5c23.5,0,42.5-19,42.5-42.5S486.9,163.5,463.4,163.5z
		"/>
	<path class="st5" d="M468.3,196.6c6.7,6,15.1,7.5,18.9,3.3c3.8-4.2,1.5-12.5-5.2-18.5c-6.7-6-15.1-7.5-18.9-3.3
		C459.4,182.3,461.7,190.6,468.3,196.6z"/>
	<path class="st6" d="M597.8,854.3c-34.1-20-62.6-46.3-81.2-79.9c-6.4-11.6-12-23.9-16.9-36.6c-1,8.8-1.1,18.8,0.3,29.8
		c1.9,14.4,5.1,31.5,8.5,49.6c7.2,38,14.6,77.3,9.9,96.6c-1.8,7.5-3.9,14-5.7,19.7c-5,15.5-7.1,23.3-1.6,31c1.9,2.6,8,6.1,19,7.1
		c16.3,1.5,41.6-2.6,59.3-19.4c6.9-6.6,13.1-22.3,17.5-44c-2.2-16.6-5.8-35.6-9.1-53.5C597.8,854.6,597.8,854.5,597.8,854.3z"/>
	<path class="st6" d="M673.7,533L659.5,485c-55,48.6-131.8,81.3-214.7,92.5l19.1,40.8c0.6,1.4,1.9,2.3,3.4,2.5
		c0.6,0.1,5.7,0.7,14.3,0.7c30.7,0,110.7-8.2,190.9-84.1C673.7,536.3,674.2,534.6,673.7,533z"/>
	<path class="st6" d="M552.7,104.6c0.3,1.3,1.3,2.3,2.6,2.6c81.6,22,137.4,137.4,145.8,195.8c7.8,54.8,26.5,111.6,105.5,117.5
		c1.7,0.1,3.5,0.2,5.3,0.2c34.5,0,70.6-23.6,94.1-61.7c31.3-50.8,31.1-112.8-0.7-166C865,125.8,807.9,96.4,767,83.6l-14.6-4.6
		l13.4-7.5c7-3.9,12.5-8.6,15.8-13.7c2.9-4.3,5.5-11,1.9-18c-5.5-10.6-23.3-16.7-51.4-17.5c-1.4,0-2.8-0.1-4.3-0.1
		c-25.6,0-65.6,6.8-116.6,37c-33.6,19.9-56.4,40.8-57.4,41.7C552.8,101.9,552.4,103.3,552.7,104.6z"/>
	<path class="st6" d="M196,300.1c0.2-12.5,2.1-51.8,17.9-96.9c16.7-47.5,52.4-109.9,128.5-143.9c-1.2-1.8-2.3-3.7-3.2-5.6
		c-30.4-16.7-68-31.4-106.5-31.4c-1.5,0-3,0-4.6,0.1c-28.1,0.9-45.9,6.9-51.4,17.5c-3.6,7-1,13.6,1.9,18c3.3,5,8.8,9.8,15.8,13.7
		l13.4,7.5l-14.6,4.6c-40.9,12.8-98,42.1-138.2,109.4c-31.8,53.2-32,115.2-0.7,166c21.8,35.3,54.3,58.1,86.4,61.3
		c-4.5-41.3,7.8-78.6,26.4-98.8C174.7,313.3,184.5,306.1,196,300.1z"/>
	<path class="st6" d="M829.8,902.9c-9.7,0.6-19.7,1-29.7,1c-16,0-32.2-0.8-48.5-2.5c2.4,15,1.1,28.1,0,38.9
		c-1.9,19.1-2,25.4,9.7,29.4c11.8,4.1,25.3,2.7,38.1-3.8c16.8-8.6,30.4-25.4,39.1-47.8c-1.8-5.1-3.9-10.2-6.2-15.4
		C831.5,902.8,830.7,902.9,829.8,902.9z"/>
	<path class="st6" d="M767.8,586.7c-20.9-3.8-40.7-7.4-58.7-12.1c-15.5-4.1-28.6-10-39.6-16.8c0,0,0,0,0,0
		c-74,64.2-146.3,75.4-180.8,76.7c0,0,0,0,0,0c5.2,47,17.8,94.6,39.4,133.6c13.4,24.3,35.9,48.1,66.3,68.1
		c-2.1-11.4-3.9-22.2-5.2-31.8c-6-46.5,24.6-71.5,24.6-71.5l-5.6-3.5l5.6,3.5c-0.2,0.3-17,28.2-11.6,69.8
		c1.9,14.4,5.1,31.5,8.5,49.6c7.2,38,14.6,77.3,9.9,96.6c-1.8,7.5-3.9,14-5.7,19.8c-4.9,15.5-7.1,23.3-1.6,31c1.9,2.6,8,6.1,19,7.1
		c16.3,1.5,41.6-2.6,59.3-19.4c11.5-10.9,20.7-46.7,24-93.4c3.2-44.8,0.6-93-6.7-122.7c0,0,20.4,17.5,21,70.8
		c0.2,14.4-0.1,29.2-0.9,43.7c29.8,4.6,62.2,6.3,97.1,4.2c-5.3-10.7-11.4-21.5-17.6-32.6c-10.6-18.9-21.9-38.3-30.3-59.6
		c-23.4-59.4,19.2-87,19.2-87c-1.1,1.5-26,36.8-7.1,82c8.5,20.4,19.3,39.6,29.6,58.3c14.7,26.3,28.5,51.2,34.9,76.7
		c4.7,18.7,3.1,34.8,1.8,47.7c-1.9,19.1-2,25.4,9.7,29.4c11.8,4.1,25.3,2.7,38.1-3.8c19.2-9.8,34.3-30.4,42.5-57.8
		c16.7-55.5-10.8-162-11-163.1c0,0,9.3,11.5,16.8,29.7c18.8-40.3,18-89-2.7-129.7C916.4,613.6,837.5,599.3,767.8,586.7z"/>
	<path class="st6" d="M1061.3,505.5c5-16,7.5-36.5-9.3-43.7c-20.5-8.7-61.3,6.3-76.5,34.1c-9.5,17.3-16.8,40.7-24.6,65.5
		c-7.4,23.6-14.9,47.6-24.8,67.8c9.9,8.2,18.9,17.9,26.6,29.1c23.8-2.5,53.4-9.8,75.4-29.1c11.8-10.3,15.1-16.4,15.8-19.2
		c0.2-0.9,0.1-1.4,0-1.6c-3.6-4.9-66,5.4-66,5.4S1042.9,564,1061.3,505.5z"/>
	<path class="st7" d="M679.8,548.6C679.8,548.6,679.8,548.6,679.8,548.6L679.8,548.6C679.8,548.6,679.8,548.6,679.8,548.6z"/>
	<path class="st8" d="M826.5,392.4c-27.8-12.1-41.1-44.4-44.9-74.5c-3.7-30.1-0.7-61.2-8.5-90.5c-8.4-31.5-28.7-58.6-51.6-81.9
		c-22.8-23.3-48.6-43.6-71.2-67.2c-7.1-7.4-14-15.4-17.2-25.1c-0.6-1.7-0.9-3.5-1.2-5.2c-6.7,3.4-13.7,7.1-20.9,11.4
		c-33.6,19.9-56.4,40.8-57.4,41.7c-1,0.9-1.4,2.3-1.1,3.5c0.3,1.3,1.3,2.3,2.6,2.6c81.6,22,137.4,137.4,145.8,195.8
		c7.8,54.8,26.5,111.6,105.5,117.5c1.7,0.1,3.5,0.2,5.3,0.2c24.5,0,49.8-11.9,70.8-32.5C865,397.4,844.6,400.2,826.5,392.4z"/>
	<path class="st8" d="M311.1,76.3c9.6-6.2,20-11.9,31.3-16.9c-1.2-1.8-2.3-3.7-3.2-5.6c-30.4-16.7-68-31.4-106.5-31.4
		c-1.5,0-3,0-4.6,0.1c-28.1,0.9-45.9,6.9-51.4,17.5c-3.6,7-1,13.6,1.9,18c3.3,5,8.8,9.8,15.8,13.7l13.4,7.5l-14.6,4.6
		c-40.9,12.8-98,42.1-138.2,109.4c-31.8,53.2-32,115.2-0.7,166c21.8,35.3,54.3,58.1,86.4,61.3c-3-27.4,1.4-53,10.2-73.1
		C50.7,268.5,154.4,106.3,311.1,76.3z"/>
	<path class="st9" d="M393.9,28.6c2.7-1.1,5.5-1.7,8.1-1.9c-11.1-4.2-23.5-6.5-36.2-4.4c-12.1,1.9-18.1,7-17.8,15
		c0.4,14.5,19.4,39.3,38.3,41.1c0,0-31.3,8.8-45.1,34.2c-4.4,8.1,4.3,14.7,7.9,17.1c11.2,7.3,30.6,10.1,51.8,3.3
		c-15.9,1.5-31-3.1-27.3-22.3c5.5-29,51-35.1,51-35.1C393.4,74.1,373.6,36.9,393.9,28.6z"/>
	<path class="st9" d="M370.4,270.3c-34-15.2-74.9-17.3-112.5-11.2c6.3-34.7,23.5-94.6,69.5-145.2c0.3-2.2,0.9-4.3,1.9-6.5
		c7.2-16.3,20.5-24.4,32.5-28.4c-3.8-2.6-7.5-5.7-10.7-9c-48.1,20.5-84.6,54.6-109.1,101.6c-9.8,17.1-17.1,40.7-17.1,40.7
		c-7.4,22.4-11.3,43.1-13.3,59.2c0,0,0,0,0,0c0,0.2-0.1,0.4-0.1,0.7c-0.1,0.8-0.2,1.5-0.3,2.3c-0.1,0.6-0.1,1.1-0.2,1.7
		c-0.1,0.7-0.2,1.3-0.2,2c-0.1,1.1-0.2,2.2-0.3,3.3c0,0.4-0.1,0.8-0.1,1.2c-0.1,0.9-0.2,1.7-0.2,2.5c0,0.3,0,0.5-0.1,0.8
		c-0.2,3.1-0.4,5.8-0.5,8.2c2.3-0.9,4.7-1.8,7.2-2.6c2.9-1,5.9-1.9,8.9-2.8c0,0,0.1,0,0.1,0c3-0.9,6.1-1.7,9.2-2.4c0,0,0.1,0,0.1,0
		c3.1-0.7,6.3-1.4,9.6-2c0,0,0.1,0,0.1,0c3.3-0.6,6.6-1.2,10-1.6l0,0c11.9-1.7,24.3-2.5,37.2-2.3c122.8,1.5,153.6,74.3,153.6,74.3
		S441.6,302.1,370.4,270.3z"/>
	<path class="st4" d="M266.7,163.5c-23.5,0-42.5,19-42.5,42.5s19,42.5,42.5,42.5s42.5-19,42.5-42.5S290.2,163.5,266.7,163.5z"/>
	<path class="st5" d="M271.1,196.6c6.7,6,15.1,7.5,18.9,3.3c3.8-4.2,1.5-12.5-5.2-18.5c-6.7-6-15.1-7.5-18.9-3.3
		C262.1,182.3,264.4,190.6,271.1,196.6z"/>
	<path class="st9" d="M343.4,567.1c4.2,0.3,8.4,0.6,12.7,0.9c-90.2-24.9-172.2-111.7-149-185.9c17.3-55.4,68.7-78.4,104.3-87.9
		c-6.5-0.5-13.1-0.9-19.7-0.9c-0.6,0-1.3,0-1.9,0c-48.7,0-91.8,14.1-113,37.1c-28.8,31.3-28.5,88.7-13.6,126.8
		C196.6,542.7,290.4,562.7,343.4,567.1z"/>
	<path class="st10" d="M549.1,610.9c-13.2-5.5-16.2-22.1-20.9-35.3c-2.4-6.9-0.6-13.1,2.7-18.1c-27.4,9.3-56.4,16.1-86.1,20.1
		l19.1,40.8c0.6,1.4,1.9,2.3,3.4,2.5c0.6,0.1,5.7,0.7,14.3,0.7C495.5,621.5,519.5,619.8,549.1,610.9z"/>
	<path class="st9" d="M632.4,1006.7c5,0.5,10.9,0.4,17.1-0.4c-17.3-10,8.7-44.5,4.7-86.8c-4.4-46.8-36.5-129.3-11.7-176.1
		c17.6-33-10.5-30.7-29.7-8.4c-3.7,7.1-15,32.5-10.5,67.8c1.9,14.4,5.1,31.5,8.5,49.6c7.2,38,14.6,77.3,9.9,96.6
		c-1.8,7.5-3.9,14-5.7,19.8c-4.9,15.5-7.1,23.3-1.6,31C615.3,1002.2,621.4,1005.7,632.4,1006.7z"/>
	<path class="st9" d="M512.7,933.6c-5,15.5-7.1,23.3-1.6,31c1.9,2.6,8,6.1,19,7.1c6.7,0.6,15,0.3,23.6-1.5
		c-5.7-1.6-10.6-5.1-12.7-11.9c-6.6-21.2,22.7-60.6,11.7-97.2c-4.6-15.2-7.5-33.6-9.3-49.9C533,800,524,787.8,516.6,774.5
		c-6.4-11.6-12-23.9-16.9-36.6c-1,8.8-1.1,18.8,0.3,29.8c1.9,14.4,5.1,31.5,8.5,49.6c7.2,38,14.6,77.3,9.9,96.6
		C516.7,921.3,514.6,927.8,512.7,933.6z"/>
	<path class="st9" d="M790.4,969.6c-7.1-4.2-10.5-15.5-5.8-35.5c2.6-11.1,3.2-21.5,2.9-30.4c-11.9-0.3-23.9-1.1-35.9-2.3
		c2.4,15,1.1,28.1,0,38.9c-1.9,19.1-2,25.4,9.7,29.4C770.4,972.8,780.5,972.7,790.4,969.6z"/>
	<path class="st9" d="M680.1,563.7c-3.7-1.9-7.3-3.8-10.6-5.9c0,0,0,0,0,0c-44.5,38.6-88.5,58.1-123.9,67.7
		c-4.3,1.2-8.5,2.2-12.5,3.1c-0.1,0-0.3,0.1-0.4,0.1c-1.2,0.3-2.5,0.5-3.7,0.8c-0.2,0-0.4,0.1-0.6,0.1c-5,1-9.8,1.8-14.3,2.5
		c-0.3,0-0.7,0.1-1,0.1c-0.9,0.1-1.8,0.3-2.7,0.4c-0.4,0.1-0.9,0.1-1.3,0.2c-0.8,0.1-1.6,0.2-2.4,0.3c-0.5,0.1-0.9,0.1-1.4,0.2
		c-1.2,0.1-2.4,0.3-3.5,0.4c-0.7,0.1-1.3,0.1-2,0.2c-0.5,0-1.1,0.1-1.6,0.1c-0.7,0.1-1.3,0.1-2,0.2c-0.5,0-0.9,0.1-1.4,0.1
		c-0.7,0-1.4,0.1-2.1,0.1c-0.4,0-0.7,0-1.1,0.1c-1,0.1-2,0.1-3,0.1c0,0,0,0,0,0c0.3,2.6,0.6,5.2,0.9,7.8c0.3,2.5,0.7,5.1,1,7.6
		c0,0,0,0,0,0.1l0,0c6.1,41.9,18.2,83.4,37.4,118.2c13.4,24.3,35.9,48.1,66.3,68.1c-2.1-11.4-3.9-22.2-5.2-31.8
		c-2-15.3,0-28.3,3.6-38.8c-36.7-43.3-45.3-93.9-46.9-123.3C585.3,632.6,636.2,611.2,680.1,563.7z"/>
	<path class="st9" d="M975.4,495.9c-9.5,17.3-16.8,40.7-24.6,65.5c-7.4,23.6-14.9,47.6-24.8,67.8c9.9,8.2,18.9,17.9,26.6,29.1
		c14.7-1.5,31.6-4.9,47.5-11.8c-32.4,7-51.2-14-39-31.7c16.1-23.4,30.7-71.6,48.2-110.3c8.8-19.4,29.1-32.2,47.1-40.1
		c-1.3-1-2.8-1.9-4.5-2.6C1031.5,453,990.7,468,975.4,495.9z"/>
	<path class="st11" d="M609.2,521.6c-11.6,6.9-23.7,13.3-36.2,19.1l17.5,54c11.8-5.7,24-12.6,36.5-20.9L609.2,521.6z"/>
	<g>
		<path class="st12" d="M278.6,534.1c12.2,6.7,23.6,6.5,33.8-0.7c14.9-10.4,25.6-33.8,28.3-58.5c-11.8,2.6-23.8,4-35.9,4.3
			c-6.8,0-13.7-0.1-20.5-0.9c-6.8-0.8-13.7-1.9-20.4-3.6c-6.8-1.7-13.1-4-19.5-6.3l-2-0.9C244.8,490.9,253.3,520.2,278.6,534.1z"/>
		<path class="st13" d="M277.5,477.4c0.1,1.1,0.2,2.2,0.4,3.3c0.9,6.9,2.2,13.8,4,20.5c1.8,6.7,4,13.3,7,19.6
			c-0.8-6.9-1.6-13.7-2.2-20.5c-0.6-6.8-1-13.6-1.3-20.3c0-0.6,0-1.1,0-1.7c-0.4,0-0.7-0.1-1.1-0.1
			C282,478.1,279.8,477.8,277.5,477.4z"/>
		<path class="st14" d="M278.6,534.1c12.2,6.7,23.6,6.5,33.8-0.7c1.7-1.2,3.4-2.6,5-4.2c-9.7,3-23.8,4-37.4-8.3
			c-17.2-15.6-21.4-36.7-22.2-47.8c-4.6-1.4-9.1-3-13.5-4.6l-2-0.9C244.8,490.9,253.3,520.2,278.6,534.1z"/>
		<g>
			<path class="st4" d="M412,430.8c-5.4,3.4-10.9,6.4-16.6,9.2c-5.7,2.7-11.5,5.2-17.4,7.5c-23.6,8.8-48.6,13.7-73.5,14.2
				c-6.5,0.1-13-0.1-19.5-0.6c-15-24.8-18.5-53.5-18.7-73.6c39.1-22.2,58.7-48.8,59.5-50c0.6-0.8,0.8-1.7,0.5-2.7
				c-0.2-0.9-0.8-1.7-1.6-2.2c-60.8-32.6-123.7-0.3-124.4,0c-0.8,0.4-1.4,1.1-1.6,2c-0.3,0.9-0.1,1.8,0.3,2.6
				c12.4,21.4,39,40.4,51.8,48.7c0,8.4,0.5,18.4,2.1,29c2.4,16,6.8,30.5,13.1,43.5c-5.5-1.2-11-2.8-16.5-4.4l-8.9-3l-8.8-3.4
				c-11.7-4.8-23-10.6-33.8-17.5c-10.7-7-21.1-14.7-30.4-24.1c3.1,5.9,7.1,11.2,11.3,16.4c4.2,5.2,9,9.9,13.9,14.5
				c10,9,21.2,16.7,33.1,23.1l0.5,0.2c1.6,27.5,10.2,68.4,44.9,87.3c9,4.9,17.2,6.8,24.5,6.8c10.6,0,19.2-4,25.4-8.3
				c19.8-13.7,33.3-44.1,35.2-75.2c9.3-2.9,18.3-6.5,27-10.7c6.1-3,12-6.4,17.6-10.1c5.6-3.7,11-7.9,16.1-12.3
				c5.1-4.5,9.7-9.4,13.8-14.7c4.1-5.3,7.8-10.9,10.5-17C432.8,415.9,422.8,424,412,430.8z M312.4,533.4
				c-10.2,7.1-21.6,7.3-33.8,0.7c-25.3-13.8-33.8-43.2-36.3-66.5l2,0.9c6.4,2.4,12.7,4.6,19.5,6.3c6.7,1.7,13.5,2.8,20.4,3.6
				c6.8,0.7,13.7,0.9,20.5,0.9c12.1-0.3,24.2-1.7,35.9-4.3C338.1,499.6,327.4,523,312.4,533.4z"/>
			<path class="st5" d="M281,328.3c-0.4,1.8,4.8,4.6,11.7,6.2c6.9,1.6,12.8,1.5,13.2-0.3c0.4-1.8-4.8-4.6-11.7-6.2
				C287.4,326.4,281.4,326.5,281,328.3z"/>
		</g>
	</g>
	<g>
		<path class="st15" d="M904.1,287.5c-3.2,0-6-2.4-6.5-5.7c-10.8-76.4-51.3-119.3-83.3-141.9c-3-2.1-3.7-6.2-1.6-9.2
			c2.1-3,6.2-3.7,9.2-1.6c34.2,24,77.3,69.7,88.8,150.8c0.5,3.6-2,6.9-5.6,7.4C904.7,287.5,904.4,287.5,904.1,287.5z"/>
		<path class="st15" d="M793.6,126.4c-1,0-2-0.2-3-0.7c-12.5-6.3-20.9-8.8-21-8.8c-3.5-1-5.5-4.6-4.5-8.1c1-3.5,4.6-5.5,8.1-4.5
			c0.4,0.1,9.6,2.8,23.3,9.7c3.2,1.6,4.5,5.6,2.9,8.8C798.3,125.1,796,126.4,793.6,126.4z"/>
	</g>
	<g>
		<path class="st15" d="M757.2,52.2c-0.4,0-0.9,0-1.3-0.1c-16-3.3-31.9-3.7-47.3-1.1c-3.6,0.6-7-1.8-7.6-5.4c-0.6-3.6,1.8-7,5.4-7.6
			c17-2.8,34.5-2.4,52.1,1.2c3.6,0.7,5.8,4.2,5.1,7.8C763,50.1,760.3,52.2,757.2,52.2z"/>
		<path class="st15" d="M668.8,64.6c-2.1,0-4.2-1-5.5-2.9c-2-3-1.2-7.1,1.8-9.1c0.2-0.1,5.6-3.7,15.1-7.5c3.4-1.3,7.2,0.3,8.5,3.7
			c1.3,3.4-0.3,7.2-3.7,8.5c-8.1,3.2-12.6,6.2-12.7,6.2C671.3,64.3,670.1,64.6,668.8,64.6z"/>
	</g>
	<g>
		<path class="st16" d="M501.3,528.9c-2.9,0-5.6-2-6.4-4.9c-0.9-3.5,1.2-7.1,4.7-8c72.6-18.7,121.2-58.3,149.1-88.2
			c2.5-2.6,6.6-2.8,9.3-0.3c2.7,2.5,2.8,6.6,0.3,9.3c-29.2,31.2-79.8,72.4-155.4,91.9C502.4,528.9,501.9,528.9,501.3,528.9z"/>
		<path class="st16" d="M671.9,417.3c-1.4,0-2.8-0.4-4-1.4c-2.9-2.2-3.4-6.3-1.2-9.2c10.2-13.3,15.1-22.2,15.1-22.3
			c1.7-3.2,5.7-4.4,8.9-2.6c3.2,1.7,4.4,5.7,2.6,8.9c-0.2,0.4-5.4,9.9-16.3,24C675.8,416.5,673.9,417.3,671.9,417.3z"/>
	</g>
	<g>
		<path class="st11" d="M660.8,535.9c-1.4,0-2.7-0.9-3.1-2.3l-5-15.4c-0.6-1.7,0.4-3.6,2.1-4.1c1.7-0.6,3.6,0.4,4.1,2.1l5,15.4
			c0.6,1.7-0.4,3.6-2.1,4.1C661.5,535.8,661.1,535.9,660.8,535.9z"/>
		<path class="st11" d="M652.8,511.5c-1.4,0-2.7-0.9-3.1-2.3l-2.3-7c-0.6-1.7,0.4-3.6,2.1-4.1c1.7-0.6,3.6,0.4,4.1,2.1l2.3,7
			c0.6,1.7-0.4,3.6-2.1,4.1C653.5,511.4,653.2,511.5,652.8,511.5z"/>
	</g>
	<g>
		<path class="st16" d="M807.5,624.7c-0.5,0-1-0.1-1.5-0.2c-7.5-1.7-15.5-3.3-23.6-4.7c-3.6-0.6-6-4-5.4-7.6c0.6-3.6,4-6,7.6-5.4
			c8.4,1.4,16.6,3,24.4,4.8c3.5,0.8,5.7,4.4,4.9,7.9C813.2,622.6,810.5,624.7,807.5,624.7z"/>
		<path class="st16" d="M941.4,737.2c-3.6,0-6.6-2.9-6.6-6.5c0-2.7-1.8-65-100.1-98.1c-3.4-1.2-5.3-4.9-4.1-8.3
			c1.2-3.4,4.9-5.3,8.3-4.1c107.8,36.2,109.1,107.5,109.1,110.5C947.9,734.2,945,737.2,941.4,737.2z"/>
	</g>
	<g>
		<path class="st16" d="M693.7,924.6c-0.3,0-0.5,0-0.8,0c-3.6-0.4-6.2-3.7-5.8-7.3c3.2-27.7,3.8-55.8,1.9-83.7
			c-0.2-3.6,2.5-6.8,6.1-7c3.6-0.3,6.8,2.5,7,6.1c1.9,28.7,1.3,57.6-2,86.1C699.8,922.1,697,924.6,693.7,924.6z"/>
		<path class="st16" d="M692.7,810.6c-3.2,0-6.1-2.4-6.5-5.7c-1.7-12.1-3.3-19.1-3.3-19.1c-0.8-3.5,1.4-7.1,4.9-7.9
			c3.5-0.8,7.1,1.4,7.9,4.9c0.1,0.3,1.7,7.6,3.5,20.3c0.5,3.6-2,6.9-5.6,7.4C693.3,810.6,693,810.6,692.7,810.6z"/>
	</g>
	<g>
		<path class="st16" d="M931.1,926.1c-0.2,0-0.3,0-0.5,0c-3.6-0.3-6.3-3.4-6.1-7.1c2.2-29-2.6-62.3-7-85.1c-0.7-3.6,1.6-7,5.2-7.7
			c3.6-0.7,7,1.6,7.7,5.2c6.6,34.3,9.1,64.1,7.2,88.6C937.4,923.4,934.5,926.1,931.1,926.1z"/>
		<path class="st16" d="M919.2,817c-3,0-5.7-2-6.4-5.1c-3.1-12.9-5.5-21.2-5.6-21.3c-1-3.5,0.9-7.1,4.4-8.2c3.5-1.1,7.1,0.9,8.2,4.4
			c0.1,0.3,2.6,8.7,5.8,22.1c0.8,3.5-1.3,7.1-4.9,7.9C920.3,816.9,919.8,817,919.2,817z"/>
	</g>
	<path class="st9" d="M904.7,1000.9c5.7-2.9,11-6.8,15.8-11.4c-12.5,5.8-16.9-3.7-16.9-3.7c-8.3-25.7-5.3-84.1-22.2-116.8
		c-22.7-43.8-78.9-107.4-51.1-149.8c19.6-30-11.9-27.8-33.4-7.6c0,0,0,0,0,0c-0.1,0.2-0.2,0.3-0.4,0.5c0,0.1-0.1,0.1-0.1,0.2
		c-0.1,0.2-0.2,0.3-0.3,0.5c-0.1,0.1-0.2,0.3-0.3,0.4c-0.1,0.2-0.2,0.3-0.3,0.5c-0.1,0.2-0.3,0.4-0.4,0.7c-0.1,0.1-0.2,0.3-0.3,0.4
		c-0.2,0.3-0.4,0.6-0.5,1c-0.1,0.1-0.1,0.2-0.2,0.3c-1,1.9-2.2,4.2-3.3,6.9c0,0.1-0.1,0.1-0.1,0.2c-0.3,0.6-0.5,1.2-0.8,1.8
		c-0.1,0.1-0.1,0.3-0.2,0.4c-0.2,0.6-0.5,1.2-0.7,1.8c-0.1,0.2-0.1,0.3-0.2,0.5c-0.2,0.6-0.4,1.2-0.7,1.8c-0.1,0.2-0.1,0.4-0.2,0.6
		c-0.2,0.6-0.4,1.3-0.6,1.9c-0.1,0.2-0.1,0.4-0.2,0.6c-0.2,0.7-0.4,1.3-0.6,2c-0.1,0.2-0.1,0.4-0.2,0.7c-0.2,0.7-0.4,1.4-0.5,2.1
		c-0.1,0.2-0.1,0.4-0.2,0.6c-0.2,0.8-0.4,1.5-0.5,2.3c0,0.2-0.1,0.3-0.1,0.5c-0.2,0.9-0.4,1.8-0.5,2.7c0,0.1,0,0.1,0,0.2
		c-0.5,3.1-0.9,6.3-1.1,9.7c0,0.2,0,0.5,0,0.7c0,0.9-0.1,1.8-0.1,2.7c0,0.3,0,0.7,0,1c0,0.8,0,1.6,0,2.4c0,0.4,0,0.8,0,1.2
		c0,0.8,0.1,1.5,0.1,2.3c0,0.5,0.1,0.9,0.1,1.4c0.1,0.7,0.1,1.5,0.2,2.2c0.1,0.5,0.1,1,0.2,1.5c0.1,0.7,0.2,1.5,0.3,2.2
		c0.1,0.5,0.2,1,0.3,1.5c0.1,0.7,0.3,1.5,0.4,2.2c0.1,0.5,0.2,1,0.3,1.6c0.2,0.8,0.4,1.5,0.5,2.3c0.1,0.5,0.3,1.1,0.4,1.6
		c0.2,0.8,0.5,1.6,0.7,2.4c0.2,0.5,0.3,1,0.5,1.5c0.3,0.9,0.6,1.8,0.9,2.7c0.2,0.4,0.3,0.9,0.5,1.3c0.5,1.3,1,2.7,1.6,4.1
		c8.5,20.4,19.3,39.6,29.6,58.3c14.7,26.3,28.5,51.2,34.9,76.7c4.7,18.7,3.1,34.8,1.8,47.7c-1.9,19.1-2,25.4,9.7,29.4
		C878.5,1008.8,892,1007.5,904.7,1000.9z"/>
	<g>
		<path class="st17" d="M314.9,522.9c-0.7,0-1.4-0.2-2-0.7c-1.4-1.1-1.7-3.2-0.5-4.6c4.6-5.8,8.2-12.4,10.8-19.6
			c0.6-1.7,2.5-2.6,4.2-2c1.7,0.6,2.6,2.5,2,4.2c-2.8,7.9-6.8,15.1-11.8,21.5C316.8,522.5,315.8,522.9,314.9,522.9z"/>
		<path class="st17" d="M328.7,493.4c-0.2,0-0.5,0-0.7-0.1c-1.8-0.4-2.9-2.1-2.5-3.9c0.8-3.6,0.9-5.9,0.9-5.9
			c0.1-1.8,1.6-3.2,3.5-3.1c1.8,0.1,3.2,1.7,3.1,3.5c0,0.1-0.2,2.7-1,6.9C331.6,492.4,330.2,493.4,328.7,493.4z"/>
	</g>
	<g>
		<path class="st16" d="M541.9,84.5c-0.8,0-1.6-0.1-2.4-0.5c-9.2-3.6-20.8-6.5-34.6-8.6c-3.6-0.5-6.1-3.9-5.5-7.5
			c0.5-3.6,3.9-6.1,7.5-5.5c14.7,2.2,27.4,5.4,37.5,9.4c3.4,1.3,5,5.2,3.7,8.5C547,83,544.5,84.5,541.9,84.5z"/>
		<path class="st16" d="M484.8,73.2c-0.2,0-0.3,0-0.5,0c-8.2-0.6-13.7-0.7-13.7-0.7c-3.6,0-6.5-3-6.5-6.7c0-3.6,3-6.5,6.6-6.5
			c0,0,0.1,0,0.1,0c0.2,0,5.9,0.1,14.5,0.7c3.6,0.3,6.3,3.4,6.1,7.1C491.1,70.6,488.2,73.2,484.8,73.2z"/>
	</g>
	<path class="st7" d="M1073.9,509.4c4.4-13.9,11.5-47.7-16.7-59.7c-28.6-12.2-75.7,7.9-93.2,39.9c-10.1,18.4-17.6,42.5-25.6,67.9
		c-6.9,22.2-14,44.8-22.9,63.6c-41.1-28.5-95.4-38.4-145.2-47.4c-20.6-3.7-40.1-7.3-57.7-11.9c-12.6-3.3-23.4-8-32.7-13.3
		c0,0,0,0,0,0c0,0,0,0,0,0l0,0c0.6-0.5,1.2-1,1.7-1.6c4.8-4.6,6.7-11.4,4.8-17.7L670.2,475c5.8-5.6,11.3-11.4,16.4-17.4
		c16.2-18.7,29-38.7,38.3-59.6c19.4,21.1,46.4,33.1,80.6,35.6c2.1,0.2,4.2,0.2,6.3,0.2c39.1,0,79.4-26,105.3-67.9
		c34-55,33.7-122.2-0.6-179.6c-38.4-64.3-91.5-95.7-133.1-111c3.7-3.1,6.7-6.6,9.1-10.1c6.7-10.1,7.6-21.5,2.6-31.3
		c-7.9-15.3-29-23.6-62.7-24.6c-54-1.6-106.3,24.3-141.9,47.5c-46.7-22.5-101.2-30.1-157-22.7c-6.8-6.7-16.3-13.9-29.6-20.6
		c-13-6.5-27.3-6.1-40.1-4.1c-25.5,4.1-28.8,19.7-28.9,27.4c-30-15.1-65.6-27.5-102.2-27.5c-1.6,0-3.3,0-4.9,0.1
		c-33.7,1-54.7,9.3-62.7,24.6c-5.1,9.8-4.1,21.2,2.6,31.3c2.4,3.6,5.4,7,9.1,10.1c-41.7,15.3-94.7,46.7-133.1,111
		C9.3,243.8,9.1,310.9,43,366c24.6,39.9,62.4,65.4,99.7,67.7c1.8,9.3,4.5,18.8,8.2,28.3c15.4,39.5,60.8,107.5,191.4,118.2
		c12.9,1.1,25.9,1.6,38.7,1.6c16.8,0,33.5-0.9,49.9-2.7l20.9,44.7c2.6,5.5,7.6,9.2,13.6,10c0.8,0.1,4.4,0.5,10.1,0.7c0,0,0,0-0.1,0
		c2.8,26.5,8,53.1,15.6,78.4c-4.1,13.6-7.3,33-4.3,56.4c1.9,14.7,5.2,32,8.6,50.3c6.6,34.9,14.1,74.5,10.1,91.1
		c-1.7,7-3.7,13.3-5.5,18.8c-5,15.7-9.3,29.3,0.2,42.6c4.9,6.8,15,11.3,28.4,12.5c2.4,0.2,4.9,0.3,7.6,0.3c18.7,0,43.8-6,62.1-23.3
		c3-2.8,5.7-6.6,8.2-11.2c-1.4,5.1-2.9,9.8-4.2,14.1c-5,15.7-9.3,29.3,0.2,42.6c4.9,6.8,15,11.3,28.4,12.5c2.4,0.2,4.9,0.3,7.6,0.3
		c18.7,0,43.8-6,62.1-23.3c15.4-14.6,24-54.4,27.5-98.5c3.2,0.5,6.4,1,9.7,1.4c3,14.8,1.7,27.7,0.6,39.2
		c-1.8,18.3-3.6,35.5,18.5,43.2c5.9,2,12.1,3,18.3,3c10,0,20.2-2.5,30-7.6c15.6-8,28.7-21.7,38.4-39.7c2.2,13.5,1.1,25.4,0,36.1
		c-1.8,18.3-3.6,35.5,18.5,43.2c5.9,2,12.1,3,18.3,3c10,0,20.2-2.5,30-7.6c22.4-11.5,39.8-34.8,49.1-65.7c7.5-25,7.9-61.2,1.2-107.9
		c-0.6-4.1-1.4-8.1-2.3-11.9c0.2-0.3,0.4-0.6,0.5-0.9c26.1-45.9,27.2-104.2,2.7-152.3c-0.6-1.2-1.2-2.3-1.8-3.4
		c31.4-4.2,57.7-15,76.6-31.5c18.6-16.2,24.5-29.2,17.7-38.4c-6.4-8.8-21.6-8.9-33.9-7.3C1039.8,575.8,1061.5,548.7,1073.9,509.4z
		 M720.5,392.8c0,0,0.1,0.1,0.1,0.1C720.5,392.9,720.5,392.8,720.5,392.8z M611.1,59.4c51-30.2,91-37,116.6-37c1.5,0,2.9,0,4.3,0.1
		c28.1,0.9,45.9,6.9,51.4,17.5c3.6,7,1,13.6-1.9,18c-3.3,5-8.8,9.8-15.8,13.7l-13.4,7.5l14.6,4.6c40.9,12.8,98,42.1,138.2,109.4
		c31.8,53.2,32,115.2,0.7,166c-23.5,38.1-59.5,61.7-94.1,61.7c-1.8,0-3.6-0.1-5.3-0.2c-79-5.9-97.6-62.7-105.5-117.5
		c-8.3-58.4-64.2-173.8-145.8-195.8c-1.3-0.3-2.3-1.4-2.6-2.6c-0.3-1.3,0.1-2.6,1.1-3.5C554.7,100.2,577.5,79.3,611.1,59.4z
		 M141.5,426.7c0,0.2,0.1,0.4,0.1,0.7C141.6,427.2,141.6,426.9,141.5,426.7z M140.7,420.4c-32.1-3.2-64.7-26-86.4-61.3
		c-31.3-50.8-31.1-112.8,0.7-166c40.2-67.3,97.4-96.7,138.2-109.4l14.6-4.6l-13.4-7.5c-7-3.9-12.5-8.6-15.8-13.7
		c-2.9-4.3-5.5-11-1.9-18c5.5-10.6,23.3-16.7,51.4-17.5c1.5,0,3-0.1,4.6-0.1c38.5,0,76.2,14.7,106.5,31.4c0.9,1.9,2,3.8,3.2,5.6
		c-76.1,34-111.8,96.4-128.5,143.9c-15.8,45.1-17.7,84.3-17.9,96.9c-11.5,6-21.4,13.2-29,21.4C148.4,341.8,136.2,379,140.7,420.4z
		 M343.4,567.1c-53-4.4-146.9-24.5-180.3-109.9c-14.9-38.1-15.2-95.5,13.6-126.8c21.1-23,64.3-37.1,113-37.1c0.6,0,1.3,0,1.9,0
		c62.5,0.5,120,23.3,153.7,61.1c0,0-30.8-72.8-153.6-74.3c-30.7-0.4-59.1,4.7-82.4,13.9c0.7-15.3,3.7-46.6,15.4-81.8
		c0,0,7.3-23.6,17.1-40.7c24.5-47,61-81.1,109.1-101.6c3.3,3.3,6.9,6.4,10.7,9c-11.9,4-25.2,12.2-32.5,28.4
		c-5.4,12.1-0.5,24.9,12.8,33.5c8.3,5.4,21,9.3,35.8,9.3c54.6-1.2,68.6-47.8,68.6-47.8c-35.3,39.5-78.2,39.8-97.3,27.4
		c-3.6-2.3-12.3-9-7.9-17.1c13.8-25.5,45.1-34.2,45.1-34.2c-18.9-1.9-37.9-26.6-38.3-41.1c-0.2-8.1,5.8-13.1,17.8-15
		c44-7,83.5,36.9,83.9,37.3c0,0-1.1-5.6-6.3-13.6c47.6-5,93.8,1.5,134.3,19.3c0,0,0,0,0,0c-19.4,13.7-31.6,24.8-32.9,26
		c-4.5,4.1-6.4,10.4-4.9,16.3c1.5,5.9,6,10.6,11.9,12.2c76,20.5,128.3,129.7,136.2,185c3.3,22.8,9.7,56.1,28.2,82.4
		c-0.2-0.3-0.4-0.6-0.6-1c-9,22.1-21.9,43.1-38.9,62.7c-34.9,40.4-85,72.8-144.8,94C472.4,564,407.2,572.4,343.4,567.1z
		 M478.4,634.6c1,0,2,0,3.1,0C480.5,634.6,479.4,634.6,478.4,634.6z M467.3,620.8c-1.5-0.2-2.8-1.1-3.4-2.5l-19.1-40.8
		c82.9-11.2,159.7-43.8,214.7-92.5l14.2,47.9c0.5,1.6,0,3.3-1.2,4.4c-80.2,75.9-160.3,84.1-190.9,84.1
		C472.9,621.5,467.8,620.8,467.3,620.8z M589.5,952.2c-17.7,16.8-43.1,21-59.3,19.4c-11-1-17.1-4.5-19-7.1c-5.5-7.6-3.3-15.4,1.6-31
		c1.8-5.8,3.9-12.3,5.7-19.7c4.6-19.3-2.8-58.6-9.9-96.6c-3.4-18.1-6.6-35.2-8.5-49.6c-1.4-11-1.3-21-0.3-29.8
		c4.9,12.8,10.5,25.1,16.9,36.6c18.6,33.5,47.1,59.9,81.2,79.9c0,0.1,0.1,0.3,0.1,0.4c3.4,17.8,7,36.9,9.1,53.5
		C602.5,929.9,596.4,945.6,589.5,952.2z M799.5,965.9c-12.7,6.5-26.3,7.9-38.1,3.8c-11.7-4-11.6-10.3-9.7-29.4
		c1.1-10.8,2.4-23.9,0-38.9c16.3,1.7,32.5,2.5,48.5,2.5c10,0,20-0.3,29.7-1c0.9-0.1,1.7-0.2,2.5-0.2c2.3,5.2,4.4,10.3,6.2,15.4
		C829.9,940.5,816.2,957.3,799.5,965.9z M953,809.8c-7.5-18.2-16.8-29.7-16.8-29.7c0.3,1.1,27.7,107.5,11,163.1
		c-8.2,27.5-23.3,48-42.5,57.8c-12.7,6.5-26.3,7.9-38.1,3.8c-11.7-4-11.6-10.3-9.7-29.4c1.3-12.9,2.9-29-1.8-47.7
		c-6.4-25.6-20.3-50.4-34.9-76.7c-10.4-18.6-21.1-37.9-29.6-58.3c-18.9-45.2,6-80.5,7.1-82c0,0-42.6,27.6-19.2,87
		c8.4,21.3,19.7,40.6,30.3,59.6c6.2,11.1,12.2,22,17.6,32.6c-34.9,2.1-67.4,0.4-97.1-4.2c0.8-14.6,1.1-29.4,0.9-43.7
		c-0.7-53.3-21-70.8-21-70.8c7.3,29.7,9.9,77.8,6.7,122.7c-3.3,46.7-12.6,82.5-24,93.4c-17.7,16.8-43.1,21-59.3,19.4
		c-11-1-17.1-4.5-19-7.1c-5.5-7.6-3.3-15.4,1.6-31c1.8-5.8,3.9-12.3,5.7-19.8c4.6-19.3-2.8-58.6-9.9-96.6
		c-3.4-18.1-6.6-35.2-8.5-49.6c-5.4-41.6,11.4-69.5,11.6-69.8l-5.6-3.5l5.6,3.5c0,0-30.6,25-24.6,71.5c1.2,9.7,3.1,20.4,5.2,31.8
		c-30.4-20.1-52.8-43.8-66.3-68.1c-21.6-39-34.2-86.6-39.4-133.6c0,0,0,0,0,0c34.5-1.3,106.8-12.5,180.8-76.7c0,0,0,0,0,0
		c11,6.8,24.1,12.6,39.6,16.8c18.1,4.8,37.8,8.4,58.7,12.1c69.6,12.6,148.6,26.9,182.4,93.3C971,720.7,971.8,769.4,953,809.8z
		 M1043.8,608.5c0.2,0.2,0.2,0.7,0,1.6c-0.7,2.7-4,8.9-15.8,19.2c-22,19.3-51.6,26.5-75.4,29.1c-7.7-11.2-16.6-20.9-26.6-29.1
		c9.9-20.2,17.4-44.2,24.8-67.8c7.7-24.8,15.1-48.2,24.6-65.5c15.3-27.9,56.1-42.9,76.5-34.1c16.8,7.2,14.4,27.7,9.3,43.7
		c-18.4,58.5-83.5,108.5-83.5,108.5S1040.2,603.6,1043.8,608.5z"/>
	<g>
		<path class="st4" d="M226.2,151.4c2.2-3.8,5.1-6.8,8.3-9.6c3.2-2.7,6.7-5,10.5-7c7.5-3.8,16-6.1,24.7-6.3c4.3-0.1,8.7,0.3,13,1.2
			c4.3,1,8.4,2.4,12.3,4.3c7.7,4,14.3,9.8,18.3,17.3c-8.4-1.6-15.6-3.3-22.7-4.2c-3.5-0.4-6.9-0.8-10.3-1c-3.4-0.1-6.8-0.2-10.2-0.1
			c-6.8,0.2-13.7,0.8-20.9,1.8C242,148.9,234.7,150.2,226.2,151.4z"/>
		<path class="st4" d="M504.1,151.4c-8.4-1.2-15.8-2.5-23-3.5c-7.2-1-14.1-1.7-20.9-1.8c-3.4-0.1-6.8,0-10.2,0.1
			c-3.4,0.2-6.8,0.5-10.3,1c-7,0.9-14.2,2.6-22.7,4.2c4-7.6,10.7-13.3,18.3-17.3c3.9-2,8-3.4,12.3-4.3c4.3-0.9,8.7-1.3,13-1.2
			c8.7,0.2,17.2,2.5,24.7,6.3c3.8,1.9,7.3,4.2,10.5,7C499,144.6,501.9,147.6,504.1,151.4z"/>
	</g>
	<g>
		<path class="st16" d="M1006.6,566.2c-1.3,0-2.7-0.5-3.7-1.5c-2.2-2.1-2.3-5.5-0.2-7.7c11.4-12.1,21-25.7,28.7-40.4
			c1.4-2.7,4.7-3.7,7.4-2.3c2.7,1.4,3.7,4.7,2.3,7.4c-8.2,15.5-18.4,29.9-30.4,42.8C1009.5,565.6,1008,566.2,1006.6,566.2z"/>
		<path class="st16" d="M1044.2,507.1c-0.7,0-1.3-0.1-2-0.4c-2.8-1.1-4.2-4.3-3.1-7.1c2.7-7,3.8-11.4,3.8-11.4
			c0.7-2.9,3.7-4.7,6.6-4c2.9,0.7,4.7,3.7,4,6.6c0,0.2-1.2,5-4.3,12.8C1048.4,505.8,1046.4,507.1,1044.2,507.1z"/>
	</g>
</g>
</svg>
