<?xml version="1.0" encoding="utf-8"?>
<!-- Generator: Adobe Illustrator 24.2.0, SVG Export Plug-In . SVG Version: 6.00 Build 0)  -->
<svg version="1.1" id="Layer_1" xmlns="http://www.w3.org/2000/svg" xmlns:xlink="http://www.w3.org/1999/xlink" x="0px" y="0px"
	 viewBox="0 0 923 1024" style="enable-background:new 0 0 923 1024;" xml:space="preserve">
<style type="text/css">
	.st0{fill:#FECACF;}
	.st1{opacity:0.4;fill:#FECACF;}
	.st2{fill:#E88E9B;}
	.st3{fill:#EF9EAA;}
	.st4{fill:#4C0D19;}
	.st5{fill:#B25063;}
	.st6{opacity:0.4;fill:#E88E9B;}
	.st7{fill:#FFFFFF;}
	.st8{fill:none;stroke:#FCA7B8;stroke-width:1.565;stroke-linecap:round;stroke-linejoin:round;stroke-miterlimit:10;}
	.st9{fill:#FFE3E8;}
</style>
<g>
	<path class="st0" d="M304.9,681.8c0.9,0,1.8,0,2.8-0.1c1.8-0.1,3.7-0.1,5.5-0.2c1.4-0.1,2.8-0.1,4.2-0.2c1.7-0.1,3.4-0.2,5.1-0.3
		c1.6-0.1,3.2-0.2,4.8-0.3c1.6-0.1,3.2-0.2,4.7-0.4c1.9-0.2,3.9-0.3,5.8-0.5c1.3-0.1,2.6-0.2,3.9-0.4c3.3-0.3,6.6-0.7,9.9-1.1
		c4-0.5,8-1,12-1.6c1.5-0.2,2.9-0.4,4.4-0.7c2.5-0.4,4.9-0.7,7.4-1.1c1.9-0.3,3.8-0.6,5.6-1c2-0.3,4-0.7,6-1.1
		c2.1-0.4,4.3-0.8,6.4-1.2c1.7-0.3,3.3-0.7,5-1c2.4-0.5,4.7-1,7-1.5c1.3-0.3,2.6-0.6,4-0.9c2.6-0.6,5.2-1.2,7.8-1.8
		c0.9-0.2,1.7-0.4,2.6-0.6c24.5-6.1,48.2-13.9,70.9-23.1c0.2-0.1,0.4-0.1,0.5-0.2c3.2-1.3,6.3-2.6,9.4-3.9c0.2-0.1,0.4-0.2,0.6-0.3
		c3.1-1.4,6.2-2.7,9.3-4.1c0.1,0,0.2-0.1,0.3-0.1c12.1-5.5,23.8-11.5,35.2-17.9c0.8-0.5,1.6-0.9,2.4-1.4c1.8-1,3.5-2,5.2-3
		c1.5-0.9,3-1.8,4.5-2.7c1.4-0.9,2.8-1.7,4.2-2.6c1.8-1.1,3.6-2.3,5.4-3.4c1.2-0.7,2.3-1.5,3.4-2.2c2.1-1.3,4.1-2.7,6.1-4.1
		c0.9-0.6,1.8-1.2,2.7-1.8c2.3-1.6,4.6-3.2,6.9-4.8c0.6-0.4,1.2-0.9,1.8-1.3c2.7-2,5.4-4,8.1-6c0.1-0.1,0.3-0.2,0.4-0.3
		c11.7-9,22.7-18.6,32.9-28.5c0.1-0.1,0.3-0.3,0.4-0.4c2.3-2.2,4.5-4.5,6.7-6.7c0.5-0.5,1-1,1.5-1.6c1.8-1.9,3.5-3.7,5.2-5.6
		c0.8-0.9,1.5-1.7,2.3-2.6c8.9-10.1,17.1-20.5,24.4-31.3C710.2,447,723.3,381,710,309.2c-2,0.1-4,0.2-5.9,0.2
		c-11,0-21.4-1.8-29.3-4.5c-21.5-7.5-76.5-34.7-126.7-69.7c-12.9-9-23.7-17.5-32.8-25.4c-34.9-9.2-47.8-32.1-47.8-32.1
		c9.1,6.2,19.2,10.6,28.6,13.7c-26.2-28-27.8-44.7-27.8-44.7c41.1,60.1,175.6,133.3,210.8,145.6c19,6.6,54.5,5.6,71.5-13.5
		c14.8-16.6,13.4-44.4-4-80.3C683.4,68.1,616.5,15.1,529.7,26.8C427.8,40.5,418,83.8,417.9,84.3c0,0-7.8-26,26.2-45.4
		c-19.8-3.7-39.7-5.6-59.4-5.6c-64.9,0-128,19.8-180.2,58.2c-63.4,46.7-103.8,113.6-120,199c-13,68.6-6.5,129-3.8,154.8
		c1.1,10.6,1.4,12.8,0.4,15.1c-22.3,57-18,108,12.5,147.3c35.1,45.4,101.6,71.4,184.6,74l1.3,0c1.3,0,2.6,0.1,3.9,0.1
		c2.2,0,4.4,0.1,6.7,0.1c0.4,0,0.8,0,1.2,0C295.8,681.9,300.4,681.9,304.9,681.8z M202.6,126.3c1.2-4.4,3.3-8.4,5.9-12
		c5.3-7.1,12.5-12.3,20.1-15.9c-7,4.8-13.2,10.7-17.3,17.7c-4.2,7-5.6,15.2-3.8,22.7c1.8,7.4,7,13.8,13.8,15.2
		c6.8,1.6,14.7-1.2,17.3-6.7l6.2-13.3l1.9,14.9c0.3,2.8,1.5,5.4,3.3,7.7c1.9,2.3,4.3,4.2,7,5.8c5.5,3.1,12,4.4,18.6,4.1
		c6.5-0.3,12.8-2.3,17.5-6.1c4.8-3.8,8.1-9.5,8.5-15.3l0.8-13.6l7.6,11.2c2,3,5.6,5.2,9.6,6c4,0.8,8.2,0.1,12-1.8
		c3.8-2,7.2-5,9.8-8.7c2.6-3.7,4.5-8,5.4-12.5c2.1-9.1,0.5-19.1-4.7-27.2c-5.2-8.1-13.7-14.4-23.5-16.8c10.1,0.8,20.1,6.2,26.7,14.5
		c6.8,8.3,9.5,19.8,8,30.6c-1.6,10.8-7.6,21.5-17.8,27.3c-7.7,4.6-18.4,4.9-26.5-0.1c-2,5.4-5.5,10.2-9.9,13.7
		c-6.6,5.5-15,8-23.1,8.2c-4.1,0.1-8-0.2-12.1-1.1c-4-0.9-7.9-2.4-11.5-4.5c-3.6-2.1-6.9-4.9-9.6-8.3c-1-1.3-1.8-2.7-2.5-4.2
		c-1.9,1.4-4.1,2.4-6.2,3.2c-4.9,1.5-10,1.5-14.8,0.1c-2.4-0.7-4.7-1.8-6.8-3.2c-2.1-1.5-3.8-3.2-5.3-5.1c-3-3.9-4.7-8.4-5.4-13
		C201.2,135.4,201.4,130.8,202.6,126.3z M333.5,370.6c-2.8,0.1-5.5,0-8.2,0c-1.4,0-2.7-0.1-4-0.1l-4,0.2l-7.9,0.2
		c-2.6,0.2-5.3,0.5-7.9,0.6c-10.4,1-20.7,2.4-30.9,4.8c-10.2,2.3-20.3,5-30.4,8.2c-10.1,3.2-20.2,6.7-30.6,10.4
		c7.8-8,17.2-14.1,27-19.2c9.9-5,20.5-8.8,31.4-11.2c10.9-2.6,22.3-3.2,33.4-2.5c2.8,0.3,5.6,0.6,8.3,1c2.8,0.5,5.5,1.2,8.2,1.9
		l4,1.1c1.3,0.5,2.6,1,3.9,1.5C328.5,368.3,331.1,369.4,333.5,370.6z M280,609.3c-25.5,0-49.8-5.2-70.8-15.4
		c-10.5-5.1-19.7-11.2-27.5-18.2c-7.3,6.4-16.1,11-25.3,13.4c-5.8,1.6-11.8,2.1-17.7,2c-2.9,0-5.8-0.3-8.7-0.7
		c-1.4-0.2-2.9-0.5-4.3-0.8c-1.4-0.3-2.8-0.5-4.2-1c-11.1-3-21.3-7.9-30.3-14.4c10.5,3.6,21,6.5,31.6,7.4c5.3,0.4,10.5,0.5,15.6-0.1
		c5.1-0.6,10.1-1.6,14.7-3.4c7.2-2.7,13.8-6.8,19.3-12c-10.1-11.8-16.8-25.4-19.5-40.3c-2.7-15-1.1-30.1,4.1-44.4
		c-6-2.2-12.3-3.9-18.8-5.2c-10.5-2.2-21.4-3.3-32.5-3.9c10.8-2.6,22-3.4,33.3-3.1c7.2,0.3,14.6,1.1,21.8,2.9
		c18.1-37.6,61.2-68.8,115.3-78.7c37.7-6.9,75.3-2.6,105.7,12.2c16.6,8,29.9,18.7,39.7,31.2c2.6-2.9,5.4-5.6,8.4-7.9
		c9.5-7.2,20.3-11.7,31.1-14.8c10.9-3,21.9-4.9,33.1-5c-10.6,3.3-20.9,7-30.6,11.6c-9.7,4.6-18.9,10-26.3,16.9
		c-3.7,3.4-6.8,7.2-9.1,11.3c-2.3,4.1-3.8,8.4-4.3,13c-1,9.4,0.7,19.4,4.7,28.2c4,8.8,10.3,16.7,18.1,22.5c7.8,5.9,17.2,9.5,27,10.6
		c4.9,0.6,10,0.4,15.1-0.3c5.1-0.6,10.2-2,15.1-3.7c10-3.4,19.6-8.8,28.9-14.8c-7.2,8.5-15.9,15.7-26,21.3c-1.2,0.8-2.5,1.3-3.9,1.9
		c-1.3,0.6-2.6,1.3-4,1.8c-2.7,1-5.5,2.1-8.3,2.8c-5.7,1.5-11.6,2.4-17.6,2.3c-12-0.1-24.3-3.8-34.4-10.8c-1.8-1.2-3.5-2.6-5.2-4
		c-15.7,40.9-60.8,75.6-118.5,86.1C303.2,608.2,291.5,609.3,280,609.3z"/>
	<path class="st0" d="M193.8,83c-15.2,1.9-33.6,6-55.7,13.7C55.5,125.7,20,203.3,22.9,348.2c0.8,39.9,12.2,65.3,32.9,73.4
		c3.1,1.2,6.3,1.9,9.5,2.4c-2.6-31.7-4.3-81.2,6.1-136C88,200.6,129.2,131.6,193.8,83z"/>
	<path class="st1" d="M193.8,83c-15.2,1.9-33.6,6-55.7,13.7C55.5,125.7,20,203.3,22.9,348.2c0.8,39.9,12.2,65.3,32.9,73.4
		c3.1,1.2,6.3,1.9,9.5,2.4c-2.6-31.7-4.3-81.2,6.1-136C88,200.6,129.2,131.6,193.8,83z"/>
	<path class="st2" d="M423.1,509.2c-3.1-4-5.8-8.4-7.9-13.1c-5-11.2-7-23.8-5-36.1c0.6-3.9,1.9-7.7,3.5-11.2
		c-8.6-12.6-21.4-23.2-37.7-31.1c-19.2-9.3-41.5-14.1-65-14.1c-10.7,0-21.6,1-32.6,3c-71.5,13.1-122,65.5-112.6,116.9
		c4.5,24.5,21.9,45.3,49.1,58.5c27.9,13.5,62.5,17.5,97.5,11.1C368.5,582.8,411.6,548.4,423.1,509.2z M251,564
		c-14.4,2.7-30.8-20.4-36.5-51.6c-5.7-31.1,1.3-58.5,15.7-61.2c14.4-2.7,30.8,20.4,36.5,51.6C272.4,533.9,265.4,561.3,251,564z
		 M345.1,550.7c-14.4,2.7-30.8-20.4-36.5-51.6c-5.7-31.1,1.3-58.5,15.7-61.2c14.4-2.7,30.8,20.4,36.5,51.6
		C366.6,520.6,359.5,548,345.1,550.7z"/>
	<path class="st3" d="M365.8,852.3c-3-3.2-6-6.5-8.9-9.9c4.4,66.1,11.9,114.9,19.4,120.5c16.6,4.2,27.8-29.4,27.9-29.8
		c0.8-2.6,3.1-4.4,5.8-4.6c2.7-0.2,5.2,1.2,6.5,3.6c5,9.9,15.3,25.8,24.5,31.8c-2.4-15.4-4.4-35.5-5.6-62
		C408.4,889.2,385,872.6,365.8,852.3z"/>
	<path class="st3" d="M691.3,919.8c-5,1.1-9.9,2.2-14.9,3.2c-28.4,6-52.3,8.7-69.8,9.7c4.6,24.9,8.8,29.5,9.7,30.3
		c16.6,4.1,27.8-29.4,27.9-29.8c0.8-2.6,3.1-4.4,5.8-4.6c0.2,0,0.3,0,0.5,0c2.5,0,4.8,1.4,5.9,3.7c5.7,11.4,18.5,30.7,28.4,33.8
		c1.9,0.6,3.5,0.5,5-0.4c0.1,0,2.4-1.8,5.6-11.8c-1.2-8.8-2.4-18.9-3.6-30.6L691.3,919.8z"/>
	<path class="st0" d="M811.8,605.5c-45.9-51.9-110-59.2-155.5-59.7c-22,24.8-48.7,47.3-78.9,66.8c-0.1,0.1-0.3,0.2-0.4,0.3
		c-3,1.9-6,3.8-9,5.7c-0.6,0.3-1.1,0.7-1.7,1c-2.6,1.6-5.2,3.1-7.9,4.7c-0.9,0.5-1.7,1-2.6,1.5c-2.4,1.4-4.7,2.7-7.1,4
		c-1.1,0.6-2.2,1.2-3.3,1.8c-2.1,1.2-4.3,2.3-6.5,3.4c-1.3,0.7-2.7,1.4-4,2.1c-1.6,0.8-3.1,1.6-4.7,2.3c-4.5,2.2-9,4.4-13.6,6.5
		c-0.5,0.2-1,0.5-1.6,0.7c-2.7,1.2-5.4,2.4-8.1,3.6c-0.8,0.3-1.5,0.7-2.3,1c-2.7,1.2-5.4,2.3-8.1,3.4c-0.8,0.3-1.6,0.6-2.3,1
		c-2.8,1.1-5.5,2.2-8.3,3.3c-0.7,0.3-1.4,0.5-2.1,0.8c-2.9,1.1-5.8,2.2-8.7,3.2c-0.6,0.2-1.1,0.4-1.7,0.6c-3.1,1.1-6.2,2.2-9.3,3.2
		c-0.1,0-0.2,0.1-0.4,0.1c-13.3,4.4-26.9,8.4-40.7,11.8c-0.9,0.2-1.9,0.5-2.8,0.7c-2.5,0.6-5.1,1.2-7.6,1.8c-1.5,0.3-2.9,0.7-4.4,1
		c-2.3,0.5-4.6,1-6.9,1.5c-1.8,0.4-3.6,0.7-5.4,1.1c-2.1,0.4-4.2,0.8-6.3,1.2c-2.1,0.4-4.2,0.8-6.2,1.1c-1.9,0.3-3.8,0.7-5.7,1
		c-2.5,0.4-5,0.8-7.5,1.2c-1.5,0.2-3,0.5-4.6,0.7c-4.1,0.6-8.1,1.1-12.2,1.6c-5.3,0.6-10.6,1.2-15.8,1.6c-1.7,0.2-3.3,0.2-5,0.4
		c-3.5,0.3-7,0.6-10.5,0.8c-2.4,0.1-4.8,0.2-7.2,0.3c-2.7,0.1-5.4,0.3-8,0.4c-2.9,0.1-5.8,0.1-8.7,0.1c-1.8,0-3.7,0.1-5.5,0.1
		c-0.3,0-0.5,0-0.8,0c-0.4,0-0.8,0-1.2,0c19.7,58.6,49.6,110.9,84.7,148c16.6,17.5,36.6,32.1,59.4,43.7c-1.9-70.8,8.5-95.1,8.6-91.7
		c2.2,105.4,12.5,197,23.1,204.7c16.7,4.2,27.8-29.4,27.9-29.8c0.8-2.6,3.1-4.4,5.8-4.6c2.7-0.2,5.2,1.2,6.5,3.6
		c5.7,11.4,18.5,30.7,28.4,33.8c1.9,0.6,3.5,0.5,5-0.4c0.4-0.3,10.3-8,18.6-88.8c4.4-43.2,6.8-94.7,5.7-122.5
		c-0.1-3.7,15.4,50.8,7.4,125.1c-0.1,0.9-0.2,1.7-0.3,2.6c31.4,0.9,64.1-1.8,96.9-7.9c7-1.4,14.2-3,21.8-4.9
		c-0.2-2.4-0.4-4.8-0.6-7.3c-6.7-81.7,8.1-107.4,8.2-103.7c0.9,45.4,3.4,88.3,6.7,123l4.5,34.5c0.1,0.8,0,1.6-0.2,2.4
		c3.6,25.3,7.8,41.7,12,44.8c16.7,4.2,27.8-29.4,27.9-29.8c0.8-2.6,3.1-4.4,5.8-4.6c2.7-0.2,5.2,1.2,6.5,3.6
		c5.7,11.4,18.5,30.7,28.4,33.8c1.9,0.6,3.5,0.5,5-0.4c0.4-0.3,10.3-8,18.6-88.8c4.4-43.2,6.8-94.7,5.7-122.5
		c-0.1-1.9,4.7,11.2,7.8,35.7c11.5-16.1,20.1-34.1,25.4-53.6C867.6,715.6,852.2,651.2,811.8,605.5L811.8,605.5z"/>
	<path class="st0" d="M318,364.7c-2.7-0.7-5.4-1.4-8.2-1.9c-2.8-0.4-5.5-0.7-8.3-1c-11.2-0.8-22.5-0.1-33.4,2.5
		c-10.9,2.4-21.5,6.2-31.4,11.2c-9.8,5.1-19.2,11.2-27,19.2c10.4-3.7,20.5-7.2,30.6-10.4c10.1-3.2,20.2-5.9,30.4-8.2
		c10.2-2.4,20.5-3.8,30.9-4.8c2.6-0.2,5.2-0.4,7.9-0.6l7.9-0.2l4-0.2c1.3,0,2.7,0.1,4,0.1c2.7,0.1,5.4,0.1,8.2,0
		c-2.5-1.2-5-2.3-7.6-3.3c-1.3-0.5-2.6-1-3.9-1.5L318,364.7z"/>
	<path class="st0" d="M433.4,519.9c1.7,1.4,3.4,2.7,5.2,4c10.1,6.9,22.3,10.7,34.4,10.8c6,0.1,12-0.8,17.6-2.3
		c2.9-0.7,5.6-1.7,8.3-2.8c1.4-0.5,2.6-1.2,4-1.8c1.3-0.6,2.6-1.2,3.9-1.9c10-5.6,18.8-12.8,26-21.3c-9.3,6.1-18.8,11.4-28.9,14.8
		c-5,1.7-10.1,3.1-15.1,3.7c-5.1,0.7-10.2,0.9-15.1,0.3c-9.9-1.1-19.3-4.7-27-10.6c-7.8-5.8-14.1-13.7-18.1-22.5
		c-4-8.8-5.7-18.7-4.7-28.2c0.5-4.5,2-8.9,4.3-13c2.3-4.1,5.4-7.9,9.1-11.3c7.4-6.9,16.6-12.3,26.3-16.9c9.7-4.7,20-8.4,30.6-11.6
		c-11.1,0.1-22.2,2-33.1,5c-10.8,3.1-21.6,7.6-31.1,14.8c-3,2.3-5.8,5-8.4,7.9c-9.7-12.5-23.1-23.2-39.7-31.2
		c-30.4-14.8-68-19.1-105.7-12.2c-54.1,9.9-97.2,41.1-115.3,78.7c-7.2-1.8-14.6-2.7-21.8-2.9c-11.3-0.3-22.5,0.6-33.3,3.1
		c11.1,0.6,21.9,1.7,32.5,3.9c6.4,1.3,12.8,3,18.8,5.2c-5.2,14.3-6.8,29.4-4.1,44.4c2.7,14.9,9.4,28.5,19.5,40.3
		c-5.4,5.3-12,9.3-19.3,12c-4.7,1.8-9.6,2.8-14.7,3.4c-5.1,0.6-10.3,0.5-15.6,0.1c-10.6-0.9-21.1-3.8-31.6-7.4
		c9,6.5,19.3,11.4,30.3,14.4c1.4,0.4,2.8,0.7,4.2,1c1.4,0.3,2.8,0.6,4.3,0.8c2.9,0.3,5.8,0.7,8.7,0.7c5.9,0.1,11.9-0.4,17.7-2
		c9.2-2.4,18-7,25.3-13.4c7.8,7,17,13.1,27.5,18.2c21,10.2,45.3,15.4,70.8,15.4c11.5,0,23.2-1.1,34.9-3.2
		C372.6,595.5,417.7,560.8,433.4,519.9z M215,582c-27.2-13.2-44.7-34-49.1-58.5c-9.4-51.4,41.1-103.8,112.6-116.9
		c11-2,21.9-3,32.6-3c23.5,0,45.8,4.8,65,14.1c16.3,7.9,29.1,18.6,37.7,31.1c-1.6,3.6-2.8,7.3-3.5,11.2c-2,12.3,0,24.9,5,36.1
		c2.1,4.6,4.8,9,7.9,13.1c-11.5,39.2-54.6,73.6-110.6,83.8C277.5,599.4,242.9,595.5,215,582z"/>
	<path class="st0" d="M207.3,153c1.5,1.9,3.2,3.6,5.3,5.1c2.1,1.4,4.4,2.5,6.8,3.2c4.8,1.4,9.9,1.4,14.8-0.1
		c2.2-0.7,4.3-1.8,6.2-3.2c0.7,1.5,1.5,2.9,2.5,4.2c2.7,3.5,6,6.3,9.6,8.3c3.6,2.1,7.5,3.5,11.5,4.5c4.1,0.9,8,1.2,12.1,1.1
		c8.1-0.3,16.5-2.8,23.1-8.2c4.4-3.6,7.9-8.3,9.9-13.7c8.1,4.9,18.7,4.6,26.5,0.1c10.2-5.9,16.2-16.6,17.8-27.3
		c1.5-10.8-1.2-22.2-8-30.6c-6.6-8.4-16.6-13.7-26.7-14.5c9.9,2.4,18.4,8.7,23.5,16.8c5.2,8.1,6.8,18.1,4.7,27.2
		c-1,4.5-2.8,8.9-5.4,12.5c-2.6,3.7-6.1,6.7-9.8,8.7c-3.8,2-8,2.6-12,1.8c-4-0.8-7.6-3-9.6-6l-7.6-11.2l-0.8,13.6
		c-0.3,5.8-3.7,11.5-8.5,15.3c-4.7,3.8-11.1,5.8-17.5,6.1c-6.5,0.3-13-1-18.6-4.1c-2.7-1.6-5.2-3.5-7-5.8c-1.8-2.3-3-4.9-3.3-7.7
		l-1.9-14.9l-6.2,13.3c-2.6,5.5-10.5,8.3-17.3,6.7c-6.8-1.4-12-7.8-13.8-15.2c-1.8-7.5-0.4-15.7,3.8-22.7c4.1-7,10.3-12.9,17.3-17.7
		c-7.6,3.6-14.9,8.7-20.1,15.9c-2.6,3.6-4.7,7.6-5.9,12c-1.2,4.4-1.4,9.1-0.7,13.6C202.6,144.6,204.3,149.1,207.3,153z"/>
	<path class="st4" d="M429.1,388.8c22.2,0,40.2-18,40.2-40.2s-18-40.2-40.2-40.2c-22.2,0-40.2,18-40.2,40.2S406.9,388.8,429.1,388.8
		z"/>
	<path class="st4" d="M182.8,401.6c0-22.2-18-40.2-40.2-40.2s-40.2,18-40.2,40.2s18,40.2,40.2,40.2S182.8,423.9,182.8,401.6z"/>
	<path class="st5" d="M318,364.7c-2.7-0.7-5.4-1.4-8.2-1.9c-2.8-0.4-5.5-0.7-8.3-1c-11.2-0.8-22.5-0.1-33.4,2.5
		c-10.9,2.4-21.5,6.2-31.4,11.2c-9.8,5.1-19.2,11.2-27,19.2c10.4-3.7,20.5-7.2,30.6-10.4c10.1-3.2,20.2-5.9,30.4-8.2
		c10.2-2.4,20.5-3.8,30.9-4.8c2.6-0.2,5.2-0.4,7.9-0.6l7.9-0.2l4-0.2c1.3,0,2.7,0.1,4,0.1c2.7,0.1,5.4,0.1,8.2,0
		c-2.5-1.2-5-2.3-7.6-3.3c-1.3-0.5-2.6-1-3.9-1.5L318,364.7z"/>
	<path class="st4" d="M324.4,437.9c-14.4,2.7-21.5,30.1-15.7,61.2c5.7,31.1,22.1,54.2,36.5,51.6c14.4-2.7,21.5-30.1,15.7-61.2
		C355.1,458.4,338.8,435.3,324.4,437.9z"/>
	<path class="st4" d="M230.2,451.2c-14.4,2.7-21.5,30.1-15.7,61.2c5.7,31.1,22.1,54.2,36.5,51.6c14.4-2.7,21.5-30.1,15.7-61.2
		C261,471.6,244.6,448.5,230.2,451.2z"/>
	<path class="st5" d="M433.4,519.9c1.7,1.4,3.4,2.7,5.2,4c10.1,6.9,22.3,10.7,34.4,10.8c6,0.1,12-0.8,17.6-2.3
		c2.9-0.7,5.6-1.7,8.3-2.8c1.4-0.5,2.6-1.2,4-1.8c1.3-0.6,2.6-1.2,3.9-1.9c10-5.6,18.8-12.8,26-21.3c-9.3,6.1-18.8,11.4-28.9,14.8
		c-5,1.7-10.1,3.1-15.1,3.7c-5.1,0.7-10.2,0.9-15.1,0.3c-9.9-1.1-19.3-4.7-27-10.6c-7.8-5.8-14.1-13.7-18.1-22.5
		c-4-8.8-5.7-18.7-4.7-28.2c0.5-4.5,2-8.9,4.3-13c2.3-4.1,5.4-7.9,9.1-11.3c7.4-6.9,16.6-12.3,26.3-16.9c9.7-4.7,20-8.4,30.6-11.6
		c-11.1,0.1-22.2,2-33.1,5c-10.8,3.1-21.6,7.6-31.1,14.8c-3,2.3-5.8,5-8.4,7.9c-9.7-12.5-23.1-23.2-39.7-31.2
		c-30.4-14.8-68-19.1-105.7-12.2c-54.1,9.9-97.2,41.1-115.3,78.7c-7.2-1.8-14.6-2.7-21.8-2.9c-11.3-0.3-22.5,0.6-33.3,3.1
		c11.1,0.6,21.9,1.7,32.5,3.9c6.4,1.3,12.8,3,18.8,5.2c-5.2,14.3-6.8,29.4-4.1,44.4c2.7,14.9,9.4,28.5,19.5,40.3
		c-5.4,5.3-12,9.3-19.3,12c-4.7,1.8-9.6,2.8-14.7,3.4c-5.1,0.6-10.3,0.5-15.6,0.1c-10.6-0.9-21.1-3.8-31.6-7.4
		c9,6.5,19.3,11.4,30.3,14.4c1.4,0.4,2.8,0.7,4.2,1c1.4,0.3,2.8,0.6,4.3,0.8c2.9,0.3,5.8,0.7,8.7,0.7c5.9,0.1,11.9-0.4,17.7-2
		c9.2-2.4,18-7,25.3-13.4c7.8,7,17,13.1,27.5,18.2c21,10.2,45.3,15.4,70.8,15.4c11.5,0,23.2-1.1,34.9-3.2
		C372.6,595.5,417.7,560.8,433.4,519.9z M215,582c-27.2-13.2-44.7-34-49.1-58.5c-9.4-51.4,41.1-103.8,112.6-116.9
		c11-2,21.9-3,32.6-3c23.5,0,45.8,4.8,65,14.1c16.3,7.9,29.1,18.6,37.7,31.1c-1.6,3.6-2.8,7.3-3.5,11.2c-2,12.3,0,24.9,5,36.1
		c2.1,4.6,4.8,9,7.9,13.1c-11.5,39.2-54.6,73.6-110.6,83.8C277.5,599.4,242.9,595.5,215,582z"/>
	<path class="st5" d="M207.3,153c1.5,1.9,3.2,3.6,5.3,5.1c2.1,1.4,4.4,2.5,6.8,3.2c4.8,1.4,9.9,1.4,14.8-0.1
		c2.2-0.7,4.3-1.8,6.2-3.2c0.7,1.5,1.5,2.9,2.5,4.2c2.7,3.5,6,6.3,9.6,8.3c3.6,2.1,7.5,3.5,11.5,4.5c4.1,0.9,8,1.2,12.1,1.1
		c8.1-0.3,16.5-2.8,23.1-8.2c4.4-3.6,7.9-8.3,9.9-13.7c8.1,4.9,18.7,4.6,26.5,0.1c10.2-5.9,16.2-16.6,17.8-27.3
		c1.5-10.8-1.2-22.2-8-30.6c-6.6-8.4-16.6-13.7-26.7-14.5c9.9,2.4,18.4,8.7,23.5,16.8c5.2,8.1,6.8,18.1,4.7,27.2
		c-1,4.5-2.8,8.9-5.4,12.5c-2.6,3.7-6.1,6.7-9.8,8.7c-3.8,2-8,2.6-12,1.8c-4-0.8-7.6-3-9.6-6l-7.6-11.2l-0.8,13.6
		c-0.3,5.8-3.7,11.5-8.5,15.3c-4.7,3.8-11.1,5.8-17.5,6.1c-6.5,0.3-13-1-18.6-4.1c-2.7-1.6-5.2-3.5-7-5.8c-1.8-2.3-3-4.9-3.3-7.7
		l-1.9-14.9l-6.2,13.3c-2.6,5.5-10.5,8.3-17.3,6.7c-6.8-1.4-12-7.8-13.8-15.2c-1.8-7.5-0.4-15.7,3.8-22.7c4.1-7,10.3-12.9,17.3-17.7
		c-7.6,3.6-14.9,8.7-20.1,15.9c-2.6,3.6-4.7,7.6-5.9,12c-1.2,4.4-1.4,9.1-0.7,13.6C202.6,144.6,204.3,149.1,207.3,153z"/>
	<path class="st1" d="M466.5,1000c16.7,4.2,27.8-29.4,27.9-29.8c0.2-0.6,0.4-1.1,0.7-1.6c-2.1-35.3-3.7-88.4-4.9-121.9
		c-1.6-45.1-9.7-99-26.6-90.9c-16.9,8-20.2,39.4-20.2,39.4C445.6,900.6,455.9,992.2,466.5,1000z"/>
	<path class="st1" d="M93.6,607.7c35.1,45.4,101.6,71.4,184.6,74l1.3,0c1.3,0,2.6,0.1,3.9,0.1c2.2,0,4.4,0.1,6.7,0.1
		c0.4,0,0.8,0,1.2,0c4.5,0,9.1-0.1,13.6-0.2c0.9,0,1.8,0,2.8-0.1c1.8-0.1,3.7-0.1,5.5-0.2c1.4-0.1,2.8-0.1,4.2-0.2
		c1.7-0.1,3.4-0.2,5.1-0.3c1.6-0.1,3.2-0.2,4.8-0.3c1.6-0.1,3.2-0.2,4.7-0.4c1.9-0.2,3.9-0.3,5.8-0.5c1.3-0.1,2.6-0.2,3.9-0.4
		c3.3-0.3,6.6-0.7,9.9-1.1c4-0.5,8-1,12-1.6c1.5-0.2,2.9-0.4,4.4-0.7c2.5-0.4,4.9-0.7,7.4-1.1c1.9-0.3,3.8-0.6,5.6-1
		c2-0.3,4-0.7,6-1.1c2.1-0.4,4.3-0.8,6.4-1.2c1.7-0.3,3.3-0.7,5-1c2.4-0.5,4.7-1,7-1.5c1.3-0.3,2.6-0.6,4-0.9
		c2.6-0.6,5.2-1.2,7.8-1.8c0.9-0.2,1.7-0.4,2.6-0.6c24.5-6.1,48.2-13.9,70.9-23.1c0.2-0.1,0.4-0.1,0.5-0.2c3.2-1.3,6.3-2.6,9.4-3.9
		c0.2-0.1,0.4-0.2,0.6-0.3c3.1-1.4,6.2-2.7,9.3-4.1c0.1,0,0.2-0.1,0.3-0.1c-97.4,37.4-299.7,41-346.8-27.8
		c-47.1-68.8-25.3-128-18.1-149.7c7.2-21.7-24.6-163.9,6-255.9C178,123.3,242,74.7,284.8,49.7c-28.6,9.7-55.7,23.7-80.3,41.8
		c-63.4,46.7-103.8,113.6-120,199c-13,68.6-6.5,129-3.8,154.8c1.1,10.6,1.4,12.8,0.4,15.1C58.9,517.4,63.2,568.3,93.6,607.7z"/>
	<path class="st1" d="M415.3,464.5c-2.4,16.9,9.7,55.5,47.5,64.4c37.8,8.9,69.9-24.4,69.9-24.4c-29.9,12.7-73.9,1.8-73.1-43.2
		c0.8-45.1,34.5-52.1,34.5-52.1C441.6,415.8,417.8,447.6,415.3,464.5z"/>
	<path class="st1" d="M578.3,181.3c-61.6-64-56.7-128-90.5-124.3c-25.4,2.7-44.7,43-19.3,90.5c-0.1-0.4-0.1-0.6-0.1-0.6
		c41.1,60.1,175.6,133.3,210.8,145.6c19,6.6,54.5,5.6,71.5-13.5c10.1-11.4,12.6-27.9,7.7-48.8C736.7,263.9,638.9,244.2,578.3,181.3z
		"/>
	<path class="st6" d="M276.3,596c-66.7-11-110.8-60.2-88.7-115.3c11.9-29.7,33.9-50,54.2-63.2c-51.2,21.3-83.6,64-75.9,106.1
		c4.5,24.5,21.9,45.3,49.1,58.5C233.2,590.8,254.2,595.5,276.3,596z"/>
	<path class="st1" d="M214.2,155.5c6.8,4.4,18.9,1.6,18.9,1.6s4.8-5.6,10.1,0c5.2,5.6,27.8,21.3,49.5,9.7
		c21.7-11.7,9.8-35.3,9.8-35.3s-15.8,24.8-33.9,12.8c-18.1-12.1-10.5-30.2-21.7-31.8c-11.3-1.6-22.5,20.5-26.6,10.5
		c-4-10.1,8.4-24.5,8.4-24.5C189.9,121.1,207.3,151.1,214.2,155.5z"/>
	<g>
		<path class="st1" d="M738,898.3c-4-69.2-12.9-132.8-24.1-129.6c-11.3,3.2-16.2,26.5-16.2,26.5c0.9,45.4,3.4,88.3,6.7,123l4.5,34.5
			c0.1,0.8,0,1.6-0.2,2.4c3.6,25.3,7.8,41.7,12,44.8c10.8,2.7,19.3-10.5,24-20.2C742.8,962.3,740.2,935.1,738,898.3z"/>
		<path class="st1" d="M744.2,1004l3.4-1.1c0,0-0.1-0.8-0.3-2.3C746.4,1001.8,745.3,1002.9,744.2,1004z"/>
	</g>
	<path class="st5" d="M904.3,498.4c-13.6-23.5-41.6-36.8-68.1-32.4c-5.9,1-9.9,6.6-8.9,12.5c1,5.9,6.6,9.9,12.5,8.9
		c17.5-2.9,36.7,6.2,45.7,21.8c9,15.6,7.6,36.6-3.4,51.2c-1,1.4-2.2,2.7-3.3,3.9c0.5-12.3-3.5-24.7-15-31.2
		c-6.5-3.7-14.3-4.4-21.9-2.1c-8,2.4-14.7,8-18.3,15.1c-6.5,13-2.9,29.7,8.4,39.9c2.9,2.6,6.3,4.7,9.9,6.3c-2.1,1.9-4.4,3.6-6.7,5
		c-3,1.8-6.1,3.1-9.4,4c-1.3-1.6-2.6-3.1-4-4.6c-23-26.1-63.8-60.3-154.5-63.9c5.2-6.5,10.1-13.1,14.6-19.8
		c41.3-61.5,55.2-130.5,41.4-205.4c14-2.8,27.6-8.9,37.3-19.9c23.5-26.4,11.9-66.2-2-94.9c-29.9-61.7-59-104.3-91.6-133.8
		C626.1,22,579.4,6.7,528,13.6c-26.9,3.6-47.9,9.3-64.4,15.9c-86.3-20.9-176.1-6.9-248.8,38.9c-20.4-0.2-47,3.7-81.1,15.7
		c-48.9,17.2-83.6,52-103.2,103.5C14.9,228.8,8.3,279.9,9.7,348.5c1.2,57.8,23.1,78.4,41.3,85.5c5.1,2,10.3,3.1,15.6,3.6
		c0.3,3.4,0.7,6.4,0.9,9.1c0.4,4,0.9,8.1,0.9,9.8c-23.7,61.2-18.6,116.3,14.7,159.4c37.3,48.2,107,76.1,193.5,79.1
		c15.9,48.9,38.8,93.8,66,129.9c0.7,11.9,1.5,24.5,2.4,37.1c7.3,95.4,17.6,111,27.5,113.7c18,4.9,31.3-10.3,38.9-25.4
		c6.7,10.6,17.6,24.7,29.5,28.4c0.9,0.3,1.9,0.5,2.8,0.7c5.7,25.5,12.9,31.8,18.9,33.4c18,4.9,31.3-10.3,38.9-25.4
		c6.7,10.6,17.6,24.7,29.5,28.4c2.1,0.6,4.1,1,6.2,1c3.2,0,6.3-0.8,9.2-2.4c4.1-2.3,14.2-8.1,23.4-82c4.4,0.1,8.8,0.2,13.2,0.2
		c3.3,0,6.6-0.1,9.9-0.2c6.2,35,13,41.6,19.4,43.3c18,4.9,31.3-10.3,38.9-25.4c6.7,10.6,17.6,24.7,29.5,28.4c2.1,0.6,4.1,1,6.2,1
		c3.2,0,6.3-0.8,9.2-2.4c0.9-0.5,1.8-1.2,2.7-2c5.7,28.9,11.9,35.8,18.2,37.5c18,4.9,31.3-10.3,38.9-25.4
		c6.7,10.6,17.6,24.7,29.5,28.4c2.1,0.6,4.1,1,6.2,1c3.2,0,6.3-0.8,9.2-2.4c4.4-2.4,14.4-9.1,25.2-97.8c3.3-27.1,3.5-50.7,2.3-70
		c16.9-20.1,29.4-43.5,36.4-69.5c14.4-53,4.5-111-25.6-157.4c2.4-1,4.8-2.2,7.1-3.6c8.7-5.2,16.2-12.5,21.9-21.3
		c0.5-0.1,1-0.2,1.6-0.4c11.2-2.9,21.7-10.3,29.6-20.8C915.5,552.3,917.5,521.4,904.3,498.4z M65.4,424c-3.3-0.4-6.5-1.2-9.5-2.4
		c-20.7-8.1-32.1-33.5-32.9-73.4C20,203.3,55.5,125.7,138.1,96.7c22-7.7,40.4-11.8,55.7-13.7C129.2,131.6,88,200.6,71.5,288
		C61.1,342.8,62.8,392.3,65.4,424z M283.4,681.8c-1.3,0-2.6,0-3.9-0.1l-1.3,0c-83-2.6-149.5-28.7-184.6-74
		c-30.4-39.3-34.8-90.3-12.5-147.3c0.9-2.4,0.7-4.6-0.4-15.1c-2.8-25.8-9.2-86.2,3.8-154.8c16.2-85.3,56.5-152.3,120-199
		c52.1-38.4,115.3-58.2,180.2-58.2c19.7,0,39.6,1.9,59.4,5.6c-34,19.3-26.2,45.4-26.2,45.4c0.1-0.4,9.9-43.8,111.9-57.5
		c86.8-11.6,153.7,41.3,216.9,171.7c17.4,36,18.8,63.7,4,80.3c-17,19.1-52.5,20.1-71.5,13.5c-35.2-12.2-169.6-85.4-210.8-145.6
		c0,0,1.5,16.8,27.8,44.7c-9.4-3.1-19.5-7.5-28.6-13.7c0,0,12.9,22.8,47.8,32.1c9.1,7.9,19.9,16.4,32.8,25.4
		c50.2,35,105.1,62.2,126.7,69.7c7.9,2.8,18.3,4.5,29.3,4.5c2,0,3.9-0.1,5.9-0.2c13.3,71.8,0.2,137.7-39.2,196.4
		c-7.3,10.8-15.4,21.2-24.4,31.3c-0.8,0.9-1.5,1.7-2.3,2.6c-1.7,1.9-3.4,3.8-5.2,5.6c-0.5,0.5-1,1-1.5,1.6c-2.2,2.3-4.4,4.5-6.7,6.7
		c-0.1,0.1-0.3,0.3-0.4,0.4c-10.2,10-21.2,19.5-32.9,28.5c-0.1,0.1-0.3,0.2-0.4,0.3c-2.7,2-5.4,4.1-8.1,6c-0.6,0.4-1.2,0.9-1.8,1.3
		c-2.3,1.6-4.6,3.3-6.9,4.8c-0.9,0.6-1.8,1.2-2.7,1.8c-2,1.4-4.1,2.7-6.1,4.1c-1.1,0.7-2.3,1.5-3.4,2.2c-1.8,1.1-3.6,2.3-5.4,3.4
		c-1.4,0.9-2.8,1.7-4.2,2.6c-1.5,0.9-3,1.8-4.5,2.7c-1.7,1-3.5,2-5.2,3c-0.8,0.5-1.6,0.9-2.4,1.4c-11.3,6.4-23.1,12.4-35.2,17.9
		c-0.1,0-0.2,0.1-0.3,0.1c-3.1,1.4-6.2,2.8-9.3,4.1c-0.2,0.1-0.4,0.2-0.6,0.3c-3.1,1.3-6.3,2.7-9.4,3.9c-0.2,0.1-0.4,0.1-0.5,0.2
		c-22.7,9.2-46.4,17-70.9,23.1c-0.9,0.2-1.7,0.4-2.6,0.6c-2.6,0.6-5.2,1.2-7.8,1.8c-1.3,0.3-2.6,0.6-4,0.9c-2.3,0.5-4.7,1-7,1.5
		c-1.7,0.3-3.3,0.7-5,1c-2.1,0.4-4.2,0.8-6.4,1.2c-2,0.4-4,0.7-6,1.1c-1.9,0.3-3.7,0.7-5.6,1c-2.4,0.4-4.9,0.8-7.4,1.1
		c-1.5,0.2-2.9,0.5-4.4,0.7c-4,0.6-8,1.1-12,1.6c-3.3,0.4-6.6,0.7-9.9,1.1c-1.3,0.1-2.6,0.2-3.9,0.4c-1.9,0.2-3.9,0.4-5.8,0.5
		c-1.6,0.1-3.2,0.2-4.7,0.4c-1.6,0.1-3.2,0.2-4.8,0.3c-1.7,0.1-3.4,0.2-5.1,0.3c-1.4,0.1-2.8,0.1-4.2,0.2c-1.8,0.1-3.7,0.2-5.5,0.2
		c-0.9,0-1.8,0-2.8,0.1c-4.6,0.1-9.1,0.2-13.6,0.2c-0.4,0-0.8,0-1.2,0C287.8,681.9,285.6,681.9,283.4,681.8z M416.5,932.2
		c-1.2-2.4-3.7-3.8-6.5-3.6c-2.7,0.2-5,2-5.8,4.6c-0.1,0.3-11.3,33.9-27.9,29.8c-7.6-5.6-15-54.4-19.4-120.5
		c2.9,3.4,5.9,6.7,8.9,9.9c19.2,20.3,42.7,36.9,69.6,49.7c1.2,26.5,3.2,46.7,5.6,62C431.8,958.1,421.5,942.2,416.5,932.2z
		 M689.8,965.6c-1.5,0.8-3.1,1-5,0.4c-9.9-3.1-22.7-22.3-28.4-33.8c-1.1-2.3-3.4-3.7-5.9-3.7c-0.2,0-0.3,0-0.5,0
		c-2.7,0.2-5,2-5.8,4.6c-0.1,0.3-11.3,33.9-27.9,29.8c-0.9-0.7-5-5.3-9.7-30.3c17.5-1.1,41.5-3.7,69.8-9.7c5-1,9.9-2.1,14.9-3.2
		l0.5,3.5c1.2,11.6,2.4,21.7,3.6,30.6C692.1,963.9,689.8,965.6,689.8,965.6z M851.9,773.5c-5.3,19.5-13.9,37.5-25.4,53.6
		c-3.1-24.6-7.9-37.7-7.8-35.7c1.1,27.8-1.3,79.3-5.7,122.5c-8.3,80.8-18.2,88.5-18.6,88.8c-1.5,0.9-3.1,1-5,0.4
		c-9.9-3.1-22.7-22.3-28.4-33.8c-1.2-2.4-3.8-3.9-6.5-3.6c-2.7,0.2-5,2-5.8,4.6c-0.1,0.3-11.2,33.9-27.9,29.8
		c-4.2-3.1-8.4-19.5-12-44.8c0.2-0.8,0.3-1.6,0.2-2.4l-4.5-34.5c-3.3-34.7-5.8-77.5-6.7-123c-0.1-3.7-14.9,22-8.2,103.7
		c0.2,2.5,0.4,4.9,0.6,7.3c-7.5,1.9-14.8,3.5-21.8,4.9c-32.8,6.1-65.5,8.8-96.9,7.9c0.1-0.9,0.2-1.7,0.3-2.6
		c8-74.3-7.5-128.7-7.4-125.1c1.1,27.8-1.3,79.3-5.7,122.5c-8.3,80.8-18.2,88.5-18.6,88.8c-1.5,0.9-3.1,1-5,0.4
		c-9.9-3.1-22.7-22.3-28.4-33.8c-1.2-2.4-3.8-3.9-6.5-3.6c-2.7,0.2-5,2-5.8,4.6c-0.1,0.3-11.2,33.9-27.9,29.8
		c-10.5-7.8-20.9-99.3-23.1-204.7c-0.1-3.5-10.5,20.9-8.6,91.7c-22.8-11.7-42.8-26.3-59.4-43.7c-35.1-37.1-65-89.4-84.7-148
		c0.4,0,0.8,0,1.2,0c0.3,0,0.5,0,0.8,0c1.8,0,3.7-0.1,5.5-0.1c2.9,0,5.8,0,8.7-0.1c2.6-0.1,5.3-0.2,8-0.4c2.4-0.1,4.8-0.2,7.2-0.3
		c3.5-0.2,7-0.5,10.5-0.8c1.7-0.1,3.3-0.2,5-0.4c5.2-0.5,10.5-1,15.8-1.6c4.1-0.5,8.2-1,12.2-1.6c1.5-0.2,3-0.5,4.6-0.7
		c2.5-0.4,5-0.8,7.5-1.2c1.9-0.3,3.8-0.6,5.7-1c2.1-0.4,4.2-0.7,6.2-1.1c2.1-0.4,4.2-0.8,6.3-1.2c1.8-0.4,3.6-0.7,5.4-1.1
		c2.3-0.5,4.6-1,6.9-1.5c1.5-0.3,2.9-0.7,4.4-1c2.5-0.6,5.1-1.2,7.6-1.8c0.9-0.2,1.9-0.5,2.8-0.7c13.8-3.5,27.4-7.4,40.7-11.8
		c0.1,0,0.2-0.1,0.4-0.1c3.1-1,6.2-2.1,9.3-3.2c0.6-0.2,1.1-0.4,1.7-0.6c2.9-1,5.8-2.1,8.7-3.2c0.7-0.3,1.4-0.5,2.1-0.8
		c2.8-1.1,5.6-2.2,8.3-3.3c0.8-0.3,1.6-0.6,2.3-1c2.7-1.1,5.4-2.2,8.1-3.4c0.8-0.3,1.5-0.7,2.3-1c2.7-1.2,5.4-2.4,8.1-3.6
		c0.5-0.2,1-0.5,1.6-0.7c4.6-2.1,9.1-4.3,13.6-6.5c1.6-0.8,3.2-1.5,4.7-2.3c1.4-0.7,2.7-1.4,4-2.1c2.2-1.1,4.3-2.3,6.5-3.4
		c1.1-0.6,2.2-1.2,3.3-1.8c2.4-1.3,4.8-2.6,7.1-4c0.9-0.5,1.7-1,2.6-1.5c2.7-1.5,5.3-3.1,7.9-4.7c0.6-0.3,1.1-0.7,1.7-1
		c3-1.9,6-3.8,9-5.7c0.1-0.1,0.3-0.2,0.4-0.3c30.2-19.5,56.9-42,78.9-66.8c45.4,0.5,109.6,7.7,155.5,59.7v0
		C852.2,651.2,867.6,715.6,851.9,773.5z M855.3,572.2c-0.2,0.5-0.4,1-0.6,1.5c-3.2-0.6-6.1-1.9-8.3-3.9c-4-3.5-5.5-9.8-3.4-14
		c0.9-1.8,2.9-3.3,5.1-4c0.8-0.2,1.6-0.4,2.4-0.4c0.9,0,1.8,0.2,2.5,0.6C857.9,554.8,858,564.7,855.3,572.2z"/>
	<path class="st1" d="M668.4,911.1c7-1.4,14.2-3,21.8-4.9c-0.2-2.4-0.4-4.8-0.6-7.3c-0.8-9.8-1.3-18.7-1.5-26.9
		c-32.3,4-72.5,6-113.9,0.8c0,13.5-0.6,28.1-2.3,43.7c-0.1,0.9-0.2,1.7-0.3,2.6C602.8,919.9,635.6,917.2,668.4,911.1z"/>
	<path class="st1" d="M690.1,547.7c-11.9-1.3-23.4-1.8-33.8-1.9c-22,24.8-48.7,47.3-78.9,66.8c-0.1,0.1-0.3,0.2-0.4,0.3
		c-3,1.9-6,3.8-9,5.7c-0.6,0.3-1.1,0.7-1.7,1c-2.6,1.6-5.2,3.1-7.9,4.7c-0.9,0.5-1.7,1-2.6,1.5c-2.4,1.4-4.7,2.7-7.1,4
		c-1.1,0.6-2.2,1.2-3.3,1.8c-2.1,1.2-4.3,2.3-6.5,3.4c-1.3,0.7-2.7,1.4-4,2.1c-1.6,0.8-3.1,1.6-4.7,2.3c-4.5,2.2-9,4.4-13.6,6.5
		c-0.5,0.2-1,0.5-1.6,0.7c-2.7,1.2-5.4,2.4-8.1,3.6c-0.8,0.3-1.5,0.7-2.3,1c-2.7,1.2-5.4,2.3-8.1,3.4c-0.8,0.3-1.6,0.6-2.3,1
		c-2.8,1.1-5.5,2.2-8.3,3.3c-0.7,0.3-1.4,0.5-2.1,0.8c-2.9,1.1-5.8,2.2-8.7,3.2c-0.6,0.2-1.1,0.4-1.7,0.6c-3.1,1.1-6.2,2.2-9.3,3.2
		c-0.1,0-0.2,0.1-0.4,0.1c-13.3,4.4-26.9,8.4-40.7,11.8c-0.9,0.2-1.9,0.5-2.8,0.7c-2.5,0.6-5.1,1.2-7.6,1.8c-1.5,0.3-2.9,0.7-4.4,1
		c-2.3,0.5-4.6,1-6.9,1.5c-1.8,0.4-3.6,0.7-5.4,1.1c-2.1,0.4-4.2,0.8-6.3,1.2c-2.1,0.4-4.2,0.8-6.2,1.1c-1.9,0.3-3.8,0.7-5.7,1
		c-2.5,0.4-5,0.8-7.5,1.2c-1.5,0.2-3,0.5-4.6,0.7c-4.1,0.6-8.1,1.1-12.2,1.6c-5.3,0.6-10.6,1.2-15.8,1.6c-1.7,0.2-3.3,0.2-5,0.4
		c-3.5,0.3-7,0.6-10.5,0.8c-2.4,0.1-4.8,0.2-7.2,0.3c-2.7,0.1-5.4,0.3-8,0.4c-2.9,0.1-5.8,0.1-8.7,0.1c-1.8,0-3.7,0.1-5.5,0.1
		c-0.3,0-0.5,0-0.8,0c-0.4,0-0.8,0-1.2,0c1.4,4.1,2.8,8.2,4.3,12.3c1.1,3,2.2,6,3.4,9c0,0.1,0.1,0.2,0.1,0.4c0,0,0,0,0,0
		c19.4,49.8,46.1,93.9,76.9,126.4c16.6,17.5,36.6,32.1,59.4,43.7c-0.8-30.3,0.6-52.1,2.6-66.8c-46.5-33.9-71.1-73-84-103.1
		C531.7,707.6,645.1,600.1,690.1,547.7z"/>
	<g>
		
			<ellipse transform="matrix(0.7607 -0.6491 0.6491 0.7607 -111.7433 366.8778)" class="st7" cx="441.7" cy="335" rx="9.5" ry="14.9"/>
		<path class="st7" d="M146.8,395.6c5.3,6.3,12.9,8.6,16.9,5.2s2.9-11.2-2.5-17.5c-5.3-6.3-12.9-8.6-16.9-5.2
			S141.5,389.4,146.8,395.6z"/>
	</g>
	<path class="st8" d="M332.9,421.8c20,3.7,44,13.9,63.7,38.9"/>
	<path class="st8" d="M293.4,421.5c0,0,5.9-1.3,15.3-1.6"/>
	<path class="st9" d="M480.5,437.3c2,5.3,11.7,6.6,21.7,2.9c10-3.7,16.5-11,14.5-16.3c-2-5.3-11.7-6.6-21.7-2.9
		C485.1,424.6,478.5,431.9,480.5,437.3z"/>
	<g>
		<g>
			<path class="st9" d="M783.9,966.3c-0.5,0-1-0.1-1.5-0.2c-3.2-0.8-5.2-4.1-4.4-7.3c11-43.5,12.9-87.2,12.6-116.3
				c0-3.3,2.6-6.1,6-6.1c0,0,0,0,0.1,0c3.3,0,6,2.7,6,6c0.3,29.8-1.6,74.7-12.9,119.4C789.1,964.5,786.6,966.3,783.9,966.3z"/>
			<path class="st9" d="M795.9,825.4c-3.2,0-5.8-2.5-6-5.7c-0.7-11.8-1.5-18.8-1.5-18.9c-0.4-3.3,2-6.3,5.3-6.7
				c3.3-0.4,6.3,2,6.7,5.3c0,0.3,0.9,7.5,1.6,19.7c0.2,3.3-2.4,6.2-5.7,6.4C796.1,825.4,796,825.4,795.9,825.4z"/>
		</g>
		<g>
			<path class="st9" d="M527.2,966.3c-0.5,0-1-0.1-1.5-0.2c-3.2-0.8-5.2-4.1-4.4-7.3c11-43.4,12.9-87.2,12.6-116.3
				c0-3.3,2.6-6.1,6-6.1c0,0,0,0,0.1,0c3.3,0,6,2.7,6,6c0.3,29.8-1.6,74.7-12.9,119.4C532.4,964.5,529.9,966.3,527.2,966.3z"/>
			<path class="st9" d="M539.2,825.4c-3.2,0-5.8-2.5-6-5.7c-0.7-11.8-1.5-18.8-1.5-18.9c-0.4-3.3,2-6.3,5.3-6.7
				c3.3-0.4,6.3,2,6.7,5.3c0,0.3,0.9,7.5,1.6,19.7c0.2,3.3-2.4,6.2-5.7,6.4C539.4,825.4,539.3,825.4,539.2,825.4z"/>
		</g>
		<g>
			<g>
				<path class="st9" d="M820.9,734.1c-4.5,0-8.2-3.5-8.4-8.1c-1.7-37.5-14.1-88.1-63.1-115.7c-4.1-2.3-5.5-7.4-3.2-11.5
					c2.3-4.1,7.4-5.5,11.5-3.2c30.8,17.3,68.2,53.9,71.7,129.6c0.2,4.7-3.4,8.6-8,8.8C821.2,734.1,821,734.1,820.9,734.1z"/>
				<path class="st9" d="M726.6,599.9c-0.8,0-1.7-0.1-2.5-0.4c-11.6-3.6-19.7-4.3-19.7-4.3c-4.6-0.4-8.1-4.4-7.7-9.1
					c0.4-4.6,4.4-8.1,9.1-7.8c0.4,0,9.9,0.8,23.4,5c4.5,1.4,7,6.1,5.6,10.6C733.6,597.6,730.2,599.9,726.6,599.9z"/>
			</g>
			<g>
				<g>
					<path class="st9" d="M565,572.4c-2.8,0-5.5-1.4-7.1-3.9c-2.5-3.9-1.3-9.2,2.6-11.7c77.2-49.2,100.4-116.7,106.3-164.7
						c0.6-4.6,4.8-7.9,9.4-7.4c4.6,0.6,7.9,4.8,7.4,9.4c-6.3,51.6-31.2,124.1-114,176.9C568.1,572,566.6,572.4,565,572.4z"/>
					<path class="st9" d="M676.9,366.6c-4.6,0-8.3-3.6-8.4-8.2c-0.3-13.7-1.9-22.1-1.9-22.2c-0.8-4.6,2.2-9,6.8-9.8
						c4.6-0.8,9,2.2,9.8,6.8c0.1,0.4,1.8,9.7,2.2,24.9c0.1,4.7-3.6,8.5-8.2,8.7C677,366.6,676.9,366.6,676.9,366.6z"/>
				</g>
				<g>
					<path class="st9" d="M708.7,204.2c-3.2,0-6.3-1.8-7.7-5c-37.2-82-80.2-115-109.7-128.2c-4.3-1.9-6.2-6.9-4.3-11.2
						c1.9-4.3,6.9-6.2,11.2-4.3c58.3,26.1,96.5,88.7,118.2,136.7c1.9,4.2,0,9.3-4.2,11.2C711,204,709.8,204.2,708.7,204.2z"/>
					<path class="st9" d="M567,63c-0.5,0-1,0-1.5-0.1c-10.8-2-17.5-1.2-17.6-1.2c-4.6,0.6-8.8-2.7-9.4-7.3c-0.6-4.6,2.6-8.8,7.3-9.4
						c0.9-0.1,9.3-1.1,22.7,1.3c4.6,0.8,7.6,5.2,6.8,9.8C574.6,60.2,571.1,63,567,63z"/>
				</g>
			</g>
		</g>
	</g>
</g>
</svg>
